<?xml version="1.0" encoding="UTF-8"?>
<!DOCTYPE svg PUBLIC "-//W3C//DTD SVG 1.1//EN" "http://www.w3.org/Graphics/SVG/1.1/DTD/svg11.dtd">
<!-- Creator: CorelDRAW 2021 (64-Bit) -->
<svg xmlns="http://www.w3.org/2000/svg" xml:space="preserve" width="1.33112in" height="0.530677in" version="1.1" shape-rendering="geometricPrecision" text-rendering="geometricPrecision" image-rendering="optimizeQuality" fill-rule="evenodd" clip-rule="evenodd"
viewBox="0 0 290.27 115.72"
 xmlns:xlink="http://www.w3.org/1999/xlink"
 xmlns:xodm="http://www.corel.com/coreldraw/odm/2003">
 <g id="Layer_x0020_1">
  <metadata id="CorelCorpID_0Corel-Layer"/>
  <g id="_2116574800352">
   <g>
    <g>
     <path fill="#FEFEFE" d="M221.66 98.24c-0.09,-0.3 -0.06,-0.2 -0.08,-0.63 0.6,-0.23 -0.22,-0.07 0.59,-0.21 0.03,-0.44 -0.04,-0.32 -0.01,-0.79 0.86,-0.03 1.82,0.14 2.63,0.04 2.64,-0.3 1.2,0.16 3.46,-0.18 0.5,-0.08 0.75,-0.01 1.24,-0.01 1.32,-0.01 2.27,-0.61 4.36,-0.55 1.12,0.03 1.02,-0.25 2.38,-0.14 1.52,0.13 3.33,-0.21 4.64,-0.36 0.73,0.06 1.71,-0.18 2.24,-0.36 -0.13,-0.39 -0.27,-0.23 -0.41,-0.58l1.23 -0.39c0.31,-0.03 1.25,0.06 1.61,0.08l0.02 -0.24c1.45,0.09 -0.22,-0.36 2.69,-0.21 0.2,0.01 0.35,0.02 0.55,0.01l0.79 -0.14c0.12,-0 0.31,0.01 0.43,0.02 0.96,0.04 1.48,-0.28 2.55,-0.23 -0.17,-0.4 -0.59,-0.22 -1.08,-0.4 -1.16,-0.42 -0.05,-0.47 -2.13,-0.39 -0.51,0.02 -0.9,0.01 -1.14,-0.34 0.51,-0.38 0.56,-0.18 1.33,-0.2l2.25 -0.2c0.61,-0.06 0.61,-0.04 0.81,-0.46 -1.37,-0.09 -4.29,-0.08 -5.41,0.13 -1.02,0.19 -2.6,0.13 -3.94,0.05l0.33 -0.07c0.04,-0 0.08,-0.01 0.13,-0.01 0.16,-0.01 0.42,0.02 0.59,0.03 0.1,-1.32 -0.63,0.4 -0.48,-1.27 -1.24,-0.08 -2.91,-0.26 -4.11,-0.22 -0.67,0.02 -1.08,0.02 -1.94,-0.03 -0.5,-0.03 -1.78,0.11 -1.73,-0.33 0.2,-0.34 -0.28,-0.19 0.58,-0.22l5.07 -0.06c-0.14,-0.6 -0.23,-0.11 -0.24,-0.76 -0.89,-0.05 -1.77,-0.12 -2.66,-0.17 -0.7,-0.04 -1.45,0.17 -2.03,-0.23 0.2,-0.39 0.57,-0.24 0.94,-0.69 -1.89,-0.03 -3.4,0.18 -5.2,0.07 -2.45,-0.16 -2.23,-0.06 -3.98,-0.1 -0.73,-0.02 -0.93,-0.03 -1.3,-0.46 0.86,-0.2 2.88,0.07 3.8,-0.12 1.23,-0.26 3.48,0.14 5.07,-0.17 0.45,-0.09 2.54,-0.25 2.84,0.14 -0.15,-0.43 0.14,-0.15 -0.41,-0.29 -0.65,-0.17 -1.54,-0.1 -2.21,-0.13l0.15 -1.42c0.49,0.03 0.97,0.16 1.2,-0.18l0.38 0.02c0.1,0.42 -0.02,0.27 0.44,0.4l0.23 -0.6c0.33,0.02 0.65,0.07 0.95,-0.02l1.49 -0.18c0.24,0.01 0.53,-0.01 0.81,0 0.08,-0.15 0.01,-0.03 0.02,-0.12 0.03,-0.44 -0.18,0.26 0,-0.11 2.31,0.14 4.1,-0.31 6.29,-0.46 0.13,-0.01 0.27,-0.01 0.38,-0.03 0.46,-0.07 0.4,-0.25 0.97,-0.28 1.35,-0.06 0.05,0.28 1.24,0.16 0.65,-0.07 0.88,-0.06 1.69,0 1.78,0.13 0.15,-0.22 1.34,-0.27 0.84,0.05 1.67,0.12 2.51,0.17 1.13,0.06 1.19,-0.35 1.95,-0.38 1.08,-0.04 3.68,0.19 4.86,0.28l1.24 -0.54c-0.03,-0.02 -0.07,-0.04 -0.1,-0.05l-0.76 -0.14c0.04,-0.52 0.08,-0.59 0.6,-0.83l1.71 -0.09 0.08 -0.98 1.17 0.07 0.08 -0.87 -0.57 -0.28c0.16,-0.39 0.14,-0.27 0.4,-0.52 0.17,-0.16 0.26,-0.26 0.4,-0.39 0.74,0.12 0.07,-0 0.52,0.19l0.2 0.1c0.02,-0.03 0.05,-0.06 0.06,-0.08l0.16 -0.25c0.4,-0.8 0.34,-2.05 0.35,-2.85 -0.69,-0.01 -0.54,0.13 -1.13,-0.16l0.88 0.06 0.13 -0.32c-1.49,-0.29 -4.16,0.04 -5.28,-0.52 0.17,-0.11 -0.07,-0.05 0.41,-0.16l2 -0.05c0.96,0.09 1.4,0.43 2.38,0.3 -0.2,-0.18 0.02,-0.07 -0.41,-0.24 -0.38,-0.15 -0.59,-0.09 -1.07,-0.37l-0.43 -0.3c0.62,-0.04 0.49,-0.15 1.11,-0.08 0.55,0.06 0.83,0.14 1.42,0.15 -0.16,-0.71 -0.8,-0.46 -1.37,-0.84 0.87,-0.3 1.44,0.33 1.94,-0.13 -0.34,-0.57 -0.57,-0.19 -1.44,-0.58 0.13,-0.08 0.4,-0.09 0.65,-0.38 -0.7,-0.41 -0.46,-0.64 -1.66,-0.98l-1.9 -0.37c-0.04,-0.01 -0.07,-0.03 -0.11,-0.04 -0.23,-0.09 -0.14,-0.06 -0.28,-0.16 0.86,0.02 1.68,0.11 2.54,0.18 0.71,0.06 1.56,-0.09 2.21,-0.25l-0.11 -0.13c-0.32,-0.27 -0.32,-0.2 -0.75,-0.36 0.12,-0.33 0.24,-0.38 0.23,-0.73l-2.59 -0.6 -1.03 -0.06c-0.01,0.02 -0,0.05 -0,0.06 0.04,1.51 -1.43,1.2 -3.08,1.26 -0.97,0.03 -0.39,0.11 -1.06,0.43 -0.31,-0.01 -0.76,-0.07 -1.02,-0.05 -0.77,0.06 0.11,-0.01 -0.62,0.18 -0.49,-0.17 -0.26,-0.24 -0.74,-0.35 -0.31,-0.07 -0.6,-0.04 -1,-0.1 -0.03,-0.57 -0.18,-1.01 -0.02,-1.48 0.43,-0.14 1.05,-0.21 1.42,-0.39 0.75,-0.36 -0.3,-0.74 0.71,-0.83l0.49 -0.19c-0.84,-0.72 -3.57,-0.64 -4.86,-1.11 0.31,-0.44 0.69,-0.26 0.87,-0.99l0.01 -0.78 -0.95 -0.06c-0.01,0.1 -0.02,0.31 -0.05,0.4 -0.23,0.61 -0.01,0.19 -0.29,0.44l-0.88 -0.06c-0.03,-0.04 -0.05,-0.08 -0.07,-0.12l-0.12 -0.74c0.33,0.67 -0.27,0.42 -0.35,0.47l0.01 -0.46c-0.08,0.79 -0.07,0.93 -0.82,1.12 -0.24,0.06 -0.68,0.11 -0.91,0.07 -1.55,-0.26 -0.16,-1.39 -0.13,-1.76 0.11,-1.27 0.27,-0.44 0.83,-1.25 -0.31,-0.37 -0.58,-0.29 -0.75,-0.87 0.56,-0.55 2.86,-2.17 3.25,-2.97 0.04,-0.15 -0.1,-0.2 0.11,-0.38l1.03 -0.12c0.44,-0.18 0.33,-0.29 0.33,-0.29 -0.48,-0.27 -0.18,0.02 -0.25,-0.51 0.23,-0.11 -0.41,-0.46 0.73,-0.08l0.17 -0.54c-0.03,-0.41 -0.76,-0.1 -1.33,-0.63 0.75,-0.58 2.37,0.15 2.05,-1.36 -0.04,-0.18 -0.01,0.05 -0.06,-0.23l-0.03 -0.32c-1.68,-0.63 -5.17,-0.93 -7.28,-1.07 0.09,-0.61 0.44,0.09 0.41,-1 -0.56,-0.38 -1.35,-0.37 -1.13,-1.37 0.49,-0.18 1.92,-0.18 1.96,-0.9 0.04,-0.72 -0.15,0.04 -0.37,-0.63 0.85,-0.55 0.5,-0.41 0.87,-1.14 0.26,-0.51 0.93,-0.36 1.42,-0.69l-0.74 -0.53c0.59,-0.29 1.81,-0.19 2.17,-0.6 0.01,-0.01 0.03,-0.05 0.04,-0.06 0.01,-0.01 0.02,-0.05 0.03,-0.06l0.07 -0.13c0.29,-0.47 0.54,-0.59 0.95,-1.14l1.19 0.03c0.13,-0.41 0.29,-0.72 0.2,-1.03 -0.14,-0.49 -0.4,-0.11 -0.15,-1.02 1.26,-0.18 2.65,0.29 1.82,-1.22 -0.29,-0.53 0.01,-0.53 -0.44,-1.06 -0.71,-0.85 -1.04,-0.85 -2.6,-0.87 -0.51,-0.27 0,-0.13 -0.67,-0.44 -0.58,-0.27 -0.47,-0.04 -0.74,-0.51 0.51,-1.13 2.17,-0.68 3.1,-1.01 0.9,-0.31 0.78,-0.01 1.22,-0.82 0.47,-0.86 0.58,-0.53 1.41,-0.74l0.04 -0.14c0,-0.01 0.01,-0.06 0.02,-0.07 0.44,-2.02 0.81,-1.52 0.98,-2.64l0.85 -0.2c-0.2,-0.39 0.01,-0.14 -0.31,-0.25 -0.16,-0.2 -0.39,0.38 -0.12,-0.38l-0.51 0.35 0.02 -0.59c-0.68,-0.03 -0.64,-0.13 -1.3,-0.2l0.06 -0.87c-0.28,0.2 -0.39,0.52 -0.66,0.74 -0.53,0.45 -0.7,0.21 -1.39,0.38l-0.35 0.56 -1.69 -0.11 0.21 -1.14c-0.39,-0.35 -0.36,-0.29 -0.83,-0.57 0.23,-0.47 0.64,-0.36 0.53,-0.74 -0.11,-0.37 -0.35,-0.16 -0.49,-0.61 1.55,-0.68 0.91,0 1.18,-0.66 0.46,-1.13 0.43,-0.53 0.85,-1.02l0.17 -0.24 0.3 -0.3c0.2,-0.26 -0.18,-0.4 0.13,-0.7 0.67,-0.29 0.59,0.04 1.47,-0.43 0.04,-0.39 0.04,-0.65 0.14,-1 0.26,-0.87 0.18,-0.39 0.47,-0.67l0.27 -0.38c0.41,-0.89 0.18,-0.41 0.75,-0.86 -0.41,-0.49 -3.08,-1.02 -4.04,-1.18 -3.16,-0.51 -4.08,-0.11 -3.86,-1.42 0.56,-0.21 1.15,-0.15 1.52,-0.37 -0.16,-0.4 -0.5,-0.47 -0.81,-0.79l0.88 -0.15c-0.1,-0.62 -0.21,-0.23 -0.32,-0.77 0.51,-0.05 0.82,0.03 1.13,-0.2l-0.62 -0.38c0.54,-0.41 1.24,-0.39 1.93,-0.52 0.36,-1.29 -0.44,-0.21 -0.14,-1.61 0.08,-0.19 0.24,-0 0.41,-0.38 0.2,-0.46 -0.04,0.16 -0.04,-0.56l1.37 -0.16c0.16,-1.19 0.23,-0.86 0.32,-1.28 -0.83,-0.15 -0.14,0.03 -0.76,0.2 -0.38,0.1 -1.63,-0.21 -2.99,0.02 -0,0.38 0.1,0.42 0.09,0.96 -1.24,0.7 -1.2,0.09 -2.41,0.16 -0.96,0.06 -0.58,0.31 -0.83,0.53 -0.37,0.32 -0.73,0.15 -1.03,-0.09 0.13,-0.53 0.05,-0.27 0.59,-0.58l-0.16 -0.64c-0.01,-0.03 -0.03,-0.07 -0.05,-0.09l-0.1 -0.19c-0.94,0.18 -0.61,0.58 -1.72,0.57 0.1,-1.06 0.64,-0.89 -1.05,-1.04 -0.12,-0.13 -0.1,-0.07 -0.2,-0.26 -0.01,-0.02 -0.05,-0.14 -0.06,-0.18l-1.21 -0.12c0.09,-0.88 0.2,-0.33 0.5,-0.87 -0.79,-1.26 -1.44,-0.69 -1.56,-1.61 -0.06,-0.46 0.03,-0.56 0.26,-0.8l-2.07 -1.66c-0.22,-0.17 -0.1,-0.06 -0.24,-0.29 -0.24,-0.39 -0.37,-0.95 -0.84,-1.21 -0.1,-0.06 -0.74,-0.36 -0.76,-0.36 -0.53,-0.22 -0.58,-0.07 -1.03,-0.33 0.25,-0.4 0.64,-0.52 1.18,-0.29l0.96 0.46c-0.03,-0.4 -0.85,-0.73 -0.08,-1.24 0.44,-0.19 1.3,-0.08 1.92,-0.07 -0.5,-0.35 -0.29,-0.06 -0.44,-0.53 0.76,0.16 1.68,0.52 2.35,0.28 -1.14,-0.55 -2.05,-0.17 -3.11,-0.47 -0.21,-0.06 -1.83,-0.27 -2,-0 -0.13,0.21 -0.06,-0 0.08,0.13l0.19 0.14c0.02,0.02 0.08,0.05 0.11,0.08 -1.09,0.05 -0.66,0.35 -1.48,0.39 -1.02,0.05 -0.53,-0.18 -1.65,0.13 -1.45,0.4 -0.01,-0.84 -4.61,-0.31 -0.62,0.07 -0.79,-0.22 -1.4,-0.4 -0.92,-0.27 -0.79,0.03 -1.24,-0.59 -0.4,-0.55 -0.43,-0.49 -1.16,-0.75 -1.12,-0.4 -0.23,-0.37 -1.36,-0.21l-3 0.03c-0.84,-0.19 -0.37,-0.57 -1.65,-0.24 -1.06,0.28 -0.8,-0.12 -3.25,0.06 -0.84,0.06 -2.89,-0.16 -3.27,-0.08 0.1,0.18 -0.26,0.11 0.49,0.38 0.35,0.12 0.42,0.11 0.82,0.1 0.62,-0.01 0.72,-0.16 1.11,0.28 -0.28,0.49 -0.27,0.2 -0.62,0.15l-0.47 0.04c-0.58,0.17 0.09,0.09 -0.5,0.15 -0.35,-0.3 -0.23,-0.3 -0.69,-0.55 -0.02,0.02 -0.03,0.04 -0.03,0.08 -0,0.04 -0.02,0.07 -0.03,0.08 -0.06,0.52 -0.04,-0.32 -0.02,0.16 0,0.01 0.07,0.19 0.08,0.27 -0.56,0.15 -3.31,-0.16 -4.33,-0.21 -0.88,-0.05 -1.7,0.03 -2.39,0.01 -0.97,-0.03 -0.86,-0.48 -1.7,-0.69 -0.43,-0 -0.59,0.38 -1.22,0.39 -1.99,0.05 -3.77,-0.58 -5.67,-0.17 -0.54,0.12 0.06,0.17 -0.67,0.12 -0.44,-0.03 -0.75,-0.28 -1.46,-0.28 -0.59,-0 -0.23,0.04 -0.75,0.1 -1.09,0.13 -0.35,0.02 -0.58,-0.11 -0.28,-0.16 0.5,-0.19 -0.53,-0.2 -0.21,-0 -0.47,0.08 -0.95,0.05 -1.14,-0.08 -1.68,-0.67 -2.98,-0.24 -0.55,0.18 -1.69,0.11 -2.38,0.09 -0.71,-0.02 -0.12,-0.03 -0.75,-0.2 -0.83,-0.22 -0.81,0.37 -3.05,0.14 -0.83,-0.09 -1.06,0.04 -1.63,-0 -0.91,-0.06 -0.65,-0.25 -1.82,-0.17l0.18 -0.59c-1,0.11 -0.72,0.36 -1.29,0.83 -0.67,-0.09 -0.54,-0.23 -1.05,-0.31 -1.07,-0.16 -3.43,0.26 -3.57,0.25 -0.5,-0.02 -1.16,-0.53 -2.01,-0.63 -1.05,-0.12 -1.26,0.31 -2.5,-0.09 -0.01,-0.02 0.01,-0.08 0.01,-0.06l-0.06 -0.51c-0.01,-0.02 -0.02,-0.07 -0.04,-0.1 -0.2,0.11 -0.07,0.02 -0.26,0.19 -1.15,1.01 -0.85,0.42 -2.45,0.29 -0.67,-0.06 -2.25,0.38 -2.74,-0.08 -0.32,-0.29 -0.08,-0.1 -0.02,-0.18 0.17,-0.28 0.02,-0.16 0.41,-0.25l4.61 -0.07c0.33,-0.05 0.17,-0.01 0.38,-0.11 -0.04,-0.02 -0.09,-0.08 -0.12,-0.05 -0.03,0.03 -0.09,-0.04 -0.12,-0.04 -0.78,-0.19 0.63,0.06 -0.25,-0.06 -0.28,-0.04 -0.29,-0.01 -0.53,0 -0.55,0.03 -0.69,0.02 -1.25,-0 -4.23,-0.18 -4.8,0.33 -8.88,0.01 -0.94,-0.07 -1.59,-0.02 -2.51,-0.07 -0.86,-0.04 -1.29,-0.19 -2.34,-0.21 -0.82,-0.01 -1.58,-0.04 -2.42,0 -1.55,0.08 -3.37,-0.1 -4.94,-0.07l-4.77 -0.02c-3.57,-0.14 -7.24,0.01 -10.79,-0.14 -0.38,-0.02 -0.77,0.05 -1.19,0.08l-7.27 0.03c-3.19,-0.03 -6.35,0.09 -9.48,0.16 -3.09,0.07 -6.39,0.06 -9.39,0.24 -0.8,0.05 -1.62,-0.09 -2.41,-0.07 -2.32,0.08 -4.92,0.4 -7.27,0.09 -1.55,-0.21 -3.18,-0.48 -4.8,-0.4 -1.58,0.08 -3.08,-0.07 -4.76,0.03 -0.74,0.05 -1.48,0.13 -2.17,0.16 -0.98,0.03 -1.61,-0.26 -2.44,-0.21 -1.19,0.08 -2.82,0.46 -4.25,0.56 -1.51,0.1 -2.91,-0.16 -4.61,-0.06 -1.57,0.09 -3.21,0.01 -4.73,0.08 -3.18,0.16 -7.01,-0.28 -10.31,-0.42 -4.65,-0.19 -9.25,-0.05 -13.79,0.6 -0.69,0.1 -1.32,0.24 -2.08,0.25 -0.8,0.01 -1.7,-0.14 -2.42,0.08 -1.37,0.42 -0.61,1.58 -3.02,1.71 -0.77,0.04 -1.52,-0.05 -2.35,0.01 -1.99,0.14 -4.74,0.03 -6.28,1 -0.85,0.53 -0.05,0.55 -0.73,1.4 -0.48,0.6 -1.24,0.57 -0.53,1.35 -1.86,0.06 -0.77,-0.19 -1.16,0.73 -0.1,0.24 -0.63,0.71 -0.85,1.31 -0.2,0.53 -0.24,1.52 -0.81,2.39 -0.21,0.32 -0.27,0.15 -0.59,0.51 0.04,0.42 0.16,0.34 0.14,0.63 -0.03,0.38 -0.18,0.08 -0.21,0.71 0.07,0.07 0.49,0.4 0.5,0.41 0.01,0.02 0.03,0.05 0.04,0.07l0.08 0.59c3.14,0 5.1,0.33 8.04,0.75 -0.03,0.5 -1.04,1.89 -1.09,2.46 -0.1,1.07 1.17,1.19 1.95,1.71 -0.71,0.27 -5.75,0.1 -7.06,0.23 -0.99,0.1 -2.49,-0 -3.56,0.02 -3.03,0.08 -10.51,0.29 -13.05,1.52 -0.54,0.26 -0.6,0.38 -0.74,1.03 -0.2,0.92 -0.36,0.29 -0.36,1.17 -1.43,0.27 -0.6,0.2 -1.17,1.04 -0.23,0.34 -0.31,0.26 -0.45,0.64l-0.71 1.58c-0.36,0.65 -0.11,0.28 0.06,0.67 0.01,0.03 0.03,0.06 0.04,0.09 0.24,0.75 -0.32,0.49 -0.59,1.36 1.1,0.67 2.5,-0.12 3.41,0.34 -1.11,0.42 -3.58,0.07 -4.4,0.69 0.08,0.51 -0.12,0.15 0.39,0.53 0.36,0.27 0.31,0.16 0.58,0.54 -0.2,0.35 -0.51,0.36 -0.65,0.52l2.28 0.22c-0.23,0.5 -0.15,-0.05 -0.31,0.53 3.63,-0.11 7.96,0.03 11.68,0.49 -0.08,1.63 1.49,1.28 2.92,1.75l-0.07 0.9 -0.93 0.38 0.12 0.89 -0.65 0.2c0.22,0.56 0.28,0.03 0.52,0.66 -1.58,0.23 -3.83,0.3 -5.5,0.41 -1.86,0.13 -3.71,0.26 -5.55,0.35l-7.04 0.41c-0.16,0.03 -0.87,0.33 -1.02,0.46 -0.07,0.06 -0.54,0.74 -0.6,0.9 -0.1,0.25 -0.25,0.85 -0.32,1.16l-0.75 0.17c0.02,0.05 0.06,0.06 0.07,0.1 0.05,0.37 0.23,0.09 0.28,0.54 -1.1,0.79 -1.46,0.07 -1.09,1.55 -0.18,0.16 -0.56,0.4 -0.56,0.66 -0,0.52 0.15,-0.13 0.07,0.4 -0.05,0.41 -0.03,0.07 -0.3,0.48 0.5,0.83 0.26,0.67 -0.23,1.36 -0.67,0.93 1.53,0.48 1.93,0.71 -0.71,0.44 -2.33,-0.1 -2.78,0.69 0.4,0.49 0.61,0.05 0.76,0.78 -0.35,0.41 -0.23,0.09 -0.7,0.45 0.36,0.72 0.26,0.3 0.33,1.23 1,0.04 2.08,-0.07 3.07,-0.03 2.64,0.1 7.01,0.8 9.68,1.21 0.99,0.15 2.15,0.2 3.18,0.34 1.03,0.14 2.09,0.38 3.09,0.5 1.51,0.18 5.34,0.45 6.43,0.79 0.08,0.53 -0,0.21 -0.05,0.56 -0.07,0.48 0.24,0.37 0.22,0.9 -0.03,0.67 -0.29,0.26 -0.55,0.92 -0.67,1.73 -0.99,1.97 -1.22,2.51 -0.17,0.4 -0.08,0.8 -0.22,1.22 -0.27,0.78 -1.22,0.82 -2.18,0.82l-11.45 0.68c-0.15,0.19 -0,-0.01 -0.09,0.19l-0.09 0.21c-0.53,-0.03 -1.89,0.06 -2.38,0.18 -0.68,0.17 -1.35,0.65 -2.13,0.64 -1.46,-0.02 -3.35,-0.89 -5.01,-0.96 0.39,0.3 0.94,0.33 1.45,0.5 1.44,0.46 3.24,0.97 4.02,1.93l-1.1 0.25c0.17,0.21 0.44,0.27 0.72,0.36 0.89,0.28 0.48,-0.01 0.57,0.4 -0.55,0.36 -1.42,0.06 -2.01,0.48 0.27,0.33 -0.01,0.03 0.27,0.2 0.03,0.02 0.15,0.08 0.19,0.1 0.03,0.02 0.08,0.04 0.1,0.05 0.02,0.01 0.07,0.03 0.11,0.05 -0.25,0.2 -0.88,0.37 -0.96,0.68 0.23,1.49 4.57,0.52 5.69,0.96 -1.1,0.3 -4.99,-0.33 -5.71,0.39 0.45,0.31 0.4,0.12 0.66,0.27 0.49,0.29 0,0.04 0.33,0.48 0.66,0.08 2.12,0.07 2.56,0.33 -0.85,0.21 -4.82,-0.62 -5.12,0.42 0.89,0.5 2.94,-0.31 4.1,0.62 -0.88,0.61 -3.48,-0.16 -4.63,0.46 0.29,0.66 1.45,0.42 2.36,0.56 1.03,0.15 1.67,0.16 2.5,0.56 -0.39,0.15 -0.71,0.12 -1.27,0.13 -0.12,0.57 0.1,0.15 0.05,0.8l-1.22 0.19c0.73,0.36 2,0.15 2.9,0.34 -0.05,0.48 -0.32,0.47 -0.77,0.63l0.05 0.71c-0.27,0.1 -0.43,0.11 -0.67,0.23 0.02,0.44 0.31,0.66 0.38,1.52l-0.62 0.15c-0.03,0.01 -0.08,0.03 -0.11,0.05 0.47,0.4 0.45,0.12 0.7,0.53l-1.03 0.29c0.05,0.55 0.18,0.33 0.25,0.59 0.11,0.41 -0.06,0.06 -0.08,0.66 0.46,0.38 0.61,0.25 0.8,0.66 -0.21,0.1 -2.02,0.41 -0.99,1.41 -0.22,0.48 -0.03,0 -0.25,0.28 -0.14,0.17 -0.12,-0.02 -0.18,0.27 0.72,0.49 2.04,0.85 2.6,1.18 -0.16,0.1 -3.32,0.4 -3.83,0.51 0.27,0.41 1.15,0.88 1.12,1.6 -0.79,-0.05 0.12,-0.31 -1.39,-0.15l-0.12 0.97c0.14,0.08 0.87,0.54 0.97,0.57 0.47,0.16 0.46,-0.02 0.9,0.05 0.47,0.08 0.01,-0.11 0.3,0.11 -0.45,0.32 -0.55,0.05 -0.87,0.44l0.58 0.4c-0.12,0.21 -0.13,0.4 -0.27,0.61 -0.47,0.73 -0.25,-0.28 -0.46,0.76l1.7 0.14 -0.91 0.2c-0.31,0.07 -0.24,0.06 -0.36,0.11 0.02,0.03 0.07,0.03 0.08,0.07 0.05,0.26 0.3,0.19 0.41,0.49 -0.65,0.22 -0.31,0.05 -0.44,0.48 -0.01,0.02 -0.01,0.06 -0.01,0.08l-0.06 0.14c-0.38,0.55 -1.28,0.65 -1.5,1.01 0.96,0.53 1.48,0.12 2.27,0.47 -0.52,0.5 -0.5,-0.13 -0.88,0.56 0.31,0.34 0.99,0.4 1.5,0.44 0.59,0.04 1.43,0.14 1.74,0.38 -0.18,0.06 -2.1,0.16 -3.07,0.38 0.42,0.14 0.83,0.4 1.43,0.52 0.55,0.11 1.61,-0.01 1.99,0.35l-3.44 0.67c0.86,0.47 4.48,0.36 5.84,0.46 1.92,0.15 4.96,0.06 6.18,0.27 -0.75,0.37 -2.37,0.07 -3.37,0.06 -1.06,-0.02 -2.25,0.06 -3.43,0.05 -1.06,-0.01 -5.91,0.19 -6.35,0.54 0.6,0.21 1.42,-0.11 2.62,0.24 0.75,0.22 2.07,0.07 2.76,0.46 -1.02,0.54 -2.7,0.24 -3.85,0.34 -0.79,0.07 -0.56,0.01 -0.8,0.54 1.04,0.07 1.67,-0.01 2.62,0.03 1.1,0.05 1.81,0.22 2.78,0.33 1.85,0.21 3.73,0.02 5.73,0.28 -0.67,0.25 -5.27,-0.1 -6.61,-0.02 -1.79,0.12 -4.76,0.07 -5.97,0.67 0.86,0.1 1.54,0.12 2.35,0.09 0.98,-0.04 1.52,0.1 2.48,0.15 1.45,0.08 3.62,-0.12 4.79,0.08 0.24,0.76 -0.24,0.01 0.04,0.48 0.47,0.03 0.81,0.05 1.09,0.3 -0.88,-0.02 -1.09,-0.22 -1.64,0.14 1.22,0.16 3.83,0.05 4.76,0.45 -1.4,0.02 -8.03,-0.37 -8.71,-0.12 0.03,0.02 0.08,0.01 0.1,0.05 0.01,0.04 0.08,0.03 0.1,0.04 0.18,0.05 0.11,0.05 0.37,0.08l5.47 0.2c2.05,0.16 4.22,0.1 6.37,0.27 -0.21,0.87 -0.33,0.19 -0.68,0.8 0.18,-0.01 1.38,-0.13 1.4,-0 0.14,0.75 2,0.49 2.65,0.63l0.76 0.43c-0.76,0.13 -1.84,0.04 -2.75,0.16 -0.83,0.11 -0.89,0.29 -1.61,0.41l-0.72 0.27c0.88,-0 2.58,-0.14 3.2,0 2.99,0.69 4.15,0.85 7.25,0.84 0.78,-0 0.56,0.24 1.23,0.39 0.31,0.07 0.64,0.05 0.89,0.23 -1.8,0.19 -3.78,-0.08 -5.56,0.11 0.16,0.11 0.03,0.07 0.33,0.14 0.18,0.04 0.22,0.05 0.41,0.07 0.29,0.03 0.73,0.04 1.04,0.05 0.75,0.04 1.14,0.04 1.75,0.21 0.66,0.19 1.19,0.12 1.73,0.26 0.83,0.21 0.39,0.36 1.47,0.49 0.22,0.35 -0.31,0.13 0.35,0.46 0.91,0.45 -0.21,-0.27 0.3,0.13 -0.36,0.13 -0.2,0.02 -0.43,0.07l-0.44 0.12c-0.66,0.26 -1.06,0.49 -1.83,0.52 -0.34,0.01 -0.77,0.02 -1.03,0.18 0.13,0.05 2.82,0.61 3.06,0.63 0.82,0.09 2.69,-0.27 3.34,0.12 -0.4,0.21 -3.4,0.28 -4.16,0.35l0.21 0.1c0.9,0.32 1.72,0.18 2.74,0.21 0.11,0.21 0.02,0.12 -0.27,0.33 0.7,0.09 0.41,-0.04 0.91,-0.08 0.48,-0.04 0.64,0.08 1.11,0.13 0.64,0.07 1.57,-0.15 2.16,0.11 -0.31,0.28 -1.34,0.24 -1.87,0.3 -0.66,0.07 -1.28,0.16 -1.91,0.26 -1.16,0.19 -3.18,0 -4.04,0.36 0.55,0.19 0.43,0.05 0.81,-0.01 0.6,-0.1 0.3,-0.07 0.93,0.03 1.23,0.2 1.64,-0.15 2.23,0.19 -0.27,0.37 -0.98,0.4 -1.66,0.44 -0.55,0.04 -1.4,0.04 -1.81,0.21l1.27 0.26c-0.28,0.33 -0.63,0.26 -1.14,0.3 -0.54,0.03 -0.91,-0.03 -1.28,0.12 0.84,0.06 1.7,-0.05 2.5,0.27 0.66,0.27 0.27,-0.02 0.49,0.39 -0.49,0.51 -0.38,0.01 -0.93,0.43 0.36,0.31 0.39,0.15 1.04,0.34 -0.39,0.55 -0.46,-0.25 -0.53,0.5 1.23,0.18 2.91,-0.15 3.45,0.25 -0.93,0.36 -1.81,-0.02 -2.54,0.21 0.31,0.38 0.93,0.31 1.46,0.36 0.46,0.05 1.06,0.16 1.37,0.46l-4.17 0.15c0.79,0.31 7.56,0.46 9.26,0.4 0.18,-0.01 0.55,-0.02 0.72,-0.01l0.61 0.18c-1.33,0.44 -3.51,-0.12 -4.9,0.38 0.94,0.21 5.91,-0.02 7.44,-0.17l1.64 -0.54c0.29,-0.16 0.14,0.03 0.18,-0.23 0.09,-0.57 -0.2,0.27 -0.05,-0.27 0.1,-0.33 1.24,-0.18 1.84,-0.24 2.56,-0.25 5.34,-0.51 7.89,-0.92 1.74,-0.27 2.37,-0.23 4.08,-0.36 1.79,-0.13 6.65,-0.44 7.93,-0.85 -0.76,-0.27 -7.75,0.32 -9.39,0.24 -1.84,-0.09 -3.03,-0.13 -4.82,0.07 -0.75,0.08 -4.12,0.33 -4.49,0.15 0.34,-0.26 1.66,-0.22 2.3,-0.28 0.92,-0.08 0.55,0.07 1.07,-0.31 0.3,-0.23 0.58,-0.31 0.74,-0.61 -1.46,-0.09 -2.35,0.19 -3.97,0.16l0.32 -0.18c0.16,-0.06 0.29,-0.09 0.47,-0.13 3.89,-0.77 9.58,-0.73 13.29,-1.39 0.56,-0.1 5.99,-0.2 7.43,-0.45 1.17,-0.2 2.38,-0.16 3.54,-0.31 0.78,-0.1 0.9,-0.2 1.75,-0.2 0.99,0 0.74,-0.22 1.94,-0.17 0.21,-0.41 -0.05,-0.24 0.32,-0.62 1.63,0.01 2.45,-0.07 3.97,-0.19 0.92,-0.07 3.24,0.34 3.77,0.17l-0.44 -0.15c-0.31,-0.09 -0.27,-0.02 -0.57,-0.15 1.43,-0.54 4.85,0.36 6.5,-0.12 0.32,-0.09 0.46,-0.18 0.66,-0.31 -0.42,-0.19 -1.07,0.05 -1.63,0.06 -1.74,0.04 -4.59,-0.17 -6.01,0.18 -0.84,0.21 -1.09,0.08 -2.01,0.08 -0.66,0 -1.25,0.15 -1.85,0.2 -0.8,0.07 -1.31,-0.11 -2.13,-0.05 -1.14,0.08 -0.88,-0.05 -1.58,0.51 -0.03,-0.03 -0.06,-0.1 -0.08,-0.08l-0.38 -0.24c-0.56,-0.19 -2.71,0.04 -3.23,0.19 -0.57,0.16 -0.11,0.28 -1.2,0.18 -3.59,-0.33 -14.51,1.03 -15.46,0.74 0.61,-0.26 2.4,0 2.87,-0.59 -1.35,-0.67 -14.89,1.33 -15.94,1.12l-0.23 -0.07c-0.03,-0.01 -0.08,-0.03 -0.11,-0.05 0.71,-0.23 17.93,-2.05 20.06,-2.08 1.11,-0.01 0.62,0.05 0.99,-0.6l-6.09 0.33c-2.89,0.34 -2.63,0.46 -5.81,0.63 -0.71,0.04 -3.28,0.44 -3.58,0.33 0.58,-0.46 3.28,-0.44 4.25,-0.61 0.22,-0.04 0.16,-0.02 0.34,-0.08 0.2,-0.06 0.21,-0.08 0.31,-0.14 -1.57,-0.13 -5.2,0.38 -7.04,0.58 -0.44,0.05 -0.7,0.07 -1.19,0.07 -0.18,0 -0.54,0.01 -0.66,0l-0.54 -0.1c0.03,-0.02 0.09,-0.07 0.11,-0.04l2.1 -0.37c0.69,-0.11 1.56,-0.2 2.13,-0.38 -1.06,-0.08 -4.05,0.65 -4.77,0.28 1.66,-0.77 7.78,-0.78 10.05,-1.52 -0.68,-0.14 -1.6,0.13 -2.31,-0.22 2.82,-0.67 6.48,-0.67 9.56,-0.88 0.64,-0.04 1.22,-0.2 1.96,-0.25 1.35,-0.1 2.58,-0.23 3.9,-0.35 2.42,-0.21 14.64,-0.65 15.92,-1.15 -1.23,-0.36 -2.73,-0.18 -4.09,-0.06 -4.13,0.37 -8.59,0.2 -12.7,0.49 -2.73,0.19 -5.34,0.54 -8.09,0.57 -1.1,0.01 -1.15,0.03 -2.06,0.15 -0.66,0.09 -1.37,0.06 -2.05,0.13 -0.97,0.1 -3.19,0.5 -3.97,0.12 0.33,-0.45 2.4,-0.49 3.12,-0.52 0.9,-0.04 2.72,-0.19 3.3,-0.44 -1.37,-0.08 -3.33,0.11 -4.69,0.29 -0.71,0.09 -3.84,0.52 -4.59,0.14 1,-0.5 9.69,-1.06 11.69,-1.28 1.7,-0.19 2.2,-0.9 3.94,-0.82 0.61,0.03 0.84,0.19 1.56,0.14 0.82,-0.05 1.75,-0.31 2.77,-0.32 1.22,-0.01 2.12,0.15 3.42,0.04 1.89,-0.16 7.19,-0.55 9.06,-0.55l6.26 -0.19c1.1,-0.04 2.25,-0.43 2.94,-0.4 0.65,0.03 0.9,0.28 1.5,0.13 0.52,-0.13 0.36,-0.27 1.33,-0.33 1,-0.06 2.23,-0.01 3.04,-0.29l-0.91 -0.18c-0.96,-0.07 -1.98,0.17 -2.9,-0.08 1.4,-0.56 11.33,-0.43 11.82,-0.7l-1.14 -0.09 0.51 -0.35c-0.64,-0 -0.66,0.1 -1.08,-0.17 0.09,-0.05 0.09,-0.07 0.28,-0.14 0.83,-0.29 1.78,0.06 2.52,-0.39 -1.04,-0.11 -4.06,0.18 -4.87,-0.33 0.06,-0.67 0.96,-0.48 1.64,-0.52 -0.25,-0.17 -0.58,-0.19 -0.73,-0.42 0.28,-0.11 0.49,-0.14 0.88,-0.21 0.59,-0.11 0.48,-0.17 0.92,-0.27 0.75,-0.17 1.52,-0.16 2.26,-0.24 1.49,-0.17 2.97,-0.25 4.39,-0.4 2.91,-0.29 6.27,-0.13 9.03,-0.68 0,-0.01 -0.02,-0.02 -0.02,-0.02l-0.16 -0.48c0.78,0.02 2.12,0.07 2.67,-0.1 -0.26,-0.56 -1.27,-0.39 -1.88,-0.41 -0.93,-0.03 -0.38,0.08 -0.73,-0.25 1.35,-0.11 2.87,-0.33 4.27,-0.4 1.31,-0.07 3.2,-0.21 4.4,-0.43 2.89,-0.55 7.79,-0.4 8.69,-0.82 -1.46,-0.18 -3.36,0.17 -4.4,0.01 -0.47,-0.07 0.14,0.07 -0.27,-0.06 -0.31,-0.1 -0.17,-0.04 -0.33,-0.16 0.56,-0.28 3.45,-0.24 4.18,-0.28 1.34,-0.07 2.86,-0.31 4.19,-0.29 2.32,0.03 4.97,-0.45 6.24,-0.46 0.65,-0.01 1.77,0.17 2.29,0 0.55,-0.18 0.42,-0.7 1.4,-0.61 1.47,0.14 0.89,-0.31 1.67,-0.25 0.25,0.02 0.53,0.15 0.89,0.16l3.32 -0.11c2.51,-0.3 6.19,0.12 8.54,-0.53 -0.29,-0.1 -1.89,-0 -2.59,-0.09 -2.1,-0.27 -3.22,-0.22 -5.36,-0.13 -1.04,0.04 -2.03,-0.12 -3.04,-0.09 -1.78,0.04 -3.66,0.1 -5.51,0.1 -1.08,0 -1.58,-0 -2.59,0.15 -1.07,0.16 -1.53,0.07 -2.07,-0.52 0.49,0.01 0.9,0.06 1.37,0.01 1.07,-0.13 0.4,-0.21 0.98,-0.34 0.61,0.23 -0.18,0.2 0.85,0.23l3.37 -0.17c0.79,-0.04 1.49,0.02 2.25,-0.12 0.66,-0.13 0.23,-0.16 1.08,-0.11 1.86,0.12 3.99,-0.1 5.92,-0.01 0.84,0.04 1.67,0.07 2.52,0.11 1.61,0.07 3.13,-0.19 4.74,-0.08 1.06,0.07 1.32,-0.07 2.17,-0.13 0.71,-0.05 1.56,0.05 2.36,0.02 0.8,-0.04 1.68,-0.09 2.35,-0.12 3.18,-0.15 6.31,-0.03 9.51,-0.18 1.48,-0.07 3.14,-0.01 4.66,-0.03 1.61,-0.02 3.09,-0.06 4.74,-0.04 4.6,0.06 9.37,0.01 13.92,-0.29 0.69,-0.04 1.33,-0.2 2.11,-0.23 0.9,-0.03 1.74,0.09 2.6,0.07 2.63,-0.07 7.1,0.06 9.9,0.37 -1.88,0.13 -3.87,0.01 -5.87,0.07 -1.99,0.06 -4.18,0 -6.21,-0.13 -0.47,0.04 -0.12,0.22 -0.79,0.33 -0.46,0.07 -0.51,-0.1 -0.96,0.07 0.29,0.25 0.95,0.27 1.23,0.57 -1.25,0.07 -2.14,-0.11 -3.4,-0.08l-3.16 0.12c-0.02,0.01 -0.07,0.02 -0.1,0.04 0.41,0.55 2.88,0.3 3.81,0.32 0.93,0.02 3.16,-0.05 3.64,0.5 -0.25,0.38 -0.09,0.25 -1.34,0.3 0.36,0.32 0.37,0.09 0.25,0.36 -1.02,0.18 -1.49,-0.01 -2.45,0.05 -0.42,0.03 -0.75,0.12 -1.13,0.14 -0.54,0.02 -0.84,-0.1 -1.39,-0.02 -1.26,0.18 -0.52,0.48 -2.33,0.26 -0.45,-0.05 -2.15,-0.04 -2.66,-0.01 -0.39,0.56 0.3,-0.07 -0.04,0.44 -0.52,0 -0.96,-0.1 -1.37,0.07 1.11,0.58 7.45,0.06 9.47,0.33 1.2,0.16 2.36,0.05 3.54,0.21 -1.52,0.56 -15.92,0.02 -18.88,0.13 -1.33,0.05 -3.46,0 -4.82,-0.04 -1.8,-0.05 -2.77,0.21 -4.59,0.2 -1.61,-0 -3.24,-0.04 -4.87,-0.06 -1.56,-0.01 -3.08,0.13 -4.62,0.14l-0.17 0.79c-1.17,-0.02 -1.97,0.14 -2.86,0.1 -3.37,-0.15 -3.15,0.22 -4.46,0.11 -0.54,-0.05 -0.82,0.03 -1.26,0.19 -1.78,0.64 -2.15,-0.36 -2.89,0.09 0.32,0.68 2.57,0.4 3.34,0.45 1.28,0.08 2.66,0.06 3.97,0.05l-0.49 -0.29c-0.02,-0.02 -0.07,-0.05 -0.1,-0.08 1.1,0.03 1.31,-0.34 1.64,0.5 -1.78,0.45 -4.75,0.15 -6.74,0.41 -0.74,0.1 -0.64,0.23 -1.31,0.23 -0.57,0 -0.96,-0.03 -1.51,-0.01 -0.5,0.02 -0.95,-0.04 -1.32,0.22 2.01,0.09 4.29,0.09 6.34,0.13 0.84,0.02 4.2,0.02 4.9,-0.23 0.33,-0.12 0.09,-0.13 1.04,-0.15 0.4,-0.01 1.01,-0.09 1.47,-0.01 0.71,0.13 0.28,0.32 1.47,0.34 1.01,0.02 2.4,0.15 3.32,0.07 1.92,-0.16 4.45,0.15 6.36,-0.02 0.94,-0.08 4.41,0.13 6.12,0.06 1.01,-0.04 2.11,0.06 3.19,0.01 1.64,-0.08 4.7,-0.35 6.18,-0.15 1.41,0.19 -1.01,0.44 2.91,0.62 1.62,0.07 3.28,-0.09 4.76,0.21 0.58,0.12 1.15,-0.04 1.56,0.25 -0.85,0.25 -6.25,-0.45 -10.47,0.29 1.26,0.15 2.02,-0.08 3,0.04 1.76,0.2 8.9,-0.23 9.49,0.12 -0.53,0.12 -1.34,0.09 -2.11,0.25l-4.54 0.09c-1.17,-0.14 -1.04,-0.09 -2.04,0.06 -0.69,0.11 -1.62,-0.01 -2.36,-0.01 -0.5,0 -0.5,-0.06 -0.94,-0.07 -0.63,-0.01 -0.43,0.11 -1.06,0.14 -0.69,0.03 -1.65,-0.09 -2.39,-0.08 -0.8,0.01 -1.57,0.06 -2.34,0.05 -0.23,0.26 -0.08,0.18 -0.34,0.42 -1.03,-0.03 -2.31,0.11 -3.25,0.01 -1.04,-0.12 -2.1,-0.18 -2.97,0.12 0.91,0.14 1.49,-0.1 2.31,0.08 2.75,0.61 1.85,0.19 4.36,0.14 0.44,-0.01 0.88,0.07 1.3,0.07 0.44,-0 0.69,-0.08 1.19,-0.09 1.58,-0.02 3.21,0.19 4.82,0.13 2.07,-0.07 9.91,-0.21 11.75,-0.05 0.44,0.04 0.92,0 1.29,0.07 0.68,0.13 0.26,0.23 1.05,0.3 0.83,0.08 3.83,0.02 4.85,-0.02 0.96,-0.03 0.88,0.3 2.08,0.35 0.72,0.03 1.58,-0.04 2.37,-0.03z"/>
     <path fill="#FEFEFE" d="M243.12 95.06c2.16,-0.85 6.37,-0.85 8.92,-0.92 1.34,-0.03 1.46,-0.46 3.01,-0.19 0.09,-0.11 0.1,-0.07 0.15,-0.3 0.06,-0.28 0.03,-0.12 -0.02,-0.32l0.74 -0.11c0,-0.81 -0.11,-0.85 0.88,-0.84 0.66,0 1.29,0.03 1.9,-0.02 1.3,-0.12 2.03,-0.42 3.49,-0.27 -0.4,0.42 -0.52,0.26 -1.31,0.36 -1.35,0.18 -0.91,0.27 -2.88,0.4 -1.59,0.11 -1.14,0.2 -1.25,0.4 0.55,0.24 2.68,-0.07 3.45,-0.09 1.32,-0.03 2.75,0.12 4.09,0.16 -0.64,-0.32 -1.07,-0.2 -1.75,-0.31l-0.58 -0.18c0.94,-0.77 2.14,-0.26 3.17,-0.54l-0.13 -0.13c-0.02,-0.01 -0.06,-0.05 -0.08,-0.06 -0.59,-0.4 -0.15,0.16 -0.56,-0.35 0.29,-0.31 0.33,-0.1 0.54,-0.41 0.3,-0.46 -0.49,-0.22 0.37,-0.56 0.49,0.23 0.03,0.02 0.4,0.51 1.37,-0.37 2.26,-0.41 3.4,-0.63 0.66,-0.13 0.86,-0.09 1.06,-0.52 -0.57,-0.35 -1.87,0.12 -2.81,0.42 -2,0.65 0.41,-0.73 -2.6,0.15 -0.87,0.25 -5.41,0.91 -6.23,0.63 0.61,-0.42 2.05,-0.28 2.91,-0.52 1.37,-0.39 4.07,-0.72 5.97,-1.13 0.7,-0.15 2.78,-0.36 3.09,-0.5 -0.13,-0.07 -0.01,-0.05 -0.32,-0.09 -0.27,-0.03 -0.3,0.01 -0.47,-0.01l-0.5 -0.17c-0.46,-0.27 -1.4,0.03 -1.97,0.1 0.65,-0.54 5.95,-1.15 7.6,-1.63 0.24,-0.31 0.21,-0.44 0.63,-0.54 -0.5,-0.01 -0.78,0.01 -1.22,0.1 -1.7,0.35 -0.8,-0.16 -1.02,-0.36 -0.02,-0.02 -0.09,-0.44 -1.32,-0.19l-0.23 0.07c-0.21,0.08 -0.02,0.05 -0.26,0.13 -0.25,0.09 -0.26,0.05 -0.63,0.03 0.89,-0.73 0.27,-0.53 0.86,-0.96 0.2,-0.15 0.34,-0.2 0.56,-0.36 0.03,-0.02 0.21,-0.16 0.24,-0.19 0.27,-0.25 0.08,-0.02 0.31,-0.35 -0.01,-0.04 -0.05,-0.12 -0.07,-0.1l-0.39 -0.49c-0.12,-0.21 -0.18,-0.39 -0.16,-0.68l-0.78 -0.11c0.13,0.08 0.13,-0.15 0.14,0.15l-0.14 0.39c-0.04,-0.02 -0.08,-0.09 -0.1,-0.07 -0.08,0.09 -0.15,-0.1 -0.2,-0.13 -0.39,-0.25 -0.83,-0.39 -0.99,-0.6 0.81,-0.59 0.19,-0.14 2.4,-0.22 0.06,-0 0.45,-0.02 0.51,-0.01 0.9,0.08 0.18,-0.02 0.55,0.17 0.2,0.1 0.37,0.5 0.82,0.07 -0.17,-0.33 0.07,0.07 -0.33,-0.29l-0.77 -0.76c0.3,-0.49 0.25,-0.13 0.46,-0.61 0.27,-0.61 -0.24,-0.84 0.85,-0.93 0.69,-0.06 1.7,-0.11 2.02,-0.49 0.12,-0.15 0.03,-0.04 0.11,-0.17l1 -0.16c0.16,-0.88 -0.29,-1.1 0.39,-1.41 -0.58,-0.15 -0.43,-0.03 -1,-0.13 -1.08,-0.25 -2.81,-0.09 -4.01,-0.15 0.18,-0.12 -0.05,-0.03 0.29,-0.13 0.27,-0.08 0.27,-0.05 0.48,-0.09 1.32,-0.26 -0.23,-0.42 2.45,-0.42l7.69 -0.03c1.4,-0.01 2.69,0.13 4.03,0.14 -1.34,-0.11 -3.11,-0.34 -4.34,-0.38 -1.75,-0.06 -1.62,0.27 -4.11,-0.29 -1.02,-0.23 -3.09,-0.11 -4.43,-0.21 -1.58,-0.12 -3.03,-0.36 -4.64,-0.48 0.04,-0.02 0.11,-0.08 0.14,-0.05 0.03,0.03 0.1,-0.03 0.14,-0.04 0.77,-0.15 0.51,0.03 0.91,-0.08 -0.41,-0.4 -2.16,-0.41 -2.98,-0.48l-0.13 0.32 -0.88 -0.06c0.6,0.3 0.44,0.15 1.13,0.16 -0.01,0.8 0.05,2.05 -0.35,2.85l-0.16 0.25c-0.01,0.02 -0.04,0.05 -0.06,0.08l-0.2 -0.1c-0.44,-0.19 0.23,-0.07 -0.52,-0.19 -0.13,0.13 -0.22,0.22 -0.4,0.39 -0.27,0.26 -0.24,0.13 -0.4,0.52l0.57 0.28 -0.08 0.87 -1.17 -0.07 -0.08 0.98 -1.71 0.09c-0.52,0.25 -0.56,0.31 -0.6,0.83l0.76 0.14c0.02,0.01 0.07,0.03 0.1,0.05l-1.24 0.54c-1.18,-0.1 -3.78,-0.33 -4.86,-0.28 -0.76,0.03 -0.82,0.44 -1.95,0.38 -0.84,-0.04 -1.67,-0.12 -2.51,-0.17 -1.19,0.05 0.44,0.4 -1.34,0.27 -0.81,-0.06 -1.04,-0.07 -1.69,-0 -1.2,0.12 0.11,-0.22 -1.24,-0.16 -0.57,0.03 -0.51,0.2 -0.97,0.28 -0.11,0.02 -0.26,0.02 -0.38,0.03 -2.19,0.15 -3.99,0.61 -6.29,0.46 -0.18,0.37 0.03,-0.33 -0,0.11 -0.01,0.09 0.07,-0.02 -0.02,0.12 -0.28,-0.01 -0.57,0 -0.81,-0l-1.49 0.18c-0.3,0.08 -0.61,0.03 -0.95,0.02l-0.23 0.6c-0.46,-0.13 -0.34,0.02 -0.44,-0.4l-0.38 -0.02c-0.23,0.34 -0.71,0.21 -1.2,0.18l-0.15 1.42c0.67,0.03 1.56,-0.04 2.21,0.13 0.55,0.14 0.26,-0.14 0.41,0.29 -0.31,-0.4 -2.39,-0.23 -2.84,-0.14 -1.59,0.31 -3.84,-0.09 -5.07,0.17 -0.91,0.19 -2.94,-0.08 -3.8,0.12 0.36,0.44 0.57,0.44 1.3,0.46 1.75,0.05 1.53,-0.05 3.98,0.1 1.8,0.12 3.31,-0.1 5.2,-0.07 -0.38,0.45 -0.74,0.3 -0.94,0.69 0.58,0.39 1.33,0.18 2.03,0.23 0.89,0.05 1.77,0.12 2.66,0.17 0.01,0.65 0.1,0.15 0.24,0.76l-5.07 0.06c-0.87,0.02 -0.38,-0.13 -0.58,0.22 -0.04,0.44 1.24,0.3 1.73,0.33 0.86,0.05 1.27,0.05 1.94,0.03 1.2,-0.04 2.87,0.15 4.11,0.22 -0.15,1.67 0.58,-0.05 0.48,1.27 -0.17,-0.01 -0.43,-0.04 -0.59,-0.03 -0.04,0 -0.09,0.01 -0.13,0.01l-0.33 0.07c1.34,0.08 2.93,0.14 3.94,-0.05 1.13,-0.21 4.05,-0.22 5.41,-0.13 -0.2,0.43 -0.2,0.4 -0.81,0.46l-2.25 0.2c-0.77,0.01 -0.81,-0.18 -1.33,0.2 0.25,0.35 0.64,0.36 1.14,0.34 2.08,-0.07 0.97,-0.02 2.13,0.39 0.49,0.18 0.91,-0 1.08,0.4 -1.07,-0.05 -1.59,0.27 -2.55,0.23 -0.12,-0.01 -0.31,-0.02 -0.43,-0.02l-0.79 0.14c-0.2,0.02 -0.35,0 -0.55,-0.01 -2.92,-0.15 -1.24,0.3 -2.69,0.21l-0.02 0.24c-0.36,-0.02 -1.31,-0.1 -1.61,-0.08l-1.23 0.39c0.14,0.36 0.28,0.19 0.41,0.58z"/>
     <path fill="#FEFEFE" d="M221.66 98.24c1.94,0.14 4.58,-0.45 4.26,0.37 -1.06,0.34 -2.01,-0.07 -2.98,-0.16 -1.11,1.07 -1.57,-0.08 -3.14,0.66 0.53,0.55 2.81,0.13 4.72,0.27 0.98,0.07 4.09,0.05 4.52,0.2 -0.5,0.39 -2.97,0.16 -4.02,0.72 1.29,0.18 2.57,0.12 3.86,0.05 0.6,0.51 0.63,0.66 2.26,0.61 0.87,-0.03 1.48,-0.33 2.19,0.08 -0.21,0.33 -0.93,0.61 -1.47,0.76l-0.12 0.21c1.02,0.27 3.29,0.43 3.9,-0.75 -0.43,-0.25 -0.59,-0.13 -0.74,-0.47 1,-0.03 1.14,0.16 1.95,0.13l5.21 -0.31c0.66,-0.02 0.62,0.14 0.82,-0.21 -0.16,-0.37 0.02,-0.2 -0.66,-0.27l-1.06 -0.2c0.3,-0.53 0.19,-0.29 1.64,-0.33 0.79,-0.02 1.27,0.07 1.35,-0.59 -0.51,-0.27 -1.62,-0.43 -2.28,-0.49 0.52,-0.55 0.51,0.11 0.78,-0.71 -0.43,-0.31 -1.27,-0.39 -1.87,-0.46 0.13,-0.08 0.29,0.05 0.15,-0.48 -0.07,-0.27 -0.05,0.18 -0.08,-0.17l0.17 -0.1c1.02,-0.56 1.05,0.1 2.09,-0.36 -0.4,-0.44 0.08,-0.16 -0.53,-0.29 -0.02,-0.01 -0.59,0 -0.6,0 -0.54,0.01 -0.73,0.02 -1.23,-0.16l0.12 -0.34c-1.32,0.14 -3.12,0.49 -4.64,0.36 -1.36,-0.12 -1.26,0.17 -2.38,0.14 -2.09,-0.06 -3.04,0.54 -4.36,0.55 -0.49,0 -0.75,-0.07 -1.24,0.01 -2.25,0.35 -0.82,-0.12 -3.46,0.18 -0.81,0.09 -1.77,-0.08 -2.63,-0.04 -0.02,0.47 0.04,0.35 0.01,0.79 -0.82,0.13 0,-0.02 -0.59,0.21 0.02,0.42 -0.01,0.33 0.08,0.63z"/>
     <path fill="#FEFEFE" d="M277.03 78.19c0.57,0.1 0.42,-0.02 1,0.13 -0.67,0.31 -0.23,0.53 -0.39,1.41l-1 0.16c-0.08,0.13 0.02,0.02 -0.11,0.17 -0.31,0.38 -1.33,0.43 -2.02,0.49 -1.09,0.09 -0.58,0.32 -0.85,0.93 -0.21,0.47 -0.16,0.12 -0.46,0.61l0.77 0.76c0.4,0.36 0.17,-0.05 0.33,0.29 -0.45,0.43 -0.61,0.03 -0.82,-0.07 -0.37,-0.19 0.35,-0.09 -0.55,-0.17 -0.06,-0.01 -0.45,0.01 -0.51,0.01 -2.21,0.08 -1.59,-0.37 -2.4,0.22 0.17,0.22 0.6,0.35 0.99,0.6 0.05,0.03 0.12,0.22 0.2,0.13 0.02,-0.02 0.07,0.05 0.1,0.07l0.14 -0.39c-0.01,-0.31 -0.01,-0.08 -0.14,-0.15l0.78 0.11c-0.02,0.29 0.04,0.47 0.16,0.68l0.39 0.49c0.02,-0.02 0.06,0.06 0.07,0.1 -0.23,0.33 -0.05,0.11 -0.31,0.35 -0.03,0.03 -0.21,0.16 -0.24,0.19 -0.22,0.16 -0.36,0.22 -0.56,0.36 -0.59,0.43 0.04,0.23 -0.86,0.96 0.37,0.02 0.38,0.05 0.63,-0.03 0.24,-0.09 0.05,-0.06 0.26,-0.13l0.23 -0.07c1.23,-0.25 1.3,0.17 1.32,0.19 0.22,0.19 -0.68,0.7 1.02,0.36 0.44,-0.09 0.71,-0.1 1.22,-0.1 -0.42,0.1 -0.4,0.23 -0.63,0.54l4.83 -0.77c-0.8,-0.22 -0.52,0.03 -0.64,-0.35l2.12 -0.36c-0.17,-0.11 -0.08,-0.13 -0.67,-0.13l-2.53 0.37c-0.59,0.19 -2.76,0.54 -3.46,0.51 0.26,-0.3 -0.08,-0.05 0.36,-0.3l1.17 -0.35c-1.02,-0.1 -2.26,0.57 -2.98,0.14 0.36,-0.17 1.09,-0.29 1.5,-0.4l-0.16 -0.52c-0.01,-0.02 -0.03,-0.07 -0.03,-0.1 3.29,-0.71 2.6,-0.82 6.6,-1.23 1.03,-0.11 2.71,-0.3 3.65,-0.33 0.47,-0.02 2.18,0.23 3.4,-0 0.84,-0.16 -0.52,0.16 0.23,-0.06l0.22 -0.09c-0.57,-0.24 -1.68,-0.18 -2.41,-0.23 0.15,-0.06 0.09,-0.06 0.37,-0.09l1.46 0.07c0.67,0.04 1.28,0.08 1.75,-0.18 -0.63,-0.49 -3.74,-0.86 -4.39,-0.87 -1.64,-0.03 -2.93,0.33 -4.71,0.24 0.81,-0.33 5.66,-0.45 6.56,-0.39l1.92 0.12c0.81,-0.09 0.34,-0 0.59,-0.23 -0.73,-0.76 -3.92,-0.47 -5.29,-0.46 -0.74,0.01 -4.82,0.3 -5,0.24 1.01,-0.62 1.02,-0.48 2.5,-0.49 0.12,-0 0.56,0 0.65,-0 1.34,-0.11 -0.05,-0.43 1.78,-0.49 2.45,-0.08 1.37,-0.36 4.31,-0.17 0.67,0.04 1.2,0.15 1.73,-0.14 -0.16,-0.11 -0.04,-0.08 -0.37,-0.17 -1.34,-0.38 -6.27,-0.01 -6.79,-0.39 1.21,-0.45 6.64,0.35 7.2,-0.05 -0.15,-0.09 -2.2,-0.33 -2.55,-0.35 -0.71,-0.05 -0.7,0.05 -1.22,0.08 -0.44,0.03 -0.97,-0.07 -1.44,-0.11 -1.93,-0.17 -3.56,0.04 -5.32,-0.05l-0.28 -0.72c1.23,-0.3 1.27,-0.06 2.41,-0.02 1.12,0.03 1.98,-0.02 3.13,0.11 -0.86,0.23 -3.39,-0.03 -3.72,0.05 -0.59,0.15 -0.16,-0.08 -0.59,0.3l7.15 0.11c1.1,-0.04 1.61,0.44 2.32,-0.02l-0.22 -0.08c-0.03,-0.01 -0.08,-0.02 -0.12,-0.03 -0.04,-0.01 -0.08,-0.02 -0.13,-0.02 -0.21,-0.04 -0.48,-0.05 -0.71,-0.08 -1.53,-0.22 -0.83,-0.15 -2.37,-0.1 -1.49,0.05 -1.04,-0.1 -1.13,-0.21l3.36 0.05c-0.04,-0.07 -0.1,-0.15 -0.13,-0.12l-0.56 -0.23c-0,-0 -0.69,-0.06 -0.74,-0.07l-10.35 0.02z"/>
     <path fill="#FEFEFE" d="M257.12 56.75l-0.17 0.54c-1.14,-0.38 -0.5,-0.03 -0.73,0.08 0.07,0.52 -0.22,0.24 0.25,0.51 0,0 0.1,0.12 -0.33,0.29l-1.03 0.12c-0.21,0.18 -0.07,0.23 -0.11,0.38 0.87,-0.03 1.11,-0.25 1.78,-0.31 -0.19,0.65 -0.23,0.73 0.12,1.27 -0.79,0.41 -1.4,0.46 -1.77,1.24 0.02,0.03 0.05,0.06 0.07,0.08l0.14 0.15c0.02,0.02 0.05,0.05 0.06,0.07 0.18,0.19 0.05,-0.06 0.17,0.18 -0.91,-0.05 -0.26,-0.4 -1.29,-0 0.2,0.49 0.09,-0 0.4,0.48 -0.44,0.54 -1.07,0.92 -2.16,0.69 -0.55,0.8 -0.72,-0.02 -0.83,1.25 -0.03,0.37 -1.42,1.5 0.13,1.76 0.23,0.04 0.68,-0.01 0.91,-0.07 0.74,-0.19 0.73,-0.33 0.82,-1.12l-0.01 0.46c0.08,-0.05 0.68,0.2 0.35,-0.47l0.12 0.74c0.02,0.04 0.04,0.08 0.07,0.12l0.88 0.06c0.28,-0.25 0.06,0.18 0.29,-0.44 0.03,-0.09 0.04,-0.3 0.05,-0.4l0.95 0.06 -0.01 0.78c1.91,-0.97 0.73,-0.28 1.94,-1.49l1.33 0.01c-0.08,-0.22 -0.78,-0.27 -1.03,-0.32 0.2,-0.36 0.08,-0.31 0.75,-0.45 0.14,-0.03 0.35,-0.05 0.47,-0.07l0.33 -0.11c0.03,-0.01 0.07,-0.03 0.11,-0.04 -0.28,-0.17 -0.49,-0.16 -0.72,-0.41 0.28,-0.72 1.54,-0.36 2.52,-0.68 -0.33,-0.53 -0.68,-0.28 -0.81,-0.93 0.59,-0.25 0.6,-0.03 1.2,-0.17 0.03,-0.36 -0.01,-0.14 -0.15,-0.35 -0.25,-0.38 -0.11,0.39 -0.3,-0.42 0.65,-0.65 1.04,-0.17 1.95,-0.16 0.21,-1.07 -0.95,-0.3 -0.94,-1.6 0.61,-0.03 0.89,-0.1 1.36,-0.14 0.73,-0.06 0.57,0.15 1.31,0.05 -0.03,-0.03 -0.07,-0.09 -0.08,-0.07 -0.16,0.21 -0.5,-0.89 -0.52,-0.92 -0.29,-0.62 -3.21,-1.38 -4.04,-1.44 0.11,0.35 0.07,0.15 0.18,0.3 0.14,0.18 0.12,0.05 0.19,0.17 -1.21,0.3 -0.87,0.38 -0.84,1.26 -2.26,0.2 -1.66,0.04 -2.04,0.67l-1.39 -0.09c0.18,-0.25 0.63,-0.54 0.13,-1.09z"/>
     <path fill="#FEFEFE" d="M257.72 27.76c0.47,-0.03 0.95,-0.07 1.42,-0.03 1.81,0.16 0.88,1.01 0.86,1.07 -0.13,0.39 0.13,0.45 -0.2,0.76 -0.59,0.56 -1.22,-0.14 -1.11,1.17 -1,0.06 -1.61,0.44 -2.47,-0.25 0.03,-0.92 0.29,-0.69 0.89,-1 0.27,-0.13 0.8,-0.89 0.86,-1.1 -0.27,-0.36 -0.05,-0.16 -0.43,-0.39 -0.42,0.48 -0.39,-0.11 -0.85,1.02 -0.27,0.66 0.38,-0.01 -1.18,0.66 0.14,0.45 0.38,0.24 0.49,0.61 0.11,0.38 -0.3,0.27 -0.53,0.74 0.47,0.28 0.44,0.21 0.83,0.57l-0.21 1.14 1.69 0.11 0.35 -0.56c0.69,-0.17 0.86,0.08 1.39,-0.38 0.27,-0.23 0.38,-0.54 0.66,-0.74l-0.06 0.87c0.66,0.07 0.62,0.17 1.3,0.2l-0.02 0.59 0.51 -0.35c-0.27,0.75 -0.04,0.18 0.12,0.38 0.11,-0.39 0.19,-0.4 0.81,-0.77 0.7,-0.42 1.29,-1.32 1.61,-1.62 0.34,-0.32 0.63,-0.28 1.12,-0.5 0.21,-0.95 -0.84,-1.12 -0.11,-1.69 0.5,-0.54 1.09,-0.05 1.77,-0.31 -0.13,-0.59 -0.28,-0.21 -0.7,-0.9 0.03,-0.02 0.09,-0.08 0.1,-0.05l0.5 -0.28c-0.14,-1.47 -2.69,-2.11 -4.32,-2.42l-1.59 -0.87c-0.56,0.45 -0.34,-0.03 -0.75,0.86l-0.27 0.38c-0.29,0.28 -0.21,-0.21 -0.47,0.67 -0.1,0.35 -0.1,0.61 -0.14,1 -0.88,0.47 -0.79,0.14 -1.47,0.43 -0.31,0.3 0.08,0.44 -0.13,0.7l-0.3 0.3z"/>
     <path fill="#FEFEFE" d="M266.15 68.87c-0.44,-0.21 -0.89,-0.18 -1.46,-0.26 -0.08,-0.22 0.1,-0.21 0.03,-0.36l-4.41 -0.42c-0.67,-0.12 -0.3,0.18 -0.62,-0.3 -1.01,0.09 0.04,0.47 -0.71,0.83 -0.36,0.17 -0.99,0.24 -1.42,0.39 -0.16,0.47 -0.01,0.91 0.02,1.48 0.4,0.06 0.69,0.03 1,0.1 0.48,0.11 0.25,0.19 0.74,0.35 0.73,-0.19 -0.15,-0.12 0.62,-0.18 0.26,-0.02 0.71,0.04 1.02,0.05 0.68,-0.32 0.1,-0.39 1.06,-0.43 1.66,-0.05 3.12,0.26 3.08,-1.26 0,-0.01 -0.01,-0.04 0,-0.06l1.03 0.06z"/>
     <path fill="#FEFEFE" d="M254.98 58.67c-0.39,0.8 -2.69,2.42 -3.25,2.97 0.18,0.57 0.45,0.49 0.75,0.87 1.09,0.23 1.72,-0.15 2.16,-0.69 -0.31,-0.49 -0.2,0 -0.4,-0.48 1.03,-0.4 0.39,-0.04 1.29,0 -0.12,-0.24 0.01,0.02 -0.17,-0.18 -0.02,-0.02 -0.05,-0.05 -0.06,-0.07l-0.14 -0.15c-0.02,-0.02 -0.05,-0.05 -0.07,-0.08 0.37,-0.79 0.98,-0.84 1.77,-1.24 -0.34,-0.53 -0.31,-0.62 -0.12,-1.27 -0.67,0.06 -0.9,0.29 -1.78,0.31z"/>
     <path fill="#FEFEFE" d="M257.55 28c0.38,0.23 0.17,0.03 0.43,0.39 -0.06,0.21 -0.59,0.96 -0.86,1.1 -0.61,0.3 -0.87,0.07 -0.89,1 0.86,0.69 1.46,0.31 2.47,0.25 -0.11,-1.32 0.52,-0.62 1.11,-1.17 0.33,-0.31 0.07,-0.37 0.2,-0.76 0.02,-0.05 0.95,-0.91 -0.86,-1.07 -0.47,-0.04 -0.95,-0 -1.42,0.03l-0.17 0.24z"/>
    </g>
    <g>
     <g>
      <path fill="#FEFEFE" fill-rule="nonzero" d="M49.54 53.62l0 -20.41 14.74 0 0 2.39 -12.03 0 0 6.27 11.26 0 0 2.39 -11.26 0 0 6.95 12.51 0 0 2.39 -15.22 0zm18.64 0l0 -14.79 2.25 0 0 2.09c0.46,-0.72 1.08,-1.31 1.85,-1.74 0.77,-0.44 1.64,-0.66 2.63,-0.66 1.09,0 1.99,0.23 2.69,0.68 0.7,0.46 1.19,1.09 1.48,1.91 1.18,-1.72 2.7,-2.58 4.58,-2.58 1.47,0 2.61,0.4 3.4,1.22 0.79,0.81 1.19,2.06 1.19,3.75l0 10.14 -2.51 0 0 -9.31c0,-1 -0.08,-1.72 -0.25,-2.16 -0.16,-0.44 -0.46,-0.79 -0.89,-1.06 -0.43,-0.27 -0.93,-0.4 -1.51,-0.4 -1.05,0 -1.91,0.35 -2.6,1.04 -0.69,0.69 -1.03,1.8 -1.03,3.32l0 8.58 -2.51 0 0 -9.6c0,-1.11 -0.2,-1.95 -0.61,-2.5 -0.41,-0.56 -1.08,-0.84 -2,-0.84 -0.7,0 -1.35,0.19 -1.95,0.56 -0.6,0.37 -1.03,0.91 -1.3,1.63 -0.27,0.71 -0.4,1.74 -0.4,3.09l0 7.67 -2.51 0zm33.83 -4.79l2.59 0.34c-0.4,1.51 -1.16,2.68 -2.26,3.51 -1.1,0.83 -2.51,1.25 -4.22,1.25 -2.16,0 -3.87,-0.67 -5.13,-2 -1.26,-1.32 -1.9,-3.19 -1.9,-5.59 0,-2.48 0.64,-4.41 1.91,-5.78 1.28,-1.37 2.94,-2.06 4.97,-2.06 1.97,0 3.58,0.67 4.83,2.01 1.25,1.34 1.88,3.23 1.88,5.67 0,0.15 -0,0.37 -0.01,0.67l-11.02 0c0.1,1.62 0.55,2.86 1.38,3.72 0.82,0.86 1.85,1.29 3.08,1.29 0.92,0 1.7,-0.24 2.35,-0.73 0.65,-0.48 1.16,-1.26 1.54,-2.32zm-8.21 -4.02l8.24 0c-0.11,-1.24 -0.43,-2.18 -0.95,-2.8 -0.79,-0.96 -1.83,-1.45 -3.1,-1.45 -1.15,0 -2.11,0.38 -2.9,1.15 -0.78,0.77 -1.21,1.8 -1.3,3.09zm13.94 8.81l0 -14.79 2.25 0 0 2.27c0.58,-1.05 1.11,-1.74 1.6,-2.08 0.49,-0.34 1.03,-0.5 1.61,-0.5 0.85,0 1.71,0.27 2.58,0.79l-0.89 2.31c-0.61,-0.34 -1.22,-0.51 -1.82,-0.51 -0.55,0 -1.04,0.17 -1.47,0.49 -0.43,0.33 -0.74,0.78 -0.93,1.37 -0.28,0.89 -0.42,1.86 -0.42,2.92l0 7.73 -2.51 0zm19.18 -1.85c-0.93,0.79 -1.83,1.35 -2.69,1.68 -0.86,0.33 -1.78,0.49 -2.77,0.49 -1.63,0 -2.87,-0.39 -3.75,-1.19 -0.87,-0.79 -1.31,-1.8 -1.31,-3.03 0,-0.72 0.17,-1.38 0.49,-1.98 0.33,-0.6 0.76,-1.07 1.3,-1.43 0.54,-0.36 1.13,-0.64 1.8,-0.82 0.49,-0.13 1.24,-0.25 2.23,-0.38 2.02,-0.24 3.52,-0.53 4.48,-0.86 0.01,-0.34 0.01,-0.56 0.01,-0.65 0,-1.02 -0.24,-1.73 -0.71,-2.15 -0.64,-0.56 -1.6,-0.85 -2.86,-0.85 -1.18,0 -2.06,0.21 -2.62,0.62 -0.56,0.41 -0.98,1.15 -1.25,2.2l-2.45 -0.34c0.22,-1.05 0.59,-1.9 1.1,-2.55 0.51,-0.65 1.25,-1.14 2.22,-1.49 0.96,-0.35 2.09,-0.52 3.36,-0.52 1.26,0 2.29,0.15 3.09,0.45 0.79,0.3 1.37,0.67 1.74,1.12 0.37,0.45 0.63,1.02 0.78,1.71 0.08,0.43 0.12,1.2 0.12,2.3l0 3.33c0,2.32 0.05,3.79 0.16,4.41 0.1,0.62 0.31,1.22 0.61,1.79l-2.62 0c-0.25,-0.53 -0.41,-1.14 -0.48,-1.85zm-0.2 -5.56c-0.91,0.37 -2.28,0.68 -4.1,0.94 -1.04,0.15 -1.77,0.31 -2.19,0.5 -0.43,0.18 -0.76,0.46 -0.99,0.81 -0.23,0.36 -0.35,0.75 -0.35,1.19 0,0.66 0.25,1.22 0.76,1.66 0.51,0.44 1.25,0.67 2.22,0.67 0.96,0 1.82,-0.21 2.58,-0.63 0.75,-0.42 1.31,-0.99 1.66,-1.72 0.27,-0.57 0.4,-1.4 0.4,-2.49l0.01 -0.91zm6.33 7.41l0 -20.41 2.51 0 0 20.41 -2.51 0zm15.94 0l0 -1.88c-0.94,1.46 -2.31,2.19 -4.13,2.19 -1.18,0 -2.26,-0.32 -3.25,-0.97 -0.99,-0.65 -1.75,-1.55 -2.3,-2.71 -0.54,-1.16 -0.81,-2.5 -0.81,-4.01 0,-1.47 0.25,-2.81 0.74,-4.01 0.49,-1.2 1.23,-2.12 2.21,-2.76 0.98,-0.64 2.08,-0.96 3.29,-0.96 0.89,0 1.69,0.19 2.38,0.56 0.69,0.38 1.26,0.87 1.7,1.47l0 -7.34 2.51 0 0 20.41 -2.34 0zm-7.92 -7.38c0,1.89 0.4,3.3 1.2,4.24 0.8,0.94 1.74,1.4 2.83,1.4 1.1,0 2.03,-0.45 2.8,-1.34 0.76,-0.89 1.15,-2.26 1.15,-4.09 0,-2.01 -0.39,-3.5 -1.17,-4.44 -0.78,-0.95 -1.74,-1.42 -2.89,-1.42 -1.12,0 -2.05,0.45 -2.8,1.36 -0.75,0.91 -1.12,2.34 -1.12,4.29zm27.23 2.96l2.48 -0.4c0.14,0.99 0.53,1.75 1.16,2.29 0.64,0.53 1.53,0.79 2.67,0.79 1.15,0 2.01,-0.23 2.57,-0.7 0.56,-0.47 0.84,-1.02 0.84,-1.65 0,-0.57 -0.25,-1.01 -0.75,-1.34 -0.35,-0.22 -1.21,-0.5 -2.57,-0.85 -1.83,-0.46 -3.1,-0.86 -3.82,-1.2 -0.71,-0.34 -1.24,-0.81 -1.61,-1.41 -0.37,-0.59 -0.55,-1.25 -0.55,-1.98 0,-0.66 0.15,-1.27 0.45,-1.83 0.3,-0.56 0.71,-1.03 1.23,-1.4 0.39,-0.29 0.92,-0.53 1.59,-0.73 0.67,-0.2 1.39,-0.3 2.16,-0.3 1.16,0 2.18,0.17 3.05,0.5 0.88,0.33 1.52,0.79 1.94,1.36 0.41,0.57 0.7,1.34 0.86,2.3l-2.45 0.34c-0.11,-0.77 -0.43,-1.37 -0.96,-1.81 -0.53,-0.43 -1.28,-0.65 -2.26,-0.65 -1.14,0 -1.97,0.19 -2.46,0.57 -0.49,0.38 -0.74,0.83 -0.74,1.34 0,0.32 0.1,0.62 0.3,0.88 0.2,0.27 0.52,0.49 0.96,0.67 0.25,0.09 0.98,0.31 2.21,0.64 1.77,0.47 3,0.86 3.71,1.16 0.7,0.3 1.25,0.74 1.65,1.31 0.4,0.58 0.6,1.29 0.6,2.14 0,0.83 -0.24,1.61 -0.73,2.35 -0.49,0.74 -1.19,1.31 -2.11,1.71 -0.92,0.4 -1.96,0.6 -3.12,0.6 -1.92,0 -3.39,-0.4 -4.39,-1.19 -1.01,-0.8 -1.65,-1.98 -1.93,-3.54zm-4.99 -12.29c-0.51,-0.3 -0.77,-0.76 -0.77,-1.35 0,-0.6 0.17,-1.06 0.51,-1.4 0.34,-0.33 0.77,-0.5 1.28,-0.5 0.51,0 0.95,0.16 1.3,0.48 0.35,0.32 0.53,0.75 0.53,1.27 0,0.52 -0.17,1.03 -0.51,1.53l-1.68 2.42 -1.74 0 1.08 -2.45z"/>
      <path fill="#FEFEFE" fill-rule="nonzero" d="M105.31 70.17c0,-0.41 -0.27,-0.9 -0.81,-1.46l-3.72 -3.87 2.79 -2.75c0.63,-0.62 0.94,-1.13 0.94,-1.54 0,-0.41 -0.14,-0.75 -0.42,-1 -0.28,-0.26 -0.62,-0.38 -1,-0.38 -0.4,0 -0.77,0.18 -1.12,0.54l-3.02 3.23 -1.6 -1.67 0 -2.27c0,-0.44 -0.13,-0.78 -0.4,-1.04 -0.27,-0.26 -0.62,-0.39 -1.04,-0.39 -0.42,0 -0.77,0.14 -1.04,0.41 -0.27,0.28 -0.41,0.61 -0.41,1.01l0 11.13c0,0.42 0.14,0.76 0.41,1.01 0.27,0.25 0.62,0.38 1.04,0.38 0.42,0 0.77,-0.13 1.04,-0.4 0.27,-0.27 0.4,-0.6 0.4,-0.98l0 -4.91 4.99 5.39c0.55,0.6 1.04,0.9 1.46,0.9 0.42,0 0.78,-0.12 1.07,-0.35 0.29,-0.23 0.43,-0.56 0.43,-0.98zm-3.52 0.94l-3.66 -3.95 0 2.95c0,0.6 -0.21,1.11 -0.63,1.53 -0.42,0.42 -0.95,0.63 -1.59,0.63 -0.62,0 -1.14,-0.2 -1.57,-0.6 -0.43,-0.4 -0.64,-0.92 -0.64,-1.56l0 -11.13c0,-0.62 0.21,-1.14 0.63,-1.56 0.42,-0.42 0.95,-0.64 1.59,-0.64 0.63,0 1.15,0.2 1.58,0.61 0.42,0.4 0.64,0.93 0.64,1.59l0 1.96 0.83 0.85 2.46 -2.64c0.49,-0.51 1.05,-0.77 1.67,-0.77 0.58,0 1.08,0.19 1.52,0.58 0.45,0.42 0.67,0.95 0.67,1.58 0,0.62 -0.39,1.31 -1.15,2.08l-2.27 2.23 3.2 3.31c0.68,0.72 1.02,1.39 1.02,2 0,0.69 -0.25,1.23 -0.75,1.62 -0.42,0.32 -0.93,0.48 -1.52,0.48 -0.64,0 -1.32,-0.39 -2.02,-1.16zm0.27 -0.25c0.64,0.68 1.23,1.02 1.75,1.02 0.51,0 0.94,-0.13 1.29,-0.4 0.4,-0.32 0.6,-0.76 0.6,-1.31 0,-0.51 -0.31,-1.09 -0.92,-1.73l-3.31 -3.47c-0.09,-0.09 -0.09,-0.18 0,-0.27l2.39 -2.35c0.71,-0.69 1.06,-1.3 1.06,-1.81 0,-0.51 -0.18,-0.94 -0.54,-1.27 -0.36,-0.33 -0.78,-0.5 -1.27,-0.5 -0.51,0 -0.98,0.22 -1.39,0.66l-2.62 2.79c-0.03,0.02 -0.06,0.04 -0.12,0.04 -0.18,0 -0.43,-0.17 -0.75,-0.51 -0.32,-0.34 -0.48,-0.58 -0.48,-0.72l0 -2.04c0,-0.54 -0.17,-0.98 -0.52,-1.31 -0.35,-0.33 -0.78,-0.5 -1.31,-0.5 -0.54,0 -0.98,0.17 -1.32,0.52 -0.34,0.35 -0.51,0.78 -0.51,1.29l0 11.13c0,0.53 0.17,0.95 0.52,1.28 0.35,0.33 0.78,0.49 1.31,0.49 0.53,0 0.96,-0.17 1.31,-0.52 0.35,-0.35 0.52,-0.76 0.52,-1.25l0 -3.43c0,-0.12 0.04,-0.19 0.12,-0.21 0.08,-0.03 0.15,0 0.21,0.08l3.99 4.31zm11.9 -11.94c0,-0.36 -0.1,-0.66 -0.3,-0.89 -0.2,-0.24 -0.45,-0.36 -0.76,-0.36 -0.55,0 -0.92,0.35 -1.1,1.06l-0.02 0c-0.15,-0.71 -0.53,-1.06 -1.12,-1.06 -0.31,0 -0.56,0.12 -0.75,0.36 -0.19,0.24 -0.29,0.54 -0.29,0.89 0,0.3 0.07,0.56 0.22,0.79 0.15,0.23 0.32,0.39 0.53,0.48l0.33 0.13c0.56,0.24 0.93,0.58 1.1,1.02 0.15,-0.44 0.51,-0.78 1.08,-1.02l0.31 -0.13c0.51,-0.22 0.77,-0.64 0.77,-1.27zm-0.77 10.92l0 -7.97c0,-0.4 -0.1,-0.74 -0.31,-1.02 -0.21,0.15 -0.4,0.3 -0.6,0.44 -0.26,0.18 -0.42,0.37 -0.48,0.58 -0.08,-0.21 -0.24,-0.4 -0.48,-0.58 -0.21,-0.14 -0.41,-0.29 -0.62,-0.44 -0.19,0.28 -0.29,0.62 -0.29,1.02l0 7.97c0,0.46 0.13,0.83 0.39,1.12 0.26,0.28 0.59,0.42 1,0.42 0.4,0 0.73,-0.14 0.99,-0.42 0.26,-0.28 0.39,-0.65 0.39,-1.12zm-3.54 0l0 -7.97c0,-0.35 0.08,-0.69 0.23,-1.04 -0.31,-0.15 -0.56,-0.43 -0.75,-0.83 -0.18,-0.36 -0.27,-0.72 -0.27,-1.08 0,-0.54 0.16,-1.01 0.49,-1.41 0.33,-0.4 0.77,-0.61 1.32,-0.61 0.42,0 0.8,0.13 1.14,0.4 0.28,-0.27 0.65,-0.4 1.1,-0.4 0.56,0 1.02,0.21 1.37,0.64 0.31,0.39 0.46,0.85 0.46,1.39 0,0.81 -0.35,1.43 -1.04,1.85 0.18,0.36 0.27,0.73 0.27,1.1l0 7.97c0,0.66 -0.2,1.2 -0.61,1.65 -0.4,0.44 -0.92,0.66 -1.55,0.66 -0.64,0 -1.16,-0.22 -1.56,-0.66 -0.4,-0.44 -0.6,-0.99 -0.6,-1.65zm0.39 0c0,0.55 0.16,1.01 0.49,1.38 0.33,0.37 0.75,0.55 1.28,0.55 0.51,0 0.94,-0.18 1.27,-0.55 0.33,-0.37 0.5,-0.83 0.5,-1.38l0 -7.97c0,-0.35 -0.1,-0.71 -0.31,-1.08 -0.03,-0.03 -0.04,-0.06 -0.04,-0.1 0,-0.06 0.1,-0.16 0.29,-0.29 0.24,-0.15 0.42,-0.31 0.54,-0.46 0.19,-0.27 0.29,-0.61 0.29,-1.02 0,-0.45 -0.13,-0.83 -0.39,-1.15 -0.26,-0.32 -0.61,-0.48 -1.05,-0.48 -0.27,0 -0.52,0.08 -0.74,0.24 -0.22,0.16 -0.35,0.24 -0.38,0.24 -0.04,0 -0.08,-0.02 -0.12,-0.06 -0.27,-0.28 -0.6,-0.42 -1,-0.42 -0.42,0 -0.77,0.16 -1.03,0.48 -0.26,0.32 -0.39,0.71 -0.39,1.15 0,0.32 0.09,0.65 0.27,0.98 0.18,0.33 0.41,0.55 0.69,0.66 0.14,0.04 0.18,0.13 0.12,0.27 -0.19,0.36 -0.29,0.71 -0.29,1.04l0 7.97zm17.94 -9.36c0,-0.36 -0.12,-0.67 -0.36,-0.93 -0.24,-0.26 -0.56,-0.39 -0.96,-0.39l-2.09 0c0,-0.46 -0.13,-0.83 -0.41,-1.09 -0.27,-0.26 -0.62,-0.39 -1.04,-0.39 -0.42,0 -0.77,0.13 -1.04,0.39 -0.27,0.26 -0.4,0.63 -0.4,1.09l-2.11 0c-0.4,0 -0.71,0.13 -0.95,0.39 -0.23,0.26 -0.35,0.57 -0.35,0.93 0,0.37 0.11,0.69 0.33,0.94 0.22,0.26 0.55,0.38 0.98,0.38l2.1 0 0 8.07c0,0.47 0.13,0.84 0.4,1.11 0.27,0.26 0.62,0.39 1.04,0.39 0.42,0 0.77,-0.13 1.04,-0.39 0.27,-0.26 0.4,-0.63 0.4,-1.11l0 -8.07 2.1 0c0.44,0 0.76,-0.13 0.98,-0.38 0.22,-0.26 0.33,-0.57 0.33,-0.94zm-2.64 2.1l0 7.3c0,0.68 -0.21,1.23 -0.63,1.65 -0.42,0.42 -0.95,0.63 -1.59,0.63 -0.64,0 -1.17,-0.21 -1.59,-0.63 -0.42,-0.42 -0.63,-0.96 -0.63,-1.65l0 -7.3 -1.33 0c-0.68,0 -1.21,-0.23 -1.6,-0.69 -0.32,-0.38 -0.48,-0.85 -0.48,-1.41 0,-0.55 0.18,-1.03 0.54,-1.42 0.4,-0.45 0.91,-0.67 1.54,-0.67l1.46 0c0.31,-0.99 1.01,-1.48 2.1,-1.48 1.09,0 1.79,0.49 2.1,1.48l1.42 0c0.63,0 1.14,0.22 1.54,0.67 0.36,0.4 0.54,0.87 0.54,1.42 0,0.55 -0.16,1.02 -0.48,1.41 -0.39,0.46 -0.92,0.69 -1.6,0.69l-1.33 0zm-0.19 -0.39l1.52 0c0.55,0 0.98,-0.18 1.29,-0.54 0.27,-0.32 0.4,-0.71 0.4,-1.17 0,-0.45 -0.15,-0.85 -0.46,-1.19 -0.31,-0.35 -0.72,-0.52 -1.23,-0.52l-1.58 0c-0.08,0 -0.18,-0.13 -0.31,-0.38 -0.14,-0.32 -0.3,-0.56 -0.46,-0.71 -0.3,-0.26 -0.69,-0.39 -1.17,-0.39 -0.49,0 -0.88,0.13 -1.17,0.39 -0.17,0.15 -0.33,0.39 -0.48,0.71 -0.12,0.26 -0.22,0.38 -0.31,0.38l-1.6 0c-0.51,0 -0.92,0.17 -1.23,0.52 -0.31,0.35 -0.46,0.75 -0.46,1.19 0,0.46 0.13,0.85 0.4,1.17 0.31,0.36 0.74,0.54 1.29,0.54l1.52 0c0.13,0 0.19,0.06 0.19,0.19l0 7.49c0,0.58 0.17,1.04 0.52,1.38 0.35,0.34 0.78,0.51 1.31,0.51 0.53,0 0.96,-0.17 1.31,-0.51 0.35,-0.34 0.52,-0.8 0.52,-1.38l0 -7.49c0,-0.13 0.06,-0.19 0.19,-0.19zm16.21 7.74c0,-0.42 -0.13,-0.77 -0.4,-1.04 -0.27,-0.27 -0.64,-0.4 -1.1,-0.4l-3.25 0c-0.86,0 -1.6,-0.42 -2.23,-1.25 -0.63,-0.83 -0.94,-1.73 -0.94,-2.68 0,-0.91 0.32,-1.79 0.97,-2.64 0.65,-0.85 1.38,-1.27 2.2,-1.27l3.25 0c0.46,0 0.83,-0.13 1.1,-0.4 0.27,-0.27 0.4,-0.62 0.4,-1.04 0,-0.42 -0.13,-0.77 -0.4,-1.04 -0.27,-0.27 -0.64,-0.4 -1.1,-0.4l-3.41 0c-1.55,0 -2.91,0.74 -4.06,2.21 -1.08,1.39 -1.62,2.91 -1.62,4.58 0,1.69 0.54,3.23 1.62,4.62 1.14,1.46 2.5,2.19 4.06,2.19l3.41 0c0.46,0 0.83,-0.13 1.1,-0.4 0.27,-0.27 0.4,-0.62 0.4,-1.04zm-4.91 2.21c-1.84,0 -3.4,-0.83 -4.68,-2.5 -1.18,-1.53 -1.77,-3.22 -1.77,-5.08 0,-1.83 0.6,-3.52 1.79,-5.06 1.3,-1.67 2.85,-2.5 4.66,-2.5l3.41 0c0.68,0 1.23,0.21 1.65,0.63 0.42,0.42 0.63,0.95 0.63,1.59 0,0.64 -0.21,1.17 -0.63,1.59 -0.42,0.42 -0.97,0.63 -1.65,0.63l-3.25 0c-0.55,0 -1.09,0.33 -1.62,1 -0.53,0.67 -0.79,1.38 -0.79,2.14 0,0.8 0.25,1.52 0.76,2.18 0.51,0.66 1.06,0.98 1.65,0.98l3.25 0c0.68,0 1.23,0.21 1.65,0.63 0.42,0.42 0.63,0.95 0.63,1.59 0,0.64 -0.21,1.17 -0.63,1.59 -0.42,0.42 -0.97,0.63 -1.65,0.63l-3.41 0zm0 -0.38l3.41 0c0.58,0 1.04,-0.17 1.38,-0.52 0.34,-0.35 0.51,-0.78 0.51,-1.31 0,-0.53 -0.17,-0.96 -0.51,-1.31 -0.34,-0.35 -0.8,-0.52 -1.38,-0.52l-3.25 0c-0.72,0 -1.36,-0.37 -1.94,-1.12 -0.57,-0.75 -0.86,-1.56 -0.86,-2.43 0,-0.84 0.3,-1.63 0.89,-2.39 0.59,-0.76 1.23,-1.14 1.91,-1.14l3.25 0c0.58,0 1.04,-0.17 1.38,-0.52 0.34,-0.35 0.51,-0.78 0.51,-1.3 0,-0.52 -0.17,-0.96 -0.51,-1.3 -0.34,-0.34 -0.8,-0.52 -1.38,-0.52l-3.41 0c-1.68,0 -3.13,0.78 -4.35,2.35 -1.14,1.48 -1.71,3.09 -1.71,4.83 0,1.77 0.56,3.39 1.69,4.85 1.21,1.57 2.66,2.35 4.37,2.35zm19.13 -1.89l0 -10.71c0,-0.47 -0.13,-0.84 -0.4,-1.11 -0.27,-0.26 -0.62,-0.39 -1.04,-0.39 -0.42,0 -0.77,0.13 -1.04,0.39 -0.27,0.26 -0.4,0.63 -0.4,1.11l0 5.31 -3.39 0 0 -5.31c0,-0.47 -0.13,-0.84 -0.4,-1.11 -0.27,-0.26 -0.62,-0.39 -1.04,-0.39 -0.44,0 -0.79,0.13 -1.05,0.39 -0.26,0.26 -0.39,0.63 -0.39,1.11l0 5.31 -0.02 0c-0.45,0 -0.8,0.13 -1.04,0.39 -0.24,0.26 -0.37,0.57 -0.37,0.93 0,0.36 0.12,0.66 0.37,0.9 0.26,0.28 0.6,0.42 1.04,0.42l0.02 0 0 2.73c0,0.47 0.13,0.84 0.39,1.11 0.26,0.26 0.61,0.39 1.05,0.39 0.42,0 0.77,-0.13 1.04,-0.39 0.27,-0.26 0.4,-0.63 0.4,-1.11l0 -2.73 3.39 0 0 2.73c0,0.47 0.13,0.84 0.4,1.11 0.27,0.26 0.62,0.39 1.04,0.39 0.42,0 0.77,-0.13 1.04,-0.39 0.27,-0.26 0.4,-0.63 0.4,-1.11zm-9.93 -10.71c0,-0.69 0.21,-1.24 0.63,-1.66 0.42,-0.41 0.95,-0.62 1.59,-0.62 0.63,0 1.16,0.21 1.58,0.63 0.42,0.42 0.64,0.97 0.64,1.65l0 4.54 1.85 0 0 -4.54c0,-0.68 0.21,-1.23 0.64,-1.65 0.42,-0.42 0.95,-0.63 1.58,-0.63 0.64,0 1.17,0.21 1.59,0.63 0.42,0.42 0.63,0.97 0.63,1.65l0 10.71c0,0.68 -0.21,1.23 -0.63,1.65 -0.42,0.42 -0.95,0.63 -1.59,0.63 -0.63,0 -1.16,-0.21 -1.58,-0.63 -0.42,-0.42 -0.64,-0.96 -0.64,-1.65l0 -1.96 -1.85 0 0 1.96c0,0.68 -0.21,1.23 -0.64,1.65 -0.42,0.42 -0.95,0.63 -1.58,0.63 -0.64,0 -1.17,-0.21 -1.59,-0.63 -0.42,-0.42 -0.63,-0.96 -0.63,-1.65l0 -2.08c-0.45,-0.15 -0.8,-0.42 -1.05,-0.79 -0.25,-0.37 -0.38,-0.77 -0.38,-1.19 0,-0.99 0.46,-1.64 1.37,-1.96l0.06 -4.68zm0.39 0l-0.06 4.81c0,0.09 -0.12,0.19 -0.37,0.31 -0.29,0.15 -0.51,0.31 -0.65,0.46 -0.23,0.27 -0.35,0.62 -0.35,1.06 0,0.44 0.12,0.79 0.37,1.06 0.14,0.15 0.37,0.31 0.69,0.46 0.24,0.13 0.37,0.23 0.37,0.31l0 2.23c0,0.58 0.17,1.04 0.51,1.38 0.34,0.34 0.78,0.51 1.32,0.51 0.53,0 0.96,-0.17 1.31,-0.51 0.35,-0.34 0.52,-0.8 0.52,-1.38l0 -2.16c0,-0.13 0.06,-0.19 0.19,-0.19l2.23 0c0.13,0 0.19,0.06 0.19,0.19l0 2.16c0,0.58 0.17,1.04 0.52,1.38 0.35,0.34 0.78,0.51 1.31,0.51 0.54,0 0.98,-0.17 1.32,-0.51 0.34,-0.34 0.51,-0.8 0.51,-1.38l0 -10.71c0,-0.58 -0.17,-1.04 -0.51,-1.38 -0.34,-0.34 -0.78,-0.51 -1.32,-0.51 -0.53,0 -0.96,0.17 -1.31,0.51 -0.35,0.34 -0.52,0.8 -0.52,1.38l0 4.74c0,0.13 -0.06,0.19 -0.19,0.19l-2.23 0c-0.13,0 -0.19,-0.06 -0.19,-0.19l0 -4.74c0,-0.58 -0.17,-1.04 -0.52,-1.38 -0.35,-0.34 -0.78,-0.51 -1.31,-0.51 -0.54,0 -0.98,0.17 -1.32,0.51 -0.34,0.34 -0.51,0.8 -0.51,1.38zm21.99 10.88c0,-0.36 -0.12,-0.67 -0.36,-0.93 -0.24,-0.26 -0.57,-0.39 -1.01,-0.39l-3.85 0 0 -1.77 3.45 0c0.44,0 0.78,-0.14 1.04,-0.42 0.24,-0.24 0.37,-0.55 0.37,-0.9 0,-0.36 -0.12,-0.67 -0.37,-0.93 -0.24,-0.26 -0.59,-0.39 -1.04,-0.39l-3.45 0 0 -2.35 3.72 0c0.47,0 0.84,-0.14 1.11,-0.4 0.26,-0.27 0.39,-0.62 0.39,-1.04 0,-0.42 -0.13,-0.77 -0.39,-1.04 -0.26,-0.27 -0.63,-0.4 -1.11,-0.4l-3.72 0c-0.03,-0.44 -0.17,-0.78 -0.43,-1.02 -0.26,-0.24 -0.6,-0.37 -1.01,-0.37 -0.42,0 -0.77,0.13 -1.04,0.39 -0.27,0.26 -0.4,0.63 -0.4,1.11l0 10.71c0,0.47 0.13,0.84 0.4,1.11 0.27,0.26 0.62,0.39 1.04,0.39l5.29 0c0.42,0 0.76,-0.14 1.02,-0.42 0.23,-0.24 0.35,-0.55 0.35,-0.9zm-6.66 2.1c-0.64,0 -1.17,-0.21 -1.59,-0.63 -0.42,-0.42 -0.63,-0.96 -0.63,-1.65l0 -10.71c0,-0.68 0.21,-1.23 0.63,-1.65 0.42,-0.42 0.95,-0.63 1.59,-0.63 1.04,0 1.73,0.46 2.06,1.39l3.1 0c0.68,0 1.23,0.21 1.65,0.63 0.42,0.42 0.63,0.95 0.63,1.59 0,0.64 -0.21,1.17 -0.63,1.59 -0.42,0.42 -0.97,0.63 -1.65,0.63l-2.95 0 0 0.81 2.68 0c0.67,0 1.21,0.22 1.62,0.65 0.37,0.4 0.56,0.88 0.56,1.44 0,0.55 -0.19,1.03 -0.56,1.44 -0.42,0.44 -0.96,0.65 -1.62,0.65l-2.68 0 0 0.23 3.08 0c0.67,0 1.2,0.22 1.6,0.66 0.36,0.4 0.54,0.88 0.54,1.44 0,0.55 -0.18,1.03 -0.54,1.42 -0.41,0.45 -0.94,0.67 -1.6,0.67l-5.29 0zm0 -0.38l5.29 0c0.54,0 0.98,-0.18 1.31,-0.54 0.3,-0.33 0.44,-0.73 0.44,-1.17 0,-0.46 -0.15,-0.86 -0.46,-1.2 -0.31,-0.34 -0.74,-0.51 -1.29,-0.51l-3.27 0c-0.13,0 -0.19,-0.06 -0.19,-0.19l0 -0.62c0,-0.13 0.06,-0.19 0.19,-0.19l2.87 0c0.55,0 0.99,-0.17 1.31,-0.52 0.32,-0.35 0.48,-0.74 0.48,-1.19 0,-0.46 -0.16,-0.86 -0.47,-1.2 -0.31,-0.34 -0.75,-0.51 -1.32,-0.51l-2.87 0c-0.13,0 -0.19,-0.06 -0.19,-0.19l0 -1.19c0,-0.13 0.06,-0.19 0.19,-0.19l3.14 0c0.58,0 1.04,-0.17 1.38,-0.52 0.34,-0.35 0.51,-0.78 0.51,-1.31 0,-0.53 -0.17,-0.96 -0.51,-1.31 -0.34,-0.35 -0.8,-0.52 -1.38,-0.52l-3.23 0c-0.08,0 -0.18,-0.12 -0.31,-0.37 -0.15,-0.3 -0.31,-0.51 -0.48,-0.65 -0.28,-0.24 -0.66,-0.37 -1.14,-0.37 -0.54,0 -0.98,0.17 -1.32,0.51 -0.34,0.34 -0.51,0.8 -0.51,1.38l0 10.71c0,0.58 0.17,1.04 0.51,1.38 0.34,0.34 0.78,0.51 1.32,0.51zm20.12 -1.93l0 -7.59c0,-1.15 -0.35,-2.07 -1.06,-2.73 -0.71,-0.67 -1.62,-1 -2.73,-1 -1.23,0 -2.12,0.38 -2.68,1.14l0 -0.96c-0.1,-0.68 -0.53,-1.02 -1.27,-1.02 -0.4,0 -0.73,0.14 -0.99,0.42 -0.26,0.28 -0.39,0.66 -0.39,1.12l0 10.63c0,0.46 0.13,0.83 0.39,1.12 0.26,0.28 0.59,0.42 0.99,0.42 0.41,0 0.74,-0.14 1,-0.42 0.26,-0.28 0.39,-0.65 0.39,-1.12l0 -7.1c0,-0.55 0.16,-1.01 0.47,-1.37 0.31,-0.36 0.75,-0.54 1.3,-0.54 0.54,0 0.97,0.15 1.29,0.46 0.35,0.35 0.52,0.83 0.52,1.44l0 7.1c0,0.46 0.13,0.83 0.39,1.12 0.26,0.28 0.59,0.42 0.99,0.42 0.41,0 0.74,-0.14 1,-0.42 0.26,-0.28 0.38,-0.65 0.38,-1.12zm-3.79 -12.09c1.32,0 2.41,0.4 3.25,1.19 0.87,0.83 1.31,1.94 1.31,3.31l0 7.59c0,0.66 -0.2,1.2 -0.6,1.65 -0.4,0.44 -0.92,0.66 -1.56,0.66 -0.63,0 -1.15,-0.22 -1.55,-0.66 -0.4,-0.44 -0.61,-0.99 -0.61,-1.65l0 -7.1c0,-0.76 -0.35,-1.14 -1.04,-1.14 -0.67,0 -1,0.38 -1,1.14l0 7.1c0,0.66 -0.2,1.2 -0.6,1.65 -0.4,0.44 -0.92,0.66 -1.56,0.66 -0.63,0 -1.15,-0.22 -1.55,-0.66 -0.4,-0.44 -0.61,-0.99 -0.61,-1.65l0 -10.63c0,-0.66 0.2,-1.2 0.61,-1.65 0.4,-0.44 0.92,-0.66 1.55,-0.66 0.96,0 1.6,0.41 1.93,1.23 0.55,-0.26 1.23,-0.38 2.02,-0.38zm0 0.38c-0.82,0 -1.5,0.15 -2.04,0.44 -0.15,0.09 -0.25,0.05 -0.29,-0.12 -0.21,-0.78 -0.74,-1.17 -1.62,-1.17 -0.51,0 -0.94,0.18 -1.27,0.55 -0.33,0.37 -0.5,0.83 -0.5,1.38l0 10.63c0,0.55 0.17,1.01 0.5,1.38 0.33,0.37 0.76,0.55 1.27,0.55 0.53,0 0.95,-0.18 1.28,-0.55 0.33,-0.37 0.49,-0.83 0.49,-1.38l0 -7.1c0,-1.01 0.46,-1.52 1.39,-1.52 0.95,0 1.43,0.51 1.43,1.52l0 7.1c0,0.55 0.17,1.01 0.5,1.38 0.33,0.37 0.76,0.55 1.27,0.55 0.53,0 0.95,-0.18 1.28,-0.55 0.33,-0.37 0.49,-0.83 0.49,-1.38l0 -7.59c0,-1.26 -0.39,-2.26 -1.17,-3 -0.78,-0.74 -1.78,-1.12 -3,-1.12z"/>
     </g>
     <path fill="#FEFEFE" fill-rule="nonzero" d="M81.43 81.84c-0.14,-0.14 -0.21,-0.32 -0.21,-0.52 0,-0.2 0.07,-0.37 0.21,-0.51 0.14,-0.14 0.31,-0.21 0.51,-0.21 0.2,0 0.38,0.07 0.52,0.21 0.14,0.14 0.22,0.31 0.22,0.51 0,0.2 -0.07,0.38 -0.22,0.52 -0.14,0.14 -0.32,0.22 -0.52,0.22 -0.2,0 -0.37,-0.07 -0.51,-0.22zm2.74 0c-0.14,-0.14 -0.21,-0.32 -0.21,-0.52 0,-0.2 0.07,-0.37 0.21,-0.51 0.14,-0.14 0.31,-0.21 0.51,-0.21 0.2,0 0.38,0.07 0.52,0.21 0.14,0.14 0.22,0.31 0.22,0.51 0,0.2 -0.07,0.38 -0.22,0.52 -0.14,0.14 -0.32,0.22 -0.52,0.22 -0.2,0 -0.37,-0.07 -0.51,-0.22zm2.74 0c-0.14,-0.14 -0.21,-0.32 -0.21,-0.52 0,-0.2 0.07,-0.37 0.21,-0.51 0.14,-0.14 0.31,-0.21 0.51,-0.21 0.2,0 0.38,0.07 0.52,0.21 0.14,0.14 0.22,0.31 0.22,0.51 0,0.2 -0.07,0.38 -0.22,0.52 -0.14,0.14 -0.32,0.22 -0.52,0.22 -0.2,0 -0.37,-0.07 -0.51,-0.22zm5.12 0.14l-1.25 0 -1.8 -5.21 1.14 0 1.29 3.94 1.29 -3.94 1.14 0 1.29 3.94 1.29 -3.94 1.14 0 -1.8 5.21 -1.25 0 -1.23 -3.56 -1.23 3.56zm7.59 -2.82l0 2.82 -1.1 0 0 -7.25 1.1 0 0 3c0.16,-0.32 0.39,-0.57 0.71,-0.75 0.32,-0.18 0.66,-0.27 1.02,-0.27 0.59,0 1.06,0.18 1.42,0.54 0.36,0.36 0.54,0.88 0.54,1.56l0 3.19 -1.1 0 0 -2.86c0,-0.96 -0.4,-1.44 -1.2,-1.44 -0.38,0 -0.71,0.13 -0.99,0.38 -0.28,0.25 -0.42,0.62 -0.42,1.1zm10.07 0.7l-4.08 0c0.03,0.38 0.2,0.68 0.52,0.92 0.32,0.23 0.69,0.35 1.1,0.35 0.65,0 1.15,-0.21 1.49,-0.62l0.63 0.69c-0.56,0.58 -1.29,0.87 -2.19,0.87 -0.73,0 -1.35,-0.24 -1.86,-0.73 -0.51,-0.49 -0.77,-1.14 -0.77,-1.96 0,-0.82 0.26,-1.47 0.78,-1.95 0.52,-0.48 1.14,-0.72 1.85,-0.72 0.71,0 1.31,0.21 1.81,0.64 0.5,0.43 0.74,1.02 0.74,1.77l0 0.75zm-4.08 -0.86l2.99 0c0,-0.44 -0.14,-0.77 -0.41,-1.01 -0.27,-0.23 -0.61,-0.35 -1.01,-0.35 -0.4,0 -0.76,0.12 -1.08,0.37 -0.32,0.24 -0.48,0.58 -0.48,0.99zm8.02 -1.19c-0.54,0 -0.95,0.18 -1.22,0.53 -0.27,0.35 -0.41,0.83 -0.41,1.42l0 2.23 -1.1 0 0 -5.21 1.1 0 0 1.05c0.18,-0.33 0.42,-0.59 0.72,-0.8 0.3,-0.21 0.63,-0.32 0.96,-0.32l0.01 1.11c-0.02,0 -0.04,0 -0.06,0zm6 2.06l-4.08 0c0.03,0.38 0.2,0.68 0.52,0.92 0.32,0.23 0.69,0.35 1.1,0.35 0.65,0 1.15,-0.21 1.49,-0.62l0.63 0.69c-0.56,0.58 -1.29,0.87 -2.19,0.87 -0.73,0 -1.35,-0.24 -1.86,-0.73 -0.51,-0.49 -0.77,-1.14 -0.77,-1.96 0,-0.82 0.26,-1.47 0.78,-1.95 0.52,-0.48 1.14,-0.72 1.85,-0.72 0.71,0 1.31,0.21 1.81,0.64 0.5,0.43 0.74,1.02 0.74,1.77l0 0.75zm-4.08 -0.86l2.99 0c0,-0.44 -0.14,-0.77 -0.41,-1.01 -0.27,-0.23 -0.61,-0.35 -1.01,-0.35 -0.4,0 -0.76,0.12 -1.08,0.37 -0.32,0.24 -0.48,0.58 -0.48,0.99zm9.32 -1.34l0 2.64c0,0.25 0.07,0.45 0.2,0.59 0.13,0.15 0.31,0.22 0.55,0.22 0.23,0 0.46,-0.11 0.67,-0.34l0.45 0.77c-0.39,0.35 -0.81,0.52 -1.28,0.52 -0.47,0 -0.87,-0.16 -1.2,-0.49 -0.33,-0.32 -0.49,-0.76 -0.49,-1.31l0 -2.61 -0.66 0 0 -0.88 0.66 0 0 -1.63 1.1 0 0 1.63 1.37 0 0 0.88 -1.37 0zm6.96 4.33l-1 0 0 -0.69c-0.43,0.52 -1.01,0.77 -1.73,0.77 -0.54,0 -0.99,-0.15 -1.35,-0.46 -0.36,-0.31 -0.53,-0.72 -0.53,-1.23 0,-0.51 0.19,-0.9 0.57,-1.15 0.38,-0.25 0.89,-0.38 1.54,-0.38l1.42 0 0 -0.2c0,-0.69 -0.39,-1.04 -1.16,-1.04 -0.48,0 -0.99,0.18 -1.51,0.53l-0.49 -0.69c0.63,-0.5 1.35,-0.75 2.15,-0.75 0.61,0 1.11,0.16 1.5,0.47 0.39,0.31 0.58,0.8 0.58,1.46l0 3.36zm-1.1 -1.94l0 -0.44 -1.23 0c-0.79,0 -1.18,0.25 -1.18,0.74 0,0.25 0.1,0.45 0.29,0.58 0.2,0.13 0.47,0.2 0.82,0.2 0.35,0 0.65,-0.1 0.92,-0.29 0.26,-0.2 0.39,-0.46 0.39,-0.79zm6.33 0.38c0,0.5 -0.18,0.89 -0.54,1.19 -0.36,0.3 -0.82,0.45 -1.38,0.45 -0.38,0 -0.77,-0.07 -1.18,-0.21 -0.41,-0.14 -0.77,-0.33 -1.08,-0.58l0.53 -0.85c0.61,0.46 1.2,0.69 1.76,0.69 0.25,0 0.44,-0.06 0.59,-0.17 0.14,-0.11 0.22,-0.26 0.22,-0.44 0,-0.26 -0.35,-0.5 -1.04,-0.7 -0.05,-0.02 -0.09,-0.03 -0.12,-0.04 -1.08,-0.29 -1.63,-0.78 -1.63,-1.47 0,-0.48 0.19,-0.87 0.56,-1.16 0.38,-0.29 0.86,-0.44 1.46,-0.44 0.6,0 1.17,0.18 1.7,0.53l-0.41 0.81c-0.42,-0.28 -0.88,-0.42 -1.38,-0.42 -0.26,0 -0.47,0.05 -0.64,0.14 -0.16,0.1 -0.24,0.24 -0.24,0.43 0,0.17 0.08,0.29 0.25,0.37 0.12,0.06 0.28,0.11 0.49,0.17 0.21,0.05 0.4,0.1 0.56,0.16 0.16,0.05 0.32,0.11 0.47,0.18 0.15,0.07 0.32,0.16 0.49,0.27 0.35,0.23 0.53,0.6 0.53,1.1zm2.59 -2.77l0 2.64c0,0.25 0.07,0.45 0.2,0.59 0.13,0.15 0.31,0.22 0.55,0.22 0.23,0 0.46,-0.11 0.68,-0.34l0.45 0.77c-0.38,0.35 -0.81,0.52 -1.28,0.52 -0.47,0 -0.86,-0.16 -1.19,-0.49 -0.33,-0.32 -0.49,-0.76 -0.49,-1.31l0 -2.61 -0.66 0 0 -0.88 0.66 0 0 -1.63 1.1 0 0 1.63 1.37 0 0 0.88 -1.37 0zm7.59 2.2l-4.08 0c0.03,0.38 0.2,0.68 0.52,0.92 0.32,0.23 0.69,0.35 1.1,0.35 0.65,0 1.15,-0.21 1.49,-0.62l0.63 0.69c-0.56,0.58 -1.29,0.87 -2.19,0.87 -0.73,0 -1.35,-0.24 -1.87,-0.73 -0.51,-0.49 -0.77,-1.14 -0.77,-1.96 0,-0.82 0.26,-1.47 0.78,-1.95 0.52,-0.48 1.14,-0.72 1.85,-0.72 0.71,0 1.31,0.21 1.81,0.64 0.5,0.43 0.74,1.02 0.74,1.77l0 0.75zm-4.08 -0.86l2.99 0c0,-0.44 -0.14,-0.77 -0.41,-1.01 -0.27,-0.23 -0.61,-0.35 -1.01,-0.35 -0.4,0 -0.76,0.12 -1.08,0.37 -0.32,0.24 -0.48,0.58 -0.48,0.99zm9.07 2.99l-1.1 0 0 -5.21 1.1 0 0 5.21zm-1.03 -6.25c-0.14,-0.14 -0.21,-0.3 -0.21,-0.49 0,-0.19 0.07,-0.35 0.21,-0.49 0.14,-0.14 0.3,-0.21 0.49,-0.21 0.19,0 0.35,0.07 0.49,0.21 0.14,0.14 0.21,0.3 0.21,0.49 0,0.19 -0.07,0.35 -0.21,0.49 -0.14,0.14 -0.3,0.21 -0.49,0.21 -0.19,0 -0.35,-0.07 -0.49,-0.21zm6.32 4.69c0,0.5 -0.18,0.89 -0.54,1.19 -0.36,0.3 -0.82,0.45 -1.38,0.45 -0.38,0 -0.77,-0.07 -1.18,-0.21 -0.41,-0.14 -0.77,-0.33 -1.08,-0.58l0.53 -0.85c0.61,0.46 1.2,0.69 1.76,0.69 0.25,0 0.44,-0.06 0.59,-0.17 0.14,-0.11 0.22,-0.26 0.22,-0.44 0,-0.26 -0.35,-0.5 -1.04,-0.7 -0.05,-0.02 -0.09,-0.03 -0.12,-0.04 -1.08,-0.29 -1.63,-0.78 -1.63,-1.47 0,-0.48 0.19,-0.87 0.56,-1.16 0.38,-0.29 0.86,-0.44 1.46,-0.44 0.6,0 1.17,0.18 1.7,0.53l-0.41 0.81c-0.42,-0.28 -0.89,-0.42 -1.38,-0.42 -0.26,0 -0.47,0.05 -0.64,0.14 -0.16,0.1 -0.24,0.24 -0.24,0.43 0,0.17 0.08,0.29 0.25,0.37 0.12,0.06 0.28,0.11 0.5,0.17 0.21,0.05 0.4,0.1 0.56,0.16 0.16,0.05 0.32,0.11 0.47,0.18 0.15,0.07 0.32,0.16 0.49,0.27 0.35,0.23 0.53,0.6 0.53,1.1zm8.77 -0.57l-4.08 0c0.03,0.38 0.2,0.68 0.52,0.92 0.32,0.23 0.69,0.35 1.1,0.35 0.65,0 1.15,-0.21 1.49,-0.62l0.63 0.69c-0.56,0.58 -1.29,0.87 -2.19,0.87 -0.73,0 -1.35,-0.24 -1.86,-0.73 -0.51,-0.49 -0.77,-1.14 -0.77,-1.96 0,-0.82 0.26,-1.47 0.78,-1.95 0.52,-0.48 1.14,-0.72 1.84,-0.72 0.71,0 1.31,0.21 1.81,0.64 0.5,0.43 0.74,1.02 0.74,1.77l0 0.75zm-4.08 -0.86l2.99 0c0,-0.44 -0.14,-0.77 -0.41,-1.01 -0.27,-0.23 -0.61,-0.35 -1.01,-0.35 -0.4,0 -0.76,0.12 -1.08,0.37 -0.32,0.24 -0.48,0.58 -0.48,0.99zm6.12 -2.22l1.12 1.71 1.16 -1.71 1.3 0 -1.82 2.55 1.9 2.66 -1.35 0 -1.24 -1.73 -1.21 1.73 -1.28 0 1.85 -2.65 -1.75 -2.56 1.34 0zm6.76 5.29c-0.66,0 -1.23,-0.25 -1.72,-0.75 -0.49,-0.5 -0.74,-1.15 -0.74,-1.96 0,-0.8 0.25,-1.45 0.74,-1.93 0.5,-0.48 1.09,-0.72 1.79,-0.72 0.7,0 1.26,0.33 1.69,0.99l0 -0.91 1.1 0 0 7.11 -1.1 0 0 -2.68c-0.52,0.57 -1.11,0.86 -1.77,0.86zm-1.37 -2.67c0,0.5 0.16,0.91 0.48,1.22 0.32,0.31 0.7,0.47 1.13,0.47 0.43,0 0.8,-0.16 1.1,-0.47 0.3,-0.32 0.45,-0.72 0.45,-1.22 0,-0.5 -0.15,-0.91 -0.45,-1.24 -0.3,-0.33 -0.67,-0.49 -1.11,-0.49 -0.44,0 -0.81,0.16 -1.13,0.49 -0.31,0.33 -0.47,0.74 -0.47,1.24zm9.46 0.2l0 -2.82 1.1 0 0 5.21 -1.1 0 0 -0.95c-0.18,0.32 -0.42,0.57 -0.73,0.75 -0.31,0.18 -0.64,0.27 -1,0.27 -0.59,0 -1.06,-0.18 -1.42,-0.54 -0.36,-0.36 -0.54,-0.88 -0.54,-1.56l0 -3.19 1.1 0 0 2.86c0,0.96 0.4,1.44 1.19,1.44 0.38,0 0.71,-0.13 0.99,-0.38 0.28,-0.25 0.42,-0.62 0.42,-1.1zm3.78 2.39l-1.1 0 0 -5.21 1.1 0 0 5.21zm-1.03 -6.25c-0.14,-0.14 -0.21,-0.3 -0.21,-0.49 0,-0.19 0.07,-0.35 0.21,-0.49 0.14,-0.14 0.3,-0.21 0.49,-0.21 0.19,0 0.35,0.07 0.49,0.21 0.14,0.14 0.21,0.3 0.21,0.49 0,0.19 -0.07,0.35 -0.21,0.49 -0.14,0.14 -0.3,0.21 -0.49,0.21 -0.19,0 -0.35,-0.07 -0.49,-0.21zm6.32 4.69c0,0.5 -0.18,0.89 -0.54,1.19 -0.36,0.3 -0.82,0.45 -1.38,0.45 -0.38,0 -0.77,-0.07 -1.18,-0.21 -0.41,-0.14 -0.77,-0.33 -1.08,-0.58l0.53 -0.85c0.61,0.46 1.19,0.69 1.76,0.69 0.25,0 0.44,-0.06 0.59,-0.17 0.14,-0.11 0.22,-0.26 0.22,-0.44 0,-0.26 -0.35,-0.5 -1.04,-0.7 -0.05,-0.02 -0.09,-0.03 -0.12,-0.04 -1.08,-0.29 -1.63,-0.78 -1.63,-1.47 0,-0.48 0.19,-0.87 0.56,-1.16 0.38,-0.29 0.86,-0.44 1.46,-0.44 0.6,0 1.17,0.18 1.7,0.53l-0.41 0.81c-0.42,-0.28 -0.88,-0.42 -1.38,-0.42 -0.26,0 -0.47,0.05 -0.64,0.14 -0.16,0.1 -0.24,0.24 -0.24,0.43 0,0.17 0.08,0.29 0.25,0.37 0.12,0.06 0.28,0.11 0.49,0.17 0.21,0.05 0.4,0.1 0.56,0.16 0.16,0.05 0.32,0.11 0.47,0.18 0.15,0.07 0.32,0.16 0.49,0.27 0.35,0.23 0.53,0.6 0.53,1.1zm2.34 1.56l-1.1 0 0 -5.21 1.1 0 0 5.21zm-1.03 -6.25c-0.14,-0.14 -0.21,-0.3 -0.21,-0.49 0,-0.19 0.07,-0.35 0.21,-0.49 0.14,-0.14 0.3,-0.21 0.49,-0.21 0.19,0 0.35,0.07 0.49,0.21 0.14,0.14 0.21,0.3 0.21,0.49 0,0.19 -0.07,0.35 -0.21,0.49 -0.14,0.14 -0.3,0.21 -0.49,0.21 -0.19,0 -0.35,-0.07 -0.49,-0.21zm3.96 1.92l0 2.64c0,0.25 0.07,0.45 0.2,0.59 0.13,0.15 0.31,0.22 0.55,0.22 0.24,0 0.46,-0.11 0.68,-0.34l0.45 0.77c-0.39,0.35 -0.81,0.52 -1.28,0.52 -0.47,0 -0.86,-0.16 -1.19,-0.49 -0.33,-0.32 -0.49,-0.76 -0.49,-1.31l0 -2.61 -0.66 0 0 -0.88 0.66 0 0 -1.63 1.1 0 0 1.63 1.37 0 0 0.88 -1.37 0zm7.59 2.2l-4.08 0c0.03,0.38 0.2,0.68 0.52,0.92 0.32,0.23 0.69,0.35 1.1,0.35 0.65,0 1.15,-0.21 1.49,-0.62l0.63 0.69c-0.56,0.58 -1.29,0.87 -2.19,0.87 -0.73,0 -1.35,-0.24 -1.86,-0.73 -0.51,-0.49 -0.77,-1.14 -0.77,-1.96 0,-0.82 0.26,-1.47 0.78,-1.95 0.52,-0.48 1.14,-0.72 1.84,-0.72 0.71,0 1.31,0.21 1.81,0.64 0.5,0.43 0.74,1.02 0.74,1.77l0 0.75zm-4.08 -0.86l2.99 0c0,-0.44 -0.14,-0.77 -0.41,-1.01 -0.27,-0.23 -0.61,-0.35 -1.01,-0.35 -0.4,0 -0.76,0.12 -1.08,0.37 -0.32,0.24 -0.48,0.58 -0.48,0.99z"/>
    </g>
   </g>
   <path fill="black" fill-rule="nonzero" d="M54.44 32.01l0 6.88 5.6 0c0.82,0 1.51,-0.28 2.09,-0.86 0.57,-0.57 0.86,-1.26 0.86,-2.06l0 -1.04c0,-0.8 -0.29,-1.49 -0.87,-2.07 -0.58,-0.57 -1.28,-0.86 -2.08,-0.86l-5.6 0zm0 -9.81l0 6.88 5.6 0c0.82,0 1.51,-0.28 2.09,-0.86 0.57,-0.57 0.86,-1.26 0.86,-2.07l0 -1.03c0,-0.79 -0.29,-1.48 -0.87,-2.06 -0.58,-0.58 -1.28,-0.87 -2.08,-0.87l-5.6 0zm-2.92 -2.92l8.52 0c1.6,0 2.98,0.58 4.14,1.73 1.16,1.15 1.74,2.53 1.74,4.11l0 1c0,0.86 -0.19,1.69 -0.55,2.5 -0.37,0.81 -0.86,1.45 -1.47,1.91 0.65,0.6 1.15,1.28 1.5,2.03 0.35,0.76 0.53,1.55 0.53,2.36l0 1c0,1.61 -0.58,2.98 -1.73,4.14 -1.15,1.15 -2.53,1.73 -4.14,1.73l-8.52 0 0 -22.53z"/>
   <path id="_1" fill="black" fill-rule="nonzero" d="M80.98 22.77c-0.13,-0.21 -0.24,-0.37 -0.35,-0.45 -0.11,-0.08 -0.25,-0.12 -0.42,-0.12 -0.16,0 -0.31,0.05 -0.46,0.15 -0.15,0.1 -0.26,0.23 -0.34,0.39l-3.14 6.18c-0.1,0.2 -0.19,0.45 -0.25,0.75 -0.06,0.3 -0.09,0.59 -0.09,0.86 0,0.3 0.03,0.59 0.09,0.89 0.06,0.3 0.15,0.54 0.25,0.75l3.17 6.16c0.12,0.21 0.23,0.36 0.34,0.45 0.11,0.08 0.25,0.12 0.42,0.12 0.16,0 0.31,-0.05 0.46,-0.15 0.15,-0.09 0.26,-0.23 0.34,-0.42l3.12 -6.14c0.1,-0.2 0.19,-0.46 0.25,-0.76 0.07,-0.3 0.1,-0.6 0.1,-0.89 0,-0.29 -0.04,-0.59 -0.1,-0.9 -0.06,-0.31 -0.15,-0.55 -0.25,-0.73l-3.16 -6.14zm2.78 -1.02l3.03 5.96c0.19,0.38 0.34,0.81 0.46,1.31 0.11,0.5 0.17,1.01 0.17,1.52 0,0.53 -0.06,1.05 -0.17,1.55 -0.12,0.5 -0.27,0.93 -0.46,1.31l-3.03 5.96c-0.47,0.89 -0.98,1.53 -1.52,1.9 -0.55,0.38 -1.22,0.56 -2.02,0.56 -0.82,0 -1.49,-0.19 -2.03,-0.56 -0.55,-0.37 -1.05,-1.01 -1.51,-1.9l-3.03 -5.96c-0.2,-0.4 -0.36,-0.84 -0.46,-1.33 -0.11,-0.49 -0.16,-1 -0.16,-1.52 0,-0.52 0.05,-1.03 0.16,-1.52 0.1,-0.5 0.26,-0.93 0.46,-1.31l3.03 -5.96c0.46,-0.89 0.97,-1.53 1.51,-1.9 0.54,-0.38 1.22,-0.56 2.03,-0.56 0.81,0 1.48,0.19 2.02,0.56 0.54,0.37 1.05,1.01 1.52,1.9z"/>
   <path id="_2" fill="black" fill-rule="nonzero" d="M97.43 32.01l0 6.88 5.6 0c0.82,0 1.51,-0.28 2.09,-0.86 0.57,-0.57 0.86,-1.26 0.86,-2.06l0 -1.04c0,-0.8 -0.29,-1.49 -0.87,-2.07 -0.58,-0.57 -1.28,-0.86 -2.08,-0.86l-5.6 0zm0 -9.81l0 6.88 5.6 0c0.82,0 1.51,-0.28 2.09,-0.86 0.57,-0.57 0.86,-1.26 0.86,-2.07l0 -1.03c0,-0.79 -0.29,-1.48 -0.87,-2.06 -0.58,-0.58 -1.28,-0.87 -2.08,-0.87l-5.6 0zm-2.92 -2.92l8.52 0c1.6,0 2.98,0.58 4.14,1.73 1.16,1.15 1.74,2.53 1.74,4.11l0 1c0,0.86 -0.19,1.69 -0.55,2.5 -0.37,0.81 -0.86,1.45 -1.47,1.91 0.65,0.6 1.15,1.28 1.5,2.03 0.35,0.76 0.53,1.55 0.53,2.36l0 1c0,1.61 -0.58,2.98 -1.73,4.14 -1.15,1.15 -2.53,1.73 -4.14,1.73l-8.52 0 0 -22.53z"/>
   <path id="_3" fill="black" fill-rule="nonzero" d="M123.97 22.77c-0.13,-0.21 -0.24,-0.37 -0.35,-0.45 -0.11,-0.08 -0.25,-0.12 -0.42,-0.12 -0.16,0 -0.31,0.05 -0.46,0.15 -0.15,0.1 -0.26,0.23 -0.34,0.39l-3.14 6.18c-0.1,0.2 -0.19,0.45 -0.25,0.75 -0.06,0.3 -0.09,0.59 -0.09,0.86 0,0.3 0.03,0.59 0.09,0.89 0.06,0.3 0.15,0.54 0.25,0.75l3.17 6.16c0.12,0.21 0.23,0.36 0.34,0.45 0.11,0.08 0.25,0.12 0.42,0.12 0.16,0 0.31,-0.05 0.46,-0.15 0.15,-0.09 0.26,-0.23 0.34,-0.42l3.12 -6.14c0.1,-0.2 0.19,-0.46 0.25,-0.76 0.07,-0.3 0.1,-0.6 0.1,-0.89 0,-0.29 -0.04,-0.59 -0.1,-0.9 -0.06,-0.31 -0.15,-0.55 -0.25,-0.73l-3.16 -6.14zm2.78 -1.02l3.03 5.96c0.19,0.38 0.34,0.81 0.46,1.31 0.11,0.5 0.17,1.01 0.17,1.52 0,0.53 -0.06,1.05 -0.17,1.55 -0.12,0.5 -0.27,0.93 -0.46,1.31l-3.03 5.96c-0.47,0.89 -0.98,1.53 -1.52,1.9 -0.55,0.38 -1.22,0.56 -2.02,0.56 -0.82,0 -1.49,-0.19 -2.03,-0.56 -0.55,-0.37 -1.05,-1.01 -1.51,-1.9l-3.03 -5.96c-0.2,-0.4 -0.36,-0.84 -0.46,-1.33 -0.11,-0.49 -0.16,-1 -0.16,-1.52 0,-0.52 0.05,-1.03 0.16,-1.52 0.1,-0.5 0.26,-0.93 0.46,-1.31l3.03 -5.96c0.46,-0.89 0.97,-1.53 1.51,-1.9 0.54,-0.38 1.22,-0.56 2.03,-0.56 0.81,0 1.48,0.19 2.02,0.56 0.54,0.37 1.05,1.01 1.52,1.9z"/>
   <path id="_4" fill="black" fill-rule="nonzero" d="M140.42 20.91l0 17.98 9.85 0c0.49,0 0.88,0.13 1.18,0.41 0.3,0.27 0.45,0.63 0.45,1.06 0,0.43 -0.15,0.78 -0.46,1.06 -0.31,0.27 -0.7,0.41 -1.17,0.41l-12.77 0 0 -20.9c0,-0.5 0.13,-0.89 0.4,-1.19 0.27,-0.3 0.62,-0.44 1.06,-0.44 0.42,0 0.76,0.15 1.04,0.46 0.28,0.31 0.42,0.7 0.42,1.17z"/>
   <path id="_5" fill="black" fill-rule="nonzero" d="M166.2 25.96l-2.36 8.03 4.68 0 -2.32 -8.03zm1.56 -5.05l5.5 18.9c0.04,0.1 0.06,0.2 0.08,0.3 0.02,0.1 0.02,0.19 0.02,0.27 0,0.39 -0.14,0.73 -0.42,1.01 -0.28,0.28 -0.62,0.42 -1,0.42 -0.34,0 -0.64,-0.11 -0.91,-0.33 -0.27,-0.22 -0.45,-0.52 -0.55,-0.87l-1.08 -3.7 -6.37 0 -1.1 3.68c-0.14,0.42 -0.32,0.73 -0.57,0.93 -0.24,0.2 -0.55,0.3 -0.93,0.3 -0.37,0 -0.7,-0.14 -0.97,-0.42 -0.28,-0.28 -0.42,-0.6 -0.42,-0.97 0,-0.17 0.01,-0.3 0.02,-0.38 0.01,-0.09 0.03,-0.17 0.05,-0.24l5.5 -18.89c0.17,-0.61 0.38,-1.03 0.62,-1.27 0.24,-0.24 0.57,-0.36 0.97,-0.36 0.39,0 0.71,0.12 0.95,0.34 0.24,0.23 0.44,0.66 0.61,1.29z"/>
   <path id="_6" fill="black" fill-rule="nonzero" d="M186.27 19.28l2.5 0c0.59,0 1.03,0.12 1.33,0.37 0.3,0.25 0.45,0.61 0.45,1.09 0,0.08 -0.01,0.16 -0.02,0.25 -0.01,0.08 -0.03,0.17 -0.05,0.28l-2.71 9.5c-0.13,0.39 -0.32,0.7 -0.58,0.92 -0.26,0.21 -0.57,0.32 -0.92,0.32 -0.43,0 -0.78,-0.15 -1.06,-0.46 -0.27,-0.31 -0.41,-0.7 -0.41,-1.17l0 -9.47c0,-0.5 0.13,-0.89 0.4,-1.19 0.27,-0.3 0.62,-0.44 1.06,-0.44z"/>
   <path id="_7" fill="black" fill-rule="nonzero" d="M205.25 19.28l7.19 0c1.05,0 1.98,0.38 2.76,1.15 0.79,0.76 1.18,1.63 1.18,2.61 0,0.49 -0.13,0.88 -0.41,1.18 -0.27,0.3 -0.63,0.45 -1.06,0.45 -0.42,0 -0.74,-0.11 -0.97,-0.33 -0.23,-0.22 -0.41,-0.69 -0.56,-1.41 -0.03,-0.18 -0.15,-0.35 -0.34,-0.5 -0.19,-0.16 -0.4,-0.23 -0.61,-0.23l-7.19 0c-0.08,0 -0.16,0.03 -0.23,0.11 -0.08,0.08 -0.11,0.15 -0.11,0.23 0,0.04 0.01,0.07 0.02,0.11 0.02,0.04 0.05,0.09 0.08,0.15l10.47 13.44c0.3,0.41 0.53,0.8 0.68,1.17 0.14,0.38 0.22,0.75 0.22,1.14 0,0.89 -0.32,1.66 -0.96,2.3 -0.64,0.64 -1.41,0.96 -2.31,0.96l-7.2 0c-1.04,0 -1.96,-0.39 -2.74,-1.16 -0.79,-0.77 -1.18,-1.63 -1.18,-2.6 0,-0.49 0.13,-0.88 0.41,-1.18 0.27,-0.3 0.63,-0.45 1.05,-0.45 0.41,0 0.72,0.11 0.95,0.33 0.23,0.22 0.42,0.69 0.58,1.41 0.04,0.18 0.15,0.35 0.34,0.5 0.19,0.16 0.39,0.23 0.6,0.23l7.2 0c0.1,0 0.19,-0.04 0.25,-0.1 0.07,-0.06 0.1,-0.14 0.1,-0.24 0,-0.04 -0.01,-0.07 -0.02,-0.11 -0.02,-0.04 -0.05,-0.09 -0.08,-0.14l-10.47 -13.44c-0.3,-0.41 -0.53,-0.8 -0.68,-1.17 -0.15,-0.38 -0.22,-0.75 -0.22,-1.14 0,-0.89 0.32,-1.66 0.96,-2.3 0.64,-0.64 1.4,-0.96 2.3,-0.96z"/>
   <path fill="#ED2F59" fill-rule="nonzero" d="M102.18 49.12l0 5.23 7.22 -6.18c0.15,-0.14 0.29,-0.23 0.42,-0.29 0.14,-0.06 0.29,-0.08 0.45,-0.08 0.32,0 0.6,0.11 0.83,0.34 0.23,0.22 0.35,0.49 0.35,0.79 0,0.19 -0.04,0.38 -0.13,0.55 -0.08,0.18 -0.21,0.33 -0.37,0.47l-8.15 6.96 8.15 6.97c0.15,0.15 0.28,0.31 0.37,0.49 0.09,0.18 0.14,0.36 0.14,0.53 0,0.3 -0.12,0.56 -0.35,0.79 -0.23,0.22 -0.51,0.34 -0.83,0.34 -0.16,0 -0.31,-0.03 -0.45,-0.08 -0.14,-0.05 -0.28,-0.15 -0.42,-0.29l-7.22 -6.18 0 5.23c0,0.39 -0.11,0.71 -0.33,0.95 -0.22,0.24 -0.51,0.37 -0.85,0.37 -0.35,0 -0.63,-0.12 -0.85,-0.37 -0.22,-0.25 -0.33,-0.56 -0.33,-0.95l0 -15.58c0,-0.4 0.11,-0.72 0.32,-0.96 0.22,-0.24 0.5,-0.36 0.86,-0.36 0.34,0 0.62,0.12 0.84,0.37 0.22,0.25 0.34,0.56 0.34,0.95z"/>
   <path id="_1_0" fill="#ED2F59" fill-rule="nonzero" d="M127.51 47.8c0.39,0 0.71,0.11 0.95,0.33 0.24,0.22 0.37,0.51 0.37,0.85 0,0.34 -0.12,0.62 -0.37,0.84 -0.25,0.22 -0.56,0.34 -0.95,0.34l-3.32 0 0 13.49 3.32 0c0.39,0 0.71,0.11 0.95,0.33 0.24,0.22 0.37,0.51 0.37,0.85 0,0.35 -0.12,0.63 -0.37,0.85 -0.25,0.22 -0.56,0.33 -0.95,0.33l-9 0c-0.39,0 -0.71,-0.11 -0.95,-0.33 -0.24,-0.22 -0.37,-0.51 -0.37,-0.85 0,-0.35 0.12,-0.63 0.37,-0.85 0.25,-0.22 0.56,-0.33 0.95,-0.33l3.32 0 0 -13.49 -3.32 0c-0.39,0 -0.71,-0.11 -0.95,-0.33 -0.24,-0.22 -0.37,-0.51 -0.37,-0.85 0,-0.35 0.12,-0.63 0.37,-0.85 0.25,-0.22 0.56,-0.33 0.95,-0.33l9 0z"/>
   <path id="_2_1" fill="#ED2F59" fill-rule="nonzero" d="M134.57 47.8l11.64 0 0 3.03c0,0.39 -0.11,0.71 -0.33,0.96 -0.22,0.24 -0.51,0.37 -0.85,0.37 -0.35,0 -0.63,-0.12 -0.85,-0.37 -0.22,-0.25 -0.33,-0.57 -0.33,-0.95l0 -0.67 -2.28 0 0 14.53c0,0.39 -0.11,0.71 -0.33,0.95 -0.22,0.24 -0.51,0.37 -0.85,0.37 -0.35,0 -0.63,-0.12 -0.85,-0.37 -0.22,-0.25 -0.33,-0.56 -0.33,-0.95l0 -14.53 -2.28 0 0 0.67c0,0.39 -0.11,0.71 -0.33,0.96 -0.22,0.24 -0.51,0.37 -0.85,0.37 -0.35,0 -0.63,-0.12 -0.85,-0.37 -0.22,-0.25 -0.33,-0.57 -0.33,-0.95l0 -3.03z"/>
   <path id="_3_2" fill="#ED2F59" fill-rule="nonzero" d="M158.09 66.01c-0.74,0 -1.37,-0.18 -1.9,-0.53 -0.53,-0.36 -1,-0.92 -1.38,-1.69l-2.44 -4.86c-0.15,-0.28 -0.25,-0.59 -0.32,-0.92 -0.07,-0.33 -0.1,-0.69 -0.1,-1.07 0,-0.4 0.03,-0.78 0.1,-1.12 0.07,-0.35 0.18,-0.66 0.32,-0.93l2.44 -4.86c0.37,-0.76 0.82,-1.32 1.36,-1.68 0.54,-0.36 1.18,-0.54 1.93,-0.54l4.17 0c0.39,0 0.71,0.11 0.95,0.33 0.24,0.22 0.37,0.51 0.37,0.85 0,0.34 -0.12,0.62 -0.37,0.84 -0.25,0.22 -0.56,0.34 -0.95,0.34l-4.17 0c-0.23,0 -0.45,0.07 -0.65,0.19 -0.2,0.13 -0.36,0.3 -0.48,0.53l-2.41 4.9c-0.07,0.16 -0.13,0.34 -0.16,0.53 -0.04,0.18 -0.06,0.38 -0.06,0.59 0,0.22 0.02,0.42 0.06,0.6 0.04,0.18 0.09,0.36 0.16,0.52l2.41 4.87c0.12,0.23 0.28,0.41 0.48,0.55 0.2,0.14 0.42,0.21 0.65,0.21l4.17 0c0.39,0 0.71,0.11 0.95,0.33 0.24,0.22 0.37,0.51 0.37,0.85 0,0.35 -0.12,0.63 -0.37,0.85 -0.25,0.22 -0.56,0.33 -0.95,0.33l-4.17 0z"/>
   <path id="_4_3" fill="#ED2F59" fill-rule="nonzero" d="M171.67 49.12l0 6.6 6.91 0 0 -6.6c0,-0.4 0.11,-0.73 0.32,-0.96 0.22,-0.24 0.5,-0.36 0.86,-0.36 0.34,0 0.62,0.12 0.84,0.37 0.22,0.25 0.34,0.56 0.34,0.95l0 15.57c0,0.39 -0.11,0.71 -0.33,0.95 -0.22,0.24 -0.51,0.37 -0.85,0.37 -0.35,0 -0.63,-0.12 -0.85,-0.37 -0.22,-0.25 -0.33,-0.56 -0.33,-0.95l0 -6.61 -6.91 0 0 6.61c0,0.39 -0.11,0.71 -0.33,0.95 -0.22,0.24 -0.51,0.37 -0.85,0.37 -0.35,0 -0.63,-0.12 -0.85,-0.37 -0.22,-0.25 -0.33,-0.56 -0.33,-0.95l0 -15.57c0,-0.4 0.11,-0.73 0.32,-0.96 0.22,-0.24 0.5,-0.36 0.86,-0.36 0.34,0 0.62,0.12 0.84,0.37 0.22,0.25 0.34,0.56 0.34,0.95z"/>
   <path id="_5_4" fill="#ED2F59" fill-rule="nonzero" d="M186.69 47.8l10.32 0c0.39,0 0.71,0.11 0.95,0.33 0.24,0.22 0.37,0.51 0.37,0.85 0,0.34 -0.12,0.62 -0.37,0.84 -0.25,0.22 -0.56,0.34 -0.95,0.34l-7.96 0 0 5.56 3.35 0c0.38,0 0.69,0.11 0.93,0.33 0.24,0.22 0.36,0.51 0.36,0.85 0,0.35 -0.12,0.63 -0.36,0.85 -0.24,0.22 -0.55,0.33 -0.93,0.33l-3.35 0 0 5.56 7.96 0c0.39,0 0.71,0.11 0.95,0.33 0.24,0.22 0.37,0.51 0.37,0.85 0,0.35 -0.12,0.63 -0.37,0.85 -0.25,0.22 -0.56,0.33 -0.95,0.33l-10.32 0 0 -18.21z"/>
   <path id="_6_5" fill="#ED2F59" fill-rule="nonzero" d="M204.06 47.8l3.11 0 6.16 14.02 0 -12.71c0,-0.4 0.11,-0.72 0.32,-0.96 0.22,-0.24 0.5,-0.36 0.86,-0.36 0.34,0 0.62,0.12 0.84,0.37 0.22,0.25 0.34,0.56 0.34,0.95l0 16.9 -3.13 0 -6.15 -13.97 0 12.66c0,0.39 -0.11,0.71 -0.33,0.95 -0.22,0.24 -0.51,0.37 -0.85,0.37 -0.35,0 -0.63,-0.12 -0.85,-0.37 -0.22,-0.25 -0.33,-0.56 -0.33,-0.95l0 -16.9z"/>
   <path fill="#ED2F59" d="M42.36 19.91l0.32 -0.16c-2.92,-3.09 -1.04,-3.7 -0.32,-6.26 0.32,-1.12 0.12,-1.98 1.04,-3.06 1.15,-1.34 2.38,-1.15 3.55,-1.98 1.31,-0.92 1.37,-1.84 3.43,-2.22 1.21,-0.22 2.13,0.45 3.15,0.57 3.04,0.38 4,-0.15 5.24,3.44l0.21 -0.19 -0.77 -2.4c-1.18,-1.34 -2,-1.76 -3.75,-1.77 -1.47,-0.01 -0.72,0.09 -2.03,-0.33 -1.23,-0.38 -1.19,-0.41 -2.37,-0.18 -1.24,-0.41 -3.01,1.56 -4.23,2.23 -1.77,0.98 -3.14,1.23 -3.99,3.39 -0.42,1.08 -0.08,1.28 -0.39,2.27 -0.34,1.1 -2.61,4.46 0.9,6.63z"/>
   <polygon fill="#201E1E" fill-rule="nonzero" points="23.35,85.69 24.42,85.69 24.78,83.98 23.71,83.98 "/>
   <polygon id="_1_6" fill="#201E1E" fill-rule="nonzero" points="30.3,85.69 31.37,85.69 31.73,83.98 30.66,83.98 "/>
   <polygon id="_2_7" fill="#201E1E" fill-rule="nonzero" points="37.25,85.69 38.32,85.69 38.68,83.98 37.61,83.98 "/>
   <polygon id="_3_8" fill="#201E1E" fill-rule="nonzero" points="48.05,77.81 46.44,83.62 46.42,83.62 46.16,79.55 45.93,79.55 43.94,83.62 43.91,83.62 44.78,77.81 43.97,77.96 43.07,85.84 43.4,85.84 45.69,81.17 45.71,81.17 46,85.84 46.33,85.84 48.79,77.96 "/>
   <polygon id="_4_9" fill="#201E1E" fill-rule="nonzero" points="50.03,85.69 53.8,85.69 53.95,85 50.96,85 51.62,81.9 54.08,81.9 54.22,81.21 51.76,81.21 52.3,78.66 55.29,78.66 55.44,77.96 51.67,77.96 "/>
   <path id="_5_10" fill="#201E1E" fill-rule="nonzero" d="M68.48 81.68l-2.22 0 -0.15 0.7 1.45 0 -0.5 2.33c-0.31,0.22 -0.76,0.36 -1.09,0.36 -0.76,0 -1.42,-0.54 -0.86,-3.2 0.2,-0.92 0.81,-3.28 2.1,-3.28 0.61,0 0.93,0.43 1.1,0.93l0.78 -0.42c-0.28,-0.71 -0.8,-1.24 -1.67,-1.24 -1.92,0 -2.79,2.54 -3.1,3.98 -0.32,1.54 -0.5,3.95 1.49,3.95 0.65,0 1.36,-0.27 1.94,-0.67l0.74 -3.44z"/>
   <polygon id="_6_11" fill="#201E1E" fill-rule="nonzero" points="72.3,85 71.25,85 71.1,85.69 73.98,85.69 74.13,85 73.07,85 74.42,78.66 75.47,78.66 75.62,77.96 72.75,77.96 72.6,78.66 73.64,78.66 "/>
   <polygon id="_7_12" fill="#201E1E" fill-rule="nonzero" points="79.94,83.6 79.92,83.6 79.57,77.81 78.75,77.98 79.36,85.84 79.55,85.84 83.52,77.96 82.77,77.81 "/>
   <polygon id="_8" fill="#201E1E" fill-rule="nonzero" points="84.78,85.69 88.55,85.69 88.7,85 85.71,85 86.37,81.9 88.84,81.9 88.98,81.21 86.51,81.21 87.05,78.66 90.04,78.66 90.19,77.96 86.43,77.96 "/>
   <polygon id="_9" fill="#201E1E" fill-rule="nonzero" points="99.97,85.69 100.75,85.69 102.24,78.66 103.87,78.66 104.03,77.96 99.95,77.96 99.8,78.66 101.47,78.66 "/>
   <polygon id="_10" fill="#201E1E" fill-rule="nonzero" points="105.32,85.69 106.1,85.69 106.91,81.9 109.3,81.9 108.49,85.69 109.26,85.69 110.91,77.96 110.13,77.96 109.44,81.21 107.05,81.21 107.74,77.96 106.97,77.96 "/>
   <polygon id="_11" fill="#201E1E" fill-rule="nonzero" points="112.59,85.69 116.35,85.69 116.5,85 113.51,85 114.17,81.9 116.64,81.9 116.78,81.21 114.31,81.21 114.86,78.66 117.85,78.66 118,77.96 114.23,77.96 "/>
   <path id="_12" fill="#201E1E" fill-rule="nonzero" d="M127.63 85l0.67 -3.16 0.85 0c0.81,0 1.3,0.38 1.05,1.53 -0.24,1.12 -0.82,1.63 -1.52,1.63l-1.05 0zm0.82 -3.86l0.52 -2.48 0.45 0c0.94,0 1.34,0.3 1.15,1.25 -0.17,0.81 -0.63,1.23 -1.42,1.23l-0.7 0zm0.12 4.55c1.07,0 2.1,-0.71 2.44,-2.32 0.2,-0.93 0.02,-1.59 -0.76,-1.97 0.63,-0.31 1,-0.86 1.13,-1.49 0.27,-1.24 -0.45,-1.95 -1.3,-1.95l-2.36 0 -0.15 0.7 0.63 0 -1.34 6.34 -0.63 0 -0.15 0.7 2.49 0z"/>
   <polygon id="_13" fill="#201E1E" fill-rule="nonzero" points="133.44,85.69 137.2,85.69 137.35,85 134.37,85 135.03,81.9 137.49,81.9 137.63,81.21 135.16,81.21 135.71,78.66 138.7,78.66 138.85,77.96 135.08,77.96 "/>
   <path id="_14" fill="#201E1E" fill-rule="nonzero" d="M143.67 83.69c-0.2,0.93 -0.78,1.38 -1.45,1.38 -0.94,0 -0.98,-0.65 -0.9,-1.51l-0.8 0.1c-0.14,1.23 0.16,2.13 1.53,2.13 1.3,0 2.15,-0.96 2.41,-2.18 0.25,-1.19 -0.3,-1.67 -1.12,-2.24 -1.07,-0.73 -1.14,-0.93 -1.01,-1.55 0.14,-0.65 0.54,-1.24 1.27,-1.24 0.66,0 0.82,0.57 0.82,1.13l0.79 -0.12c0,-0.97 -0.36,-1.75 -1.45,-1.75 -1.1,0 -1.99,0.93 -2.21,1.97 -0.24,1.13 0.27,1.51 1.04,2.03 0.71,0.46 1.29,0.81 1.08,1.83z"/>
   <polygon id="_15" fill="#201E1E" fill-rule="nonzero" points="148.63,85.69 149.4,85.69 150.9,78.66 152.53,78.66 152.68,77.96 148.6,77.96 148.45,78.66 150.12,78.66 "/>
   <path fill="none" stroke="#ED2F59" stroke-width="0.3" stroke-linecap="round" stroke-linejoin="round" stroke-miterlimit="2.61313" d="M43.47 18.42c2.18,0.36 4.22,8.95 5.94,6.24 0.18,-0.29 1.18,-0.84 1.26,-1.06"/>
   <path fill="none" stroke="#ED2F59" stroke-width="0.3" stroke-linecap="round" stroke-linejoin="round" stroke-miterlimit="2.61313" d="M57.36 9.64c-0.56,2.14 6.44,7.51 3.27,7.97 -0.34,0.05 -1.25,0.74 -1.48,0.72"/>
  </g>
 </g>
</svg>
