<?xml version="1.0" encoding="UTF-8"?>
<!DOCTYPE svg PUBLIC "-//W3C//DTD SVG 1.1//EN" "http://www.w3.org/Graphics/SVG/1.1/DTD/svg11.dtd">
<!-- Creator: CorelDRAW 2021 (64-Bit) -->
<svg xmlns="http://www.w3.org/2000/svg" xml:space="preserve" width="0.0777047in" height="0.0779921in" version="1.1" shape-rendering="geometricPrecision" text-rendering="geometricPrecision" image-rendering="optimizeQuality" fill-rule="evenodd" clip-rule="evenodd"
viewBox="0 0 5.55 5.57"
 xmlns:xlink="http://www.w3.org/1999/xlink"
 xmlns:xodm="http://www.corel.com/coreldraw/odm/2003">
 <g id="Layer_x0020_1">
  <metadata id="CorelCorpID_0Corel-Layer"/>
  <g id="_2116480651744">
   <path fill="#FBFBFB" d="M-0 5.57c0.09,-0.01 1.04,-0.27 1.17,-0.3 0.41,-0.1 0.2,-0.09 0.54,0.05 0.18,0.07 0.36,0.13 0.57,0.17 0.92,0.17 1.75,-0.16 2.27,-0.6 0.48,-0.41 0.92,-1.03 0.99,-1.97 0.06,-0.83 -0.29,-1.57 -0.82,-2.12 -0.19,-0.19 -0.55,-0.46 -0.89,-0.59 -0.42,-0.16 -0.75,-0.22 -1.25,-0.2 -0.82,0.04 -1.56,0.53 -1.94,1.01 -0.68,0.87 -0.84,1.94 -0.31,3.02 0.07,0.15 0.05,0.09 -0.02,0.36 -0.05,0.2 -0.1,0.38 -0.16,0.58 -0.03,0.09 -0.05,0.19 -0.08,0.29 -0.03,0.1 -0.06,0.21 -0.08,0.3z"/>
   <path fill="#4AC95A" d="M0.62 2c0.02,-0 0.04,0.01 0.05,-0.07 -0,0 0,0 0,0 0,0.01 -0.01,0.01 0.02,0.01 0,-0 0.01,-0 0.01,-0.01 0.07,-0.04 -0.05,0.03 0.02,-0.02 -0.02,0.01 -0.01,-0.02 -0.01,0.03l0.44 -0c0.09,-0 0.06,-0 0.11,0.02 0,0 0.01,0 0.01,0l0.01 -0.11c0.03,0 0.01,-0.01 0.03,0.03l0.01 0.02c0,0 0.02,-0 0.03,-0 0,0 0,0 0.01,0l0.02 0.01c-0,-0.04 0.01,-0.04 -0.01,-0.06l0.02 0c-0.02,0.03 -0.02,0.12 -0.01,0.16l0.01 -0.01c0,-0 0,-0.01 0,-0.01l0.01 -0.05c0.04,-0.16 0.11,-0.27 0.23,-0.39 0.08,-0.08 0.14,-0.08 0.27,-0.08 0.14,0 0.16,0.05 0.21,0.16l0.21 0.51c0.02,0.12 -0.12,0.26 -0.19,0.33 -0.04,0.04 -0.05,0.08 -0.01,0.14 0.2,0.35 0.55,0.67 0.95,0.82 0.06,0.02 0.1,0.02 0.13,-0.02l0.16 -0.2c0.01,-0.01 0.06,-0.09 0.08,-0.1 0.08,-0.07 0.21,0.03 0.28,0.05 -0,-0.04 -0.01,-0.03 -0.03,-0.05 -0.03,-0.02 -0.03,0 -0.06,-0.04l0.08 0.01c0,-0 0,-0 0.01,-0 0.03,-0.01 0.01,-0.03 0.14,-0.01l0.42 -0c0.23,0 0.47,0 0.71,-0l0 0.11c0.03,-0.04 0.02,-0.07 0.03,-0.14 0,-0.01 0,-0.02 0.01,-0.03 0.01,-0.02 -0,-0.01 0.01,-0.03 0.04,0.05 0,0.07 0.02,0.13 0.02,-0.03 0.02,-0.08 0.03,-0.11 0.06,-0.57 -0.09,-1.14 -0.42,-1.59 -0.53,-0.71 -1.34,-1.07 -2.25,-0.92 -0.69,0.11 -1.24,0.53 -1.6,1.11 -0.05,0.08 -0.15,0.29 -0.17,0.38z"/>
   <path fill="#32BB47" d="M0.62 2c-0.08,0.15 -0.13,0.59 -0.13,0.77 0,0.29 0.05,0.55 0.14,0.78 0.04,0.12 0.08,0.2 0.14,0.31 0.13,0.23 0.13,0.15 0.09,0.32 -0.06,0.24 -0.13,0.49 -0.2,0.72 0.06,0.01 0.58,-0.14 0.68,-0.17 0.3,-0.08 0.14,-0.02 0.61,0.17 0.86,0.34 1.93,0.09 2.53,-0.61 0.15,-0.17 0.24,-0.31 0.35,-0.51 0.06,-0.12 0.22,-0.53 0.2,-0.66 -0.01,-0.06 0.02,-0.09 -0.02,-0.13 -0.01,0.02 -0,0 -0.01,0.03 -0,0.01 -0,0.02 -0.01,0.03 -0.01,0.07 0,0.1 -0.03,0.14l-0 -0.11c-0.23,0 -0.47,0 -0.71,0l-0.42 0c-0.12,-0.01 -0.11,0.01 -0.14,0.01 -0,0 -0,0 -0.01,0l-0.08 -0.01c0.03,0.04 0.02,0.02 0.06,0.04 0.03,0.02 0.03,0.01 0.03,0.05l0.39 0.19c0.05,0.03 0.08,0.04 0.08,0.11 0.01,0.25 -0.08,0.38 -0.28,0.5 -0.19,0.12 -0.39,0.13 -0.64,0.07 -0.63,-0.16 -1,-0.43 -1.41,-0.93 -0.11,-0.13 -0.24,-0.32 -0.32,-0.46 -0.18,-0.32 -0.12,-0.42 -0.15,-0.64 -0.01,-0.05 -0.01,-0.13 0.01,-0.16l-0.02 0c0.02,0.02 0.01,0.02 0.01,0.06l-0.02 -0.01c-0,-0 -0,-0 -0.01,-0 -0,-0 -0.02,0 -0.03,0l-0.01 -0.02c-0.02,-0.04 0.01,-0.02 -0.03,-0.03l-0.01 0.11c-0,-0 -0.01,-0 -0.01,-0 -0.05,-0.02 -0.03,-0.02 -0.11,-0.02l-0.44 0c0,-0.05 -0.01,-0.02 0.01,-0.03 -0.07,0.04 0.05,-0.02 -0.02,0.02 -0,0 -0.01,0.01 -0.01,0.01 -0.02,0.01 -0.01,0 -0.02,-0.01 -0,-0 -0,-0 -0,-0 -0,0.08 -0.03,0.07 -0.05,0.07z"/>
   <path fill="#FBFBFB" d="M1.38 2.02c0.03,0.21 -0.03,0.32 0.15,0.64 0.08,0.14 0.21,0.33 0.32,0.46 0.41,0.5 0.79,0.77 1.41,0.93 0.26,0.07 0.46,0.05 0.64,-0.07 0.19,-0.12 0.28,-0.26 0.28,-0.5 -0,-0.07 -0.03,-0.08 -0.08,-0.11l-0.39 -0.19c-0.07,-0.02 -0.2,-0.12 -0.28,-0.05 -0.01,0.01 -0.07,0.09 -0.08,0.1l-0.16 0.2c-0.04,0.04 -0.07,0.05 -0.13,0.02 -0.4,-0.15 -0.76,-0.47 -0.95,-0.82 -0.03,-0.06 -0.03,-0.1 0.01,-0.14 0.07,-0.07 0.21,-0.21 0.19,-0.33l-0.21 -0.51c-0.05,-0.11 -0.06,-0.15 -0.21,-0.16 -0.13,-0 -0.2,0 -0.27,0.08 -0.12,0.12 -0.19,0.23 -0.23,0.39l-0.01 0.05c-0,0 -0,0.01 -0,0.01l-0.01 0.01z"/>
  </g>
 </g>
</svg>
