<?xml version="1.0" encoding="UTF-8"?>
<!DOCTYPE svg PUBLIC "-//W3C//DTD SVG 1.1//EN" "http://www.w3.org/Graphics/SVG/1.1/DTD/svg11.dtd">
<!-- Creator: CorelDRAW 2021 (64-Bit) -->
<svg xmlns="http://www.w3.org/2000/svg" xml:space="preserve" width="0.0910039in" height="0.091in" version="1.1" shape-rendering="geometricPrecision" text-rendering="geometricPrecision" image-rendering="optimizeQuality" fill-rule="evenodd" clip-rule="evenodd"
viewBox="0 0 4.55 4.55"
 xmlns:xlink="http://www.w3.org/1999/xlink"
 xmlns:xodm="http://www.corel.com/coreldraw/odm/2003">
 <g id="Layer_x0020_1">
  <metadata id="CorelCorpID_0Corel-Layer"/>
  <g id="_2116492244208">
   <path fill="white" d="M1.15 0.53c-0.05,0.03 -0.11,0.05 -0.17,0.08 -0.06,0.04 -0.1,0.07 -0.15,0.11 -0.05,0.04 -0.07,0.06 -0.11,0.11 -0.02,0.02 -0.03,0.03 -0.05,0.06 -0.02,0.03 -0.02,0.04 -0.04,0.06 -0.05,0.06 -0.09,0.16 -0.11,0.23 -0,0.01 -0.01,0.03 -0.01,0.04 -0,0.01 -0.01,0.01 -0.01,0.02l-0.01 0.02 -0.02 0.22 0 1.72c0.01,0.14 0.04,0.25 0.09,0.36 0.11,0.25 0.29,0.41 0.52,0.52l0.04 0.03c0.04,0 0.13,0.03 0.19,0.04 0.07,0.01 0.14,0.01 0.22,0.02l0.18 0 0.43 0 0.34 -0 0.69 -0 0.22 -0.03c0.03,-0.02 0.17,-0.06 0.3,-0.15 0.05,-0.04 0.1,-0.08 0.14,-0.12 0.05,-0.04 0.07,-0.09 0.12,-0.14 0.03,-0.05 0.06,-0.09 0.08,-0.15 0.02,-0.03 0.05,-0.13 0.06,-0.15 0.05,-0.24 0.05,-0.4 0.04,-0.66 -0,-0.28 -0,-0.55 -0,-0.83 0,-0.24 0.02,-0.54 -0.05,-0.76 -0.14,-0.41 -0.48,-0.67 -0.92,-0.71l-1.75 0c-0.11,0.01 -0.17,0.03 -0.27,0.05z"/>
   <path fill="white" d="M1.91 1.54c-0.02,0.02 -0.15,0.09 -0.17,0.1 -0.01,0.03 -0.08,0.07 -0.1,0.09l-0.08 0.09c-0,0 -0.01,0.01 -0.01,0.01 -0,-0 -0,0 -0.01,0.01 -0.01,0.03 -0.03,0.06 -0.05,0.09 -0.02,0.03 -0.03,0.07 -0.05,0.09 -0.05,0.13 -0.06,0.18 -0.09,0.32 -0.01,0.12 0,0.23 0.03,0.34 0.01,0.05 0.03,0.09 0.05,0.14 0.02,0.05 0.05,0.08 0.06,0.12 0.02,0.02 0.05,0.06 0.07,0.09 0.03,0.04 0.04,0.05 0.07,0.08 0.07,0.07 0.1,0.09 0.16,0.14 0.21,0.11 0.34,0.17 0.63,0.14 0.06,-0.01 0.12,-0.03 0.17,-0.03 0.03,-0.03 0.12,-0.05 0.17,-0.08 0.05,-0.03 0.12,-0.08 0.16,-0.09 0.02,-0.04 0.07,-0.07 0.1,-0.11 0.02,-0.02 0.08,-0.09 0.09,-0.1l0.08 -0.17c0.05,-0.09 0.06,-0.18 0.08,-0.28 0.01,-0.1 0.01,-0.18 -0.01,-0.28 -0.03,-0.11 -0.06,-0.21 -0.11,-0.29 -0.03,-0.04 -0.05,-0.08 -0.08,-0.12 -0.03,-0.04 -0.07,-0.08 -0.09,-0.11 -0.02,-0.01 -0.04,-0.02 -0.06,-0.04 -0.04,-0.02 -0.07,-0.05 -0.12,-0.08 -0.04,-0.02 -0.08,-0.04 -0.12,-0.06 -0.1,-0.04 -0.17,-0.05 -0.28,-0.07 -0.24,-0.01 -0.29,0.02 -0.49,0.08z"/>
   <path fill="#8543BC" d="M3.18 0.47c0.44,0.04 0.78,0.3 0.92,0.71 0.07,0.22 0.05,0.52 0.05,0.76 -0,0.28 -0,0.55 0,0.83l0 0.07c0.04,-0 0.01,-0 0.02,-0.04 0.02,-0.05 -0.02,-0.03 0.03,-0.04 0.02,0.03 0.02,0.08 0.02,0.12 0.05,0.02 0,-0.02 0.06,0.03 0.04,0.04 0.06,0.03 0.1,0.11l0.04 0.05c0.03,0.03 -0.02,0.01 0.04,0.02 0.01,-0.02 0,-0.02 0.01,-0.06l0.05 0.07c0,0 0,0 0.01,0 0,0.05 0.04,0.18 0.02,0.27 0.01,-0.26 0,-0.54 0,-0.8 0,-0.3 0.02,-1.38 -0.02,-1.6 -0.05,-0.26 -0.12,-0.37 -0.26,-0.55 -0.03,-0.05 -0.16,-0.16 -0.2,-0.2 -0.07,-0.05 -0.17,-0.11 -0.26,-0.15 -0.24,-0.1 -0.45,-0.09 -0.72,-0.09 -0.55,0 -1.09,0.01 -1.64,0l0.1 0.02 -0.17 0.02 0.17 0.01c-0.02,0.02 -0.14,0.03 -0.17,0.03 0.04,0 0.04,0 0.09,0.04l0.08 0.06c0.04,0.02 0.08,0.1 0.15,0.14 -0.01,0.04 -0.04,0.03 -0.02,0.03 0.01,0.04 0.09,0.08 0.13,0.09 0.08,0.03 1.08,0.02 1.27,0.02l0.07 0c0.03,0.01 0.01,0 0.02,0.01z"/>
   <path fill="#8543BC" d="M2.92 1.67c0.02,0.02 0.04,0.03 0.06,0.04 0.07,-0 0.04,0.01 0.07,0.02 0,0 0.03,0 0.03,0 0.05,0.01 0.04,0.03 0.08,0.07l0.1 0.1c0.05,0.04 0.03,0.05 0.07,0.08l0.17 0.17c0,0 0,0 0,0.01 0,0 0,0.01 0,0.01l0.08 0.08c0,0 0,0 0.01,0.01 0.01,0.01 0,0 0.02,0.02l0.06 0.04c0.13,0.11 0.07,0.07 0.08,0.11 0,0.02 -0,0.01 0.01,0.01 0.05,-0 -0.04,-0.03 0.03,-0 0.02,0.02 0.02,0.06 0.05,0.1 0.01,-0.02 0.01,-0.01 0.03,-0.03 -0.01,-0.3 0,-0.61 0,-0.92 0,-0.16 -0,-0.26 -0.06,-0.39 -0.05,-0.1 -0.13,-0.22 -0.19,-0.27 -0.24,-0.19 -0.36,-0.19 -0.73,-0.19 -0.31,0 -0.61,0 -0.92,0 0.03,0.01 0.08,0 0.12,0.01 0.07,0 0.02,0.01 0.13,0.01l0 0.01c-0.03,0 -0.06,-0 -0.09,0.01 -0,0.02 0.02,0.04 0.04,0.06 0,0 0,0 0.01,0l0.05 0.04c0,0 0,0 0,0.01l0.17 0.17c0,0 0,0 0,0.01 0.07,0.08 0.09,0.03 0.15,0.13 0.03,0.06 -0.01,0.02 0.07,0.05 0.01,0.04 -0.01,0.04 0.01,0.06 0.03,0.02 0.02,-0 0.06,0.04 0.03,0.04 -0,0.02 0.04,0.05l0.12 0.09c0.02,0.01 0.01,0.01 0.04,0.05 0.03,0.05 -0.02,0.05 0.03,0.07l-0.01 0.05z"/>
   <path fill="#F6CB00" d="M0.01 3.19c-0,0.44 0.06,0.68 0.28,0.94 0.1,0.12 0.2,0.2 0.34,0.28 0.16,0.09 0.28,0.11 0.48,0.14l0.26 -0 -0 -0.04c-0.08,-0 -0.08,0.01 -0.12,-0.05 -0.04,-0.05 -0.05,-0.04 -0.08,-0.08 -0.02,-0.02 -0.02,-0.03 -0.04,-0.05 -0.03,-0.03 -0.02,-0.01 -0.05,-0.02 -0.04,-0.02 -0.04,-0.05 -0.09,-0.12 -0.01,-0.01 -0,-0.01 -0.02,-0.02 -0.05,-0.05 -0.03,0.01 -0.08,-0.08l-0.15 -0.15c-0.08,-0.09 -0.09,-0.07 -0.13,-0.12l-0.12 -0.11c-0.07,-0.04 -0.04,-0.04 -0.07,-0.09 -0.07,-0.09 -0.07,-0.06 -0.11,-0.1 -0.01,-0.01 -0.01,-0.01 -0.02,-0.02 -0.08,-0.09 -0.04,-0.03 -0.09,-0.07 -0.03,-0.03 -0.02,-0.04 -0.04,-0.05 -0.03,-0.04 -0.03,0.01 -0.09,-0.09 -0.04,-0.07 -0.03,-0.01 -0.04,-0.18l-0.02 0.08z"/>
   <path fill="#F94301" d="M0.73 3.1l0.02 -0.08 0.03 0.02c0.02,0.02 0.06,0.06 0.07,0.09 0.01,0.02 -0.01,0.04 0.04,0.06 0.1,0.05 0.06,0.04 0.11,0.09 0.02,0.02 0.03,0.02 0.05,0.04l0.25 0.25c0.01,0.01 0.02,0.02 0.03,0.03l0.11 0.11c0,0 0,0 0.01,0.01l0.05 0.06c0.03,0.02 0.06,0.02 0.07,0.03l0 0.08 0.4 -0c0.02,-0.05 -0.01,0 0.03,-0.03 0.02,-0.02 0.01,0.01 0.02,-0.02 -0.01,-0.03 -0.01,-0.03 -0.05,-0.03l0.02 -0.03c-0.09,-0.03 -0.06,-0.06 -0.08,-0.1 -0.04,-0.04 -0,0.05 -0.1,-0.06 -0.03,-0.04 -0.11,-0.1 -0.11,-0.17 -0.08,-0 -0.06,0.01 -0.12,-0.06 -0.06,-0.06 -0.05,0 -0.09,-0.08 -0.03,-0.05 -0.05,-0.05 -0.1,-0.11l-0.04 -0.04c-0.01,-0.01 -0.01,-0.01 -0.03,-0.03l-0.02 -0.02c-0,-0 -0,-0 -0.01,-0.01l-0.03 -0.03c-0,-0 -0,-0 -0.01,-0.01 -0.02,-0.02 -0.04,-0.03 -0.06,-0.05 -0.08,-0.05 -0.03,-0.05 -0.09,-0.09 -0.08,-0.06 -0.02,-0.04 -0.08,-0.09 -0.11,-0.12 -0.09,-0.06 -0.13,-0.1 -0.03,-0.02 -0.01,-0.01 -0.02,-0.03l-0.02 -0.03c-0.07,-0.09 -0.12,-0.1 -0.13,-0.1 -0,-0.04 0.01,-0.05 -0.01,-0.07l0 0.59z"/>
   <path fill="#F61B01" d="M0.73 2.51c0.02,0.02 0.01,0.03 0.01,0.07 0.01,0.01 0.06,0.01 0.13,0.1l0.02 0.03c0.01,0.02 -0.01,0.01 0.02,0.03 0.04,0.04 0.01,-0.02 0.13,0.1 0.06,0.06 -0,0.04 0.08,0.09 0.06,0.04 0.02,0.04 0.09,0.09 0.02,0.02 0.04,0.03 0.06,0.05 0,0 0,0 0.01,0.01l0.03 0.03c0,0 0,0 0.01,0.01l0.02 0.02c0.01,0.01 0.02,0.01 0.03,0.03l0.04 0.04c0.05,0.06 0.07,0.06 0.1,0.11 0.04,0.09 0.03,0.02 0.09,0.08 0.07,0.07 0.05,0.06 0.12,0.06 0,0.07 0.08,0.13 0.11,0.17 0.09,0.1 0.06,0.02 0.1,0.06 0.02,0.04 -0.02,0.07 0.08,0.1l-0.02 0.03c0.04,0 0.04,0 0.05,0.03 -0.01,0.03 -0,0 -0.02,0.02 -0.04,0.03 -0.01,-0.03 -0.03,0.03l0.26 0c0.04,-0.04 0.08,-0 0.14,-0.04 -0.01,-0.02 0,-0.01 -0.06,-0.03 -0.01,-0 -0,-0 -0.03,-0.01l0.03 -0.03c-0.03,-0.01 -0.05,-0.04 -0.07,-0.07 -0,-0 -0,-0 -0,-0.01 -0,-0 -0,-0 -0,-0.01 -0.01,-0.02 -0,-0.01 -0.01,-0.02 -0.01,-0.01 -0.06,-0.03 -0.1,-0.09l-0.1 -0.1c-0,-0 -0.01,-0.02 -0.01,-0.02l-0.1 -0.1c-0.02,-0.03 -0.01,-0.03 -0.04,-0.05l-0.06 -0.06c-0,-0 -0,-0 -0,-0.01 -0.04,-0.04 -0,-0.01 0.01,-0.02 -0.06,-0.05 -0.1,-0.06 -0.16,-0.14 -0.03,-0.03 -0.04,-0.04 -0.07,-0.08 -0.02,-0.03 -0.05,-0.07 -0.07,-0.09 -0.02,0.01 -0.02,0.01 -0.03,0.03l-0.03 -0.03c-0.07,-0.08 -0.03,-0.05 -0.09,-0.09 -0.04,-0.03 -0.04,-0.04 -0.05,-0.05 -0.03,-0.04 -0.05,-0.04 -0.07,-0.07 -0,-0 -0.02,-0.03 -0.02,-0.03 -0.06,-0.1 -0.02,0.01 -0.09,-0.09 -0,-0 -0,-0 -0,-0.01 -0.04,-0.07 -0.02,0.01 -0.08,-0.08 -0.03,-0.05 -0.01,-0.02 -0.03,-0.03 -0.03,-0.01 -0.12,-0.12 -0.14,-0.14 -0.03,-0.05 -0.01,-0 -0.06,-0.05l-0.05 -0.03c-0,-0 -0.01,-0 -0.01,-0l-0 -0.59 -0 0 -0 0.86z"/>
   <path fill="#B5368B" d="M1.2 0.8c0.04,0.05 0,-0.02 0.01,0.01l-0 0.01c-0,0 -0,0 -0,0 -0,0 -0,0 -0,0 0.02,0.01 0.02,0.01 0.05,0.01 -0.01,0.02 -0.01,0.04 0,0.06 0.02,-0 0.01,-0 0.02,-0.01 0.02,-0.01 -0.01,0 0.03,-0.01 0.01,0.02 0.03,0.03 0.03,0.04 0.02,0.06 -0,-0.02 -0.01,0.05 0.09,0.05 0.05,0.01 0.1,0.1 0.03,-0 0.01,-0.01 0.05,-0.02 0.01,0.01 0.02,0.03 0.03,0.04 0.03,0.06 0,0.01 0,0.04 -0,0.01 -0.02,0.05 0.05,0.02 0,-0 0.01,-0 0.01,-0 0.02,0.02 0.03,0.03 0.03,0.06 0,0.03 -0.02,0.01 0.01,0.04 0.04,0.03 0.02,-0 0.05,0.04 0.02,0.03 0,0.03 0.04,0.06 0,0 0.03,-0.02 0.05,0.02 0.04,0.06 -0.03,0.02 0.02,0.06 0.05,0.05 -0.02,-0.05 0.06,0.02 0.01,0.01 0.02,0.02 0.02,0.04 0,0.05 -0.01,-0.03 -0.01,0.04l0.01 0.01c0.05,0.03 0.02,0.05 0.05,0.01 0.05,0.04 0.02,-0.02 0.01,0.03 0.2,-0.06 0.24,-0.09 0.49,-0.08 -0.04,-0.04 -0.1,-0.02 -0.17,-0.02l0.16 -0c-0.01,-0.05 -0.03,-0 -0.08,-0.04l0.11 -0.01c-0.02,-0 -0.05,0 -0.07,-0 -0.05,-0 -0.02,0 -0.05,-0.02 -0.02,-0.02 -0.02,-0.04 -0.03,-0.05 -0.02,-0.04 -0.03,-0.01 -0.08,-0.07l-0.01 -0.01c-0.01,-0.02 -0,0.01 -0.01,-0.02 -0.01,-0.03 0.02,-0.01 -0.01,-0.03 -0.03,-0.02 -0,-0 -0.01,-0 -0.07,0 0.05,0.02 -0.01,0 -0.01,-0.01 -0.02,-0.01 -0.03,-0.02 -0.04,-0.06 0.02,-0.05 -0.05,-0.07 -0.02,-0.01 -0.05,-0.01 -0.07,-0.06 -0.01,-0.02 -0.01,-0.01 -0.01,-0.03 -0.12,-0 -0.06,-0.01 -0.12,-0.08 -0.05,-0.06 -0,-0.05 -0.04,-0.07 -0.02,-0.01 -0.03,0.02 -0.08,-0.05 0,-0 0.01,-0 0.01,-0 0,-0 0.01,-0 0.01,-0l0.02 -0.01c0.02,-0.01 0.01,0 0.03,-0.01l-0.16 -0c-0.01,-0.02 -0.01,0.03 -0.01,-0.03 -0.13,0 -0.21,-0.01 -0.33,0.03 -0.04,0.01 -0.07,0.02 -0.09,0.04z"/>
   <path fill="#DE1639" d="M1.62 2.34c0.03,0.02 0.03,0.1 0.03,0.15l0.02 -0.01c0,-0 0.01,-0 0.01,-0.01l0 0.06c0.01,-0.04 0,-0.05 0.02,-0.08 0.06,0.01 0.03,0.01 0.06,0.05 0.02,0.04 0.03,0.02 0.05,0.04 0.04,0.03 0.06,0.08 0.08,0.12l0.16 0.1 0 0.06c0.01,0.01 0.05,0.01 0.07,0.04 0.02,0.03 0,0.02 0.03,0.05l0.05 0.04c0.05,0.05 0.07,0.11 0.16,0.12 0.06,0.01 0.05,0 0.07,0.03 0.08,-0.01 0.24,-0.07 0.26,-0.11 -0.02,-0.05 0.02,-0.06 -0.1,-0.07 -0,-0.04 0.01,-0.05 -0.02,-0.07 -0.03,-0.03 -0.02,-0 -0.06,-0.03 -0.04,-0.03 -0.02,-0.04 -0.06,-0.07l-0.02 -0.02c-0.01,-0.01 -0.01,-0.01 -0.02,-0.02l-0.09 -0.09c-0,-0 -0,-0 -0.01,-0.01l-0.02 -0.02c-0.07,-0.06 -0.01,-0.02 -0.07,-0.08 -0.02,-0.02 -0.03,-0.03 -0.04,-0.05 -0.04,-0.05 -0.02,-0.02 -0.04,-0.03l-0.12 -0.13c-0.02,-0.01 -0.03,-0.03 -0.04,-0.04 -0.02,-0.02 -0.01,-0.02 -0.07,-0.02l-0 -0.08c-0.09,-0 -0.05,-0.01 -0.1,-0.06 -0,-0 -0,-0 -0.01,-0 -0,-0 -0,-0 -0.01,-0l-0.07 -0.06c-0.06,0.06 -0.11,0.21 -0.12,0.31z"/>
   <path fill="#D0225A" d="M1.74 2.03l0.07 0.06c0,0 0,0 0.01,0 0,0 0,0 0.01,0 0.06,0.05 0.01,0.05 0.1,0.06l0 0.08c0.06,0 0.05,-0 0.07,0.02 0.01,0.01 0.03,0.03 0.04,0.04l0.12 0.13c0.02,0.01 -0,-0.02 0.04,0.03 0.02,0.02 0.02,0.03 0.04,0.05 0.06,0.06 0,0.03 0.07,0.08l0.02 0.02c0,0 0,0 0.01,0.01l0.09 0.09c0.01,0.01 0.01,0.01 0.02,0.02l0.02 0.02c0.04,0.04 0.02,0.05 0.06,0.07 0.04,0.03 0.03,-0 0.06,0.03 0.02,0.02 0.02,0.03 0.02,0.07 0.12,0.01 0.08,0.02 0.1,0.07 0.07,-0.03 0.18,-0.14 0.2,-0.2l-0.04 -0.01c-0,-0 -0.01,-0 -0.01,-0l-0.01 0c0.01,-0.04 0.02,-0.02 0.03,-0.05 -0.02,-0.02 -0.05,-0.02 -0.07,-0.04 -0.03,-0.03 -0,-0.02 -0.06,-0.07 -0,-0 -0,-0 -0.01,-0.01 -0.08,-0.08 -0.07,-0.1 -0.17,-0.16 -0.02,-0.01 -0.01,-0 -0.03,-0.02 -0.02,-0.03 -0.01,-0.01 -0.02,-0.03l-0.29 -0.28c-0.03,-0.02 -0,0.01 -0.03,-0.02 -0.03,-0.03 -0,-0.01 -0.02,-0.03 -0.03,-0.05 -0.07,-0.02 -0.14,-0.16 -0.15,-0.01 -0.08,-0.04 -0.12,-0.07 -0.01,0.01 -0,0.01 -0.02,0.02 -0.02,0.02 -0.02,0.01 -0.03,0.02 -0.04,0.03 -0.12,0.12 -0.14,0.16z"/>
   <path fill="#A245B2" d="M2.4 1.46c0.11,0.02 0.18,0.03 0.28,0.07 0.04,0.02 0.08,0.04 0.12,0.06 0.04,0.03 0.08,0.06 0.12,0.08l0.01 -0.05c-0.05,-0.02 -0,-0.01 -0.03,-0.07 -0.03,-0.04 -0.02,-0.04 -0.04,-0.05l-0.12 -0.09c-0.05,-0.03 -0.01,-0.01 -0.04,-0.05 -0.03,-0.05 -0.03,-0.02 -0.06,-0.04 -0.02,-0.02 -0.01,-0.02 -0.01,-0.06 -0.08,-0.04 -0.03,0.01 -0.07,-0.05 -0.06,-0.1 -0.08,-0.05 -0.15,-0.13 -0,-0 -0,-0 -0,-0.01l-0.17 -0.17c-0,-0 -0,-0 -0,-0.01l-0.05 -0.04c-0,-0 -0,-0 -0.01,-0 -0.02,-0.02 -0.04,-0.04 -0.04,-0.06 0.02,-0.02 0.06,-0.01 0.09,-0.01l0 -0.01c-0.11,0 -0.06,-0.01 -0.13,-0.01 -0.04,-0 -0.1,0.01 -0.12,-0.01l-0.35 -0c-0,0.06 -0,0.01 0.01,0.03l0.16 0c-0.02,0.01 -0.01,0 -0.03,0.01l-0.02 0.01c-0,0 -0.01,0 -0.01,0 -0,0 -0.01,0 -0.01,0 0.05,0.08 0.06,0.04 0.08,0.05 0.04,0.02 -0.01,0.01 0.04,0.07 0.06,0.07 0,0.08 0.12,0.08 0,0.03 -0,0.01 0.01,0.03 0.02,0.05 0.05,0.05 0.07,0.06 0.07,0.03 0.01,0.01 0.05,0.07 0.01,0.02 0.02,0.02 0.03,0.02 0.07,0.02 -0.05,0 0.01,-0 0.01,-0 -0.02,-0.02 0.01,0 0.03,0.02 0,0.01 0.01,0.03 0.01,0.03 -0,-0 0.01,0.02l0.01 0.01c0.05,0.06 0.06,0.03 0.08,0.07 0.01,0.01 0.01,0.03 0.03,0.05 0.02,0.02 -0,0.01 0.05,0.02 0.02,0 0.05,0 0.07,0l-0.11 0.01c0.05,0.04 0.08,-0.01 0.08,0.04l-0.16 0c0.08,0.01 0.13,-0.01 0.17,0.02z"/>
   <path fill="#F9060A" d="M0.02 1.04c-0.03,0.22 -0.01,0.54 -0.01,0.77 0,-0 0,-0.01 0,-0.01l0.01 -0.04c0.01,-0.03 -0.01,-0.01 0.01,-0.04 0.01,0.03 0.01,0.05 0.01,0.08 0.1,0.01 0.03,-0 0.1,0.05 0.08,0.06 0.03,0.04 0.07,0.07l0.05 0.03c0.03,0.06 -0.02,-0.05 0.01,0.01l0.02 0.03c0,0 0.01,0.01 0.01,0.01l0.02 0.02c0,0 0,0 0,0.01l0.05 0.06c0.08,0.08 0.05,0.13 0.08,0.22l0 -0.86c-0.01,-0.05 0,-0.04 0.01,-0.09 -0.03,0.03 -0,0.04 -0.03,0.08 -0.01,-0.01 -0.01,0.02 -0.01,-0.08 -0.01,0.02 -0,0.02 -0.03,0.03 -0.01,-0.02 -0.02,-0.05 -0.03,-0.06 -0.02,-0.02 -0.03,-0.01 -0.05,-0.03 -0.02,-0.02 -0.01,-0.03 -0.03,-0.05 -0.02,-0.02 -0.03,0 -0.04,-0 -0.07,-0.03 -0.01,-0.05 -0.05,-0.09 -0.02,-0.01 -0.02,-0.01 -0.03,-0.02 -0.03,-0.02 -0.06,-0.08 -0.08,-0.11 -0,0.04 -0,0.04 -0.01,0.07l-0.01 0.02c-0,0 -0,0.01 -0,0.01l0 -0.13c-0.01,0.03 -0.02,0.01 -0.03,0.03z"/>
   <path fill="#EC0E23" d="M0.73 1.65l0 -0c0.03,0 0.01,-0.01 0.02,0.05 0,0.01 0,0.05 0,0.07 0.01,0.12 0.02,0.05 0.04,0.14 0.02,0.08 0.07,0.04 0.09,0.07 0,0 0.01,0.01 0.01,0.01 0.06,0.1 0.02,0.03 0.06,0.06 0.02,0.02 0.01,0 0.01,0.02 0.02,0.08 -0.02,-0.02 0.01,0.02l0.02 0.02c0.01,0.02 0.01,0.01 0.02,0.03 0,-0.06 -0,-0.03 0.03,-0.04l0.1 0.13c0.01,0.02 0.01,0.01 0.02,0.03 0.04,0.07 0.03,0.03 0.04,0.04 0.05,0.02 0.03,0.03 0.06,0.04 0.02,0.01 -0,0 0.01,0l0.02 -0c0.01,0.05 0,0.05 0,0.08 0,0.04 0.01,0.04 0,0.09l0.01 -0.16c0,0 0,0 0,0.01l0.02 0.19 0 -0.17c0.01,-0.07 -0.01,-0.03 0.03,-0.05 0.03,-0.14 0.04,-0.19 0.09,-0.32l-0.05 -0c-0.01,-0.04 0,-0.03 -0.03,-0.05l-0.06 -0.05c-0,-0 -0,-0 -0.01,-0 -0,-0 -0,-0 -0.01,-0l-0.07 -0.08c-0.06,-0.06 0,-0.06 -0.08,-0.09 -0,-0 -0.03,-0.01 -0.07,-0.06 -0,-0 -0,-0 -0.01,-0.01l-0.21 -0.2c-0,-0 -0,-0 -0.01,-0.01l-0.08 -0.08c-0,-0 -0,-0 -0,-0.01 -0,-0 -0.01,-0.01 -0.01,-0.01 -0.03,-0.05 0.01,-0 -0.01,-0.02 -0.03,0.09 -0.02,0.21 -0.02,0.31z"/>
   <path fill="#B5368B" d="M2.04 1.78c0.03,-0 0.01,-0 0.03,0 0.03,0.01 0.05,0.03 0.1,0.01l0.01 0.02c0.03,0.05 0.02,0.03 0.06,0.05 0.03,0.02 0.03,0.04 0.05,0.07 0.03,-0 0.02,-0 0.03,-0.01l0.02 -0.01c0.03,0.04 0.03,0.02 0.03,0.07 0.01,0.14 0.01,-0.05 0.08,0.05 0.05,0.07 -0.06,0.02 0.04,0.07 0.08,0.04 0.01,0.04 0.07,0.08 0.03,0.02 -0.02,-0 0.01,-0 0.01,-0 -0.02,-0.01 0.02,0 0.01,0 0.03,0.02 0.03,0.03 0.03,0.07 -0.05,0.01 0.02,0.06 0.04,0.03 -0,-0.05 0.06,0.02 0.02,0.02 0.02,0.02 0.01,0.04 -0,0 -0.01,-0 -0.01,0.03 0.09,0.05 0.05,0.01 0.1,0.1l0.04 -0.01c0,-0 0.01,-0 0.01,-0 0,-0 0.01,-0 0.01,-0l0.04 0.05c0.03,0.03 0.04,0.02 0.06,0.08 0.01,0.03 0,0.03 0.01,0.05l0 -0.09c0.02,0.01 0.02,0.01 0.04,0.03 0.07,-0.21 -0.05,-0.51 -0.23,-0.67 -0.24,-0.21 -0.64,-0.19 -0.72,-0.1z"/>
   <path fill="#D0225A" d="M0.83 1.12c0,0 0.01,0 0.01,0.01 0,0 0.01,0 0.01,0.01 0.01,0.01 0,0.01 0.02,0.01 0.01,0 0.04,0 0.06,0l0 0.06 0.06 0c0,0.03 -0,0.04 0.01,0.07 0.04,0.14 0.09,0.06 0.17,0.16 0.03,0.04 -0.03,0.03 0.01,0.06 0.03,0.02 0,-0.03 0.05,0.02l0.14 0.16c0.01,0.02 0.05,0.06 0.07,0.08 0.02,0.01 0.02,0.02 0.04,0.03 0.02,0.02 0.02,0.01 0.02,0.05 0.03,-0.02 0.01,0 0.03,-0.03 0.02,0.01 0.01,-0.01 0.01,0.02 0,-0 0.01,-0.01 0.01,-0.01 0,0 0.01,-0 0.01,-0.01l0.08 -0.09c0.02,-0.02 0.09,-0.06 0.1,-0.09 -0.01,-0.02 -0.01,-0 -0.01,-0.02 0,-0.02 -0,0.01 0,-0.01l0 -0.01c-0.01,-0 -0,-0.01 -0.03,0.02 -0,0 -0,0.01 -0.01,0.01 -0.01,-0.04 -0.01,-0.03 -0.04,-0.08 -0.03,-0.05 -0.03,-0.02 -0.07,-0.05 -0.03,-0.03 -0,-0.02 -0.03,-0.05 -0.03,-0.03 -0.01,-0 -0.05,-0.03 -0.04,-0.03 -0.01,-0.02 -0.03,-0.05 -0.03,-0.04 -0.01,-0 -0.05,-0.03 -0.04,-0.03 -0.01,-0.02 -0.03,-0.05 -0.03,-0.04 -0.01,-0.01 -0.05,-0.03 -0.04,-0.03 -0.01,-0.03 -0.1,-0.12 -0,-0 -0,-0 -0.01,-0.01l-0.18 -0.19 0.04 -0.03c-0.03,-0 -0.02,-0 -0.04,-0.03 -0.05,0.02 -0.09,0.07 -0.13,0.1 -0.03,0.03 -0.08,0.09 -0.1,0.14z"/>
   <path fill="#F8B302" d="M0.02 3.11c0.01,0.17 -0,0.12 0.04,0.18 0.06,0.1 0.06,0.05 0.09,0.09 0.01,0.01 0,0.02 0.04,0.05 0.05,0.04 0.01,-0.02 0.09,0.07 0.01,0.01 0.01,0.01 0.02,0.02 0.04,0.04 0.04,0 0.11,0.1 0.04,0.05 0.01,0.05 0.07,0.09l0.12 0.11c0.04,0.05 0.05,0.03 0.13,0.12l0.15 0.15c0.05,0.09 0.03,0.03 0.08,0.08 0.01,0.02 0.01,0.01 0.02,0.02 0.06,0.07 0.05,0.1 0.09,0.12 0.03,0.02 0.02,-0 0.05,0.02 0.02,0.01 0.02,0.03 0.04,0.05 0.03,0.04 0.04,0.03 0.08,0.08 0.04,0.05 0.04,0.05 0.12,0.05 0.1,-0.01 0.08,-0.01 0.13,-0.02 -0.05,-0.07 -0.03,0 -0.09,-0.09 -0.03,-0.04 -0.02,-0.02 -0.05,-0.04 -0.05,-0.03 -0.01,-0.02 -0.04,-0.06 -0.03,-0.04 -0.03,-0.01 -0.06,-0.04 -0.03,-0.03 -0,-0.03 -0.04,-0.06l-0.08 -0.06c-0.03,-0.03 -0.01,0.02 -0.03,-0.03 0.01,-0.02 -0,-0.01 0.02,-0.02l-0.04 -0.03c-0.23,-0.11 -0.42,-0.27 -0.52,-0.52 -0.01,0.01 -0.02,0.01 -0.03,0.02 -0.02,-0.14 -0.07,-0.01 -0.08,-0.15 -0.03,0.01 -0.01,0 -0.02,0.02 -0.01,0.01 0,0 -0.02,0.02 0.01,-0.06 0.01,-0 0.01,-0.07 -0,0 -0,0.01 -0.01,0.01l-0.01 0.01c-0.03,0.01 0.04,0.01 -0.01,0 -0.03,-0.01 -0.01,-0.04 -0.06,-0.07 -0.12,-0.07 0.02,-0.02 -0.1,-0.09 -0.05,-0.03 -0.02,-0.01 -0.04,-0.05 -0.02,-0.03 -0.03,-0.02 -0.06,-0.04 -0.04,-0.03 -0.01,-0.02 -0.04,-0.06 -0.03,-0.03 -0.01,-0.01 -0.03,0.02 -0,-0.01 -0,-0.04 -0,-0.05 -0.01,-0.03 0.01,-0.02 -0.02,-0.03 -0.01,0.01 -0,-0 -0.01,0.02l-0.01 0.07z"/>
   <path fill="#DE1639" d="M2.59 3.35c0.08,0.03 0.03,0.01 0.11,0.1l0.06 0.05c0,0 0.01,0 0.01,0 0.03,0.01 0,0.05 0.06,0.08l0.02 0.01c0.06,0.04 0.11,0.13 0.12,0.14 0.02,0.02 0.08,0.03 0.1,0.09 0.02,0.05 -0.01,-0.02 -0,0.02 0.04,0.02 0.06,0.01 0.11,0.02 0.09,0.01 0.06,0 0.07,0.02 0.06,-0.01 0.22,-0.06 0.25,-0.1 0.01,-0.03 0.01,-0.01 -0,-0.03 -0.11,0.05 -0,-0.01 -0.17,-0.13l-0.06 -0.06c-0.01,-0 -0.01,-0 -0.01,-0.01 -0.02,-0.01 -0.01,-0.01 -0.04,-0.01 -0,-0.05 0.01,-0.05 -0.04,-0.09 -0.06,-0.07 -0.03,0.01 -0.1,-0.12 -0.04,-0.07 -0.1,-0.04 -0.14,-0.12 -0.01,-0.03 0.01,-0.01 -0.02,-0.03 -0.03,0.01 -0.11,0.06 -0.16,0.09 -0.05,0.03 -0.14,0.05 -0.17,0.08z"/>
   <path fill="#F9060A" d="M1.49 2.92c-0.02,-0.04 -0.04,-0.07 -0.06,-0.12 -0.02,-0.04 -0.04,-0.09 -0.05,-0.14 -0.03,-0.11 -0.04,-0.22 -0.03,-0.34 -0.04,0.01 -0.02,-0.02 -0.03,0.05l-0 0.17 -0.02 -0.19c-0,-0 -0,-0.01 -0,-0.01l-0.01 0.16c0,-0.04 0,-0.05 -0,-0.09 -0,-0.03 0.01,-0.03 -0,-0.08l-0.02 0c-0.01,-0 0,0.01 -0.01,-0 -0.03,-0.01 -0.01,-0.02 -0.06,-0.04 -0.01,-0.01 -0,0.03 -0.04,-0.04 -0.01,-0.02 -0,-0.01 -0.02,-0.03l-0.1 -0.13c-0.03,0.01 -0.02,-0.02 -0.03,0.04 -0.01,-0.02 -0.01,-0.01 -0.02,-0.03l-0.02 -0.02c-0.03,-0.05 0.02,0.05 -0.01,-0.02 -0.01,-0.02 0.01,-0.01 -0.01,-0.02 -0.04,-0.03 0,0.04 -0.06,-0.06 -0,-0 -0.01,-0.01 -0.01,-0.01 -0.02,-0.03 -0.07,0.01 -0.09,-0.07 -0.02,-0.09 -0.03,-0.02 -0.04,-0.14 -0,-0.02 -0,-0.05 -0,-0.07 -0.01,-0.05 0.01,-0.04 -0.02,-0.05l0 0.59c0,0 0.01,0 0.01,0l0.05 0.03c0.05,0.05 0.03,0 0.06,0.05 0.02,0.03 0.11,0.13 0.14,0.14 0.02,0.01 0,-0.01 0.03,0.03 0.06,0.09 0.04,0.01 0.08,0.08 0,0 0,0 0,0.01 0.07,0.1 0.03,-0 0.09,0.09 0,0 0.02,0.03 0.02,0.03 0.03,0.03 0.05,0.03 0.07,0.07 0.01,0.01 0.01,0.03 0.05,0.05 0.05,0.03 0.01,0.01 0.09,0.09l0.03 0.03c0.01,-0.01 0.02,-0.02 0.03,-0.03z"/>
   <path fill="#F66B01" d="M0.73 3.1c0,0.14 0.02,0.23 0.07,0.34 0.04,0.09 0.11,0.19 0.17,0.24 0.16,0.14 0.32,0.21 0.61,0.21l-0 -0.08c-0.01,-0.01 -0.04,-0.01 -0.07,-0.03l-0.05 -0.06c-0,-0 -0,-0 -0.01,-0.01l-0.11 -0.11c-0.01,-0.01 -0.02,-0.02 -0.03,-0.03l-0.25 -0.25c-0.02,-0.02 -0.03,-0.02 -0.05,-0.04 -0.05,-0.05 -0.01,-0.05 -0.11,-0.09 -0.05,-0.02 -0.04,-0.04 -0.04,-0.06 -0.01,-0.03 -0.05,-0.07 -0.07,-0.09l-0.03 -0.02 -0.02 0.08z"/>
   <path fill="#C32A6E" d="M1.92 1.83c0.04,0.03 -0.04,0.06 0.12,0.07 0.07,0.14 0.11,0.11 0.14,0.16 0.02,0.03 -0.01,0 0.02,0.03 0.03,0.03 0.01,0.01 0.03,0.02l0.29 0.28c0.01,0.02 -0,0.01 0.02,0.03 0.02,0.02 0.02,0.01 0.03,0.02 0.1,0.06 0.09,0.08 0.17,0.16 0,0 0,0 0.01,0.01 0.05,0.05 0.02,0.04 0.06,0.07 0.02,0.02 0.04,0.03 0.07,0.04 -0.01,0.03 -0.02,0.01 -0.03,0.05l0.01 -0c0,0 0,0 0.01,0l0.04 0.01c0.05,-0.06 0.09,-0.16 0.1,-0.25 -0.02,-0.01 -0.02,-0.02 -0.04,-0.03l-0 0.09c-0.01,-0.02 -0,-0.02 -0.01,-0.05 -0.02,-0.06 -0.03,-0.06 -0.06,-0.08l-0.04 -0.05c-0,0 -0.01,0 -0.01,0 -0,0 -0.01,0 -0.01,0l-0.04 0.01c-0.05,-0.09 -0.01,-0.05 -0.1,-0.1 0,-0.03 0.01,-0.03 0.01,-0.03 0,-0.01 0.01,-0.02 -0.01,-0.04 -0.06,-0.07 -0.02,0.01 -0.06,-0.02 -0.07,-0.04 0.02,0.01 -0.02,-0.06 -0.01,-0.01 -0.02,-0.02 -0.03,-0.03 -0.04,-0.01 -0.01,-0 -0.02,-0 -0.03,0 0.02,0.02 -0.01,0 -0.06,-0.04 0,-0.03 -0.07,-0.08 -0.1,-0.06 0.01,-0 -0.04,-0.07 -0.07,-0.1 -0.07,0.09 -0.08,-0.05 -0,-0.05 -0.01,-0.03 -0.03,-0.07l-0.02 0.01c-0.01,0 0,0.01 -0.03,0.01 -0.02,-0.03 -0.01,-0.05 -0.05,-0.07 -0.04,-0.03 -0.03,-0 -0.06,-0.05l-0.01 -0.02c-0.05,0.02 -0.07,-0.01 -0.1,-0.01 -0.03,-0.01 -0,-0.01 -0.03,-0 -0.04,0 -0.08,0.03 -0.12,0.05z"/>
   <path fill="#D0225A" d="M2.92 3.18c0.03,0.02 0.01,0 0.02,0.03 0.03,0.08 0.1,0.05 0.14,0.12 0.07,0.13 0.04,0.05 0.1,0.12 0.04,0.05 0.04,0.05 0.04,0.09 0.03,0 0.02,-0 0.04,0.01 0.01,0 0.01,0 0.01,0.01l0.06 0.06c0.17,0.12 0.06,0.18 0.17,0.13 0.01,0.02 0.01,0 0,0.03 0.06,-0.02 0.17,-0.12 0.21,-0.18l-0.01 -0c-0.04,-0.02 -0.02,-0.02 -0.05,-0.04 -0.04,-0.03 -0.03,-0 -0.06,-0.05 -0.11,-0.16 -0.02,-0.05 -0.12,-0.15 -0.05,-0.05 -0.02,-0.02 -0.06,-0.04 -0.06,-0.04 0,-0.04 -0.07,-0.08 -0.04,-0.02 -0.04,-0.04 -0.11,-0.12 -0,-0 -0.01,-0.01 -0.01,-0.01 -0,-0 -0,-0 -0.01,-0.01l-0.11 -0.08 0.02 -0.02c0.03,-0.02 0,0 0.02,-0.02 0,-0 0.01,-0.03 0.02,-0.03 -0.03,0.04 -0.05,0.01 -0.06,0.01 -0.02,0.01 -0.07,0.08 -0.09,0.1 -0.03,0.04 -0.08,0.07 -0.1,0.11z"/>
   <path fill="#A245B2" d="M3.26 2.23c0.05,0.02 0.03,0.05 0.04,0.18 0.03,-0.04 0.03,-0.1 0.02,-0.17 0.03,0.02 -0.01,0.01 0.02,0.04 0.02,0.02 0,-0.01 0.04,0.02 -0,0.04 -0.02,0.04 0.01,0.07 0.03,0.02 0.04,0.04 0.04,-0.02l0.02 0.02c0,0 0,0 0,0.01l0.01 0.05c0.01,0.03 0.02,0.04 0.05,0.04 0,0 0,-0 0.01,-0 0.02,-0 -0.01,-0.02 0.02,0 0.03,0.02 -0.02,0.05 0.04,0.08 0.07,0.05 0.01,0 0.04,0 0.04,-0 -0.01,0.09 0.06,0.09l0.01 -0c0.07,-0.01 0.01,0.02 0.05,0.08 0.06,0.08 0.04,-0.06 0.06,0.02 0.02,0.05 -0.01,-0.04 0,0.02 0,0 0,0.01 0,0.01 0,0 0,0.01 0,0.01 0.01,0.03 0.02,0.02 0.04,0.06l0.02 -0.04c0.01,-0.03 -0.01,-0.01 0.01,-0.04l-0 -0.27c-0.02,0.01 -0.02,0.01 -0.03,0.03 -0.03,-0.03 -0.03,-0.08 -0.05,-0.1 -0.07,-0.02 0.02,0 -0.03,0 -0.02,0 -0.01,0.01 -0.01,-0.01 -0.01,-0.04 0.05,0 -0.08,-0.11l-0.06 -0.04c-0.01,-0.01 -0,-0 -0.02,-0.02 -0,-0 -0,-0 -0.01,-0.01l-0.08 -0.08c-0,-0 -0,-0 -0,-0.01 -0,-0 -0,-0 -0,-0.01l-0.17 -0.17c-0.04,-0.03 -0.02,-0.04 -0.07,-0.08l-0.1 -0.1c-0.04,-0.04 -0.03,-0.06 -0.08,-0.07 -0.01,-0 -0.03,-0 -0.03,-0 -0.03,-0 -0,-0.02 -0.07,-0.02 0.02,0.03 0.06,0.08 0.09,0.11 0.03,0.03 0.05,0.07 0.08,0.12 0.05,0.09 0.08,0.18 0.11,0.29z"/>
   <path fill="#DE1639" d="M0.75 1.34c0.01,0.01 -0.02,-0.04 0.01,0.02 0,0 0.01,0.01 0.01,0.01 0,0 0,0 0,0.01l0.08 0.08c0,0 0,0 0.01,0.01l0.21 0.2c0,0 0,0 0.01,0.01 0.05,0.05 0.07,0.06 0.07,0.06 0.08,0.03 0.02,0.03 0.08,0.09l0.07 0.08c0,0 0,0 0.01,0 0,0 0,0 0.01,0l0.06 0.05c0.04,0.02 0.02,0 0.03,0.05l0.05 0c0.01,-0.02 0.03,-0.06 0.05,-0.09 0.02,-0.02 0.04,-0.06 0.05,-0.09 -0,-0.03 0.02,-0.01 -0.01,-0.02 -0.03,0.03 -0,0.01 -0.03,0.03 0.01,-0.04 0.01,-0.03 -0.02,-0.05 -0.02,-0.02 -0.02,-0.02 -0.04,-0.03 -0.02,-0.02 -0.05,-0.06 -0.07,-0.08l-0.14 -0.16c-0.05,-0.05 -0.02,-0 -0.05,-0.02 -0.05,-0.03 0.02,-0.02 -0.01,-0.06 -0.08,-0.1 -0.13,-0.03 -0.17,-0.16 -0.01,-0.02 -0.01,-0.04 -0.01,-0.07l-0.06 -0 -0 -0.06c-0.01,-0 -0.05,0 -0.06,-0 -0.02,-0.01 -0.01,-0.01 -0.02,-0.01 -0,-0 -0.01,-0 -0.01,-0.01 -0,-0 -0,-0 -0.01,-0.01 -0.04,0.06 -0.07,0.14 -0.08,0.22z"/>
   <path fill="#B5368B" d="M3.27 2.51c0.04,0.01 0.01,-0.01 0.02,0.02 0,0.01 0,0.05 0,0.06 0.02,0.02 0.02,0.05 0.04,0.08 0.03,0.03 0,0 0.03,0.01l0.07 0.07c0.03,-0.03 0.02,-0.02 0.04,0 0.04,0.07 -0.02,0.02 0.06,0.06 0.03,0.02 0.03,0.04 0.04,0.07 0,0.01 0.01,0.03 0.02,0.04 0,0 0,0 0,0.01 0,0 0,0 0,0.01l0.11 0.11c0,0 0.01,0.01 0.02,0.01l0.04 0.05c0.03,0.04 0.04,0.03 0.06,0.06 0.01,0.01 0.01,0.02 0.02,0.04 0.03,-0.03 0.02,-0.07 0.03,-0.09l0 -0.35c-0.02,0.03 -0,0.01 -0.01,0.04l-0.02 0.04c-0.02,-0.04 -0.03,-0.03 -0.04,-0.06 -0,-0 -0,-0.01 -0,-0.01 -0,-0 0,-0.01 -0,-0.01 -0.01,-0.07 0.01,0.03 -0,-0.02 -0.03,-0.08 -0.01,0.05 -0.06,-0.02 -0.04,-0.05 0.02,-0.09 -0.05,-0.08l-0.01 0c-0.07,-0 -0.02,-0.09 -0.06,-0.09 -0.04,0 0.02,0.05 -0.04,-0 -0.05,-0.04 -0,-0.06 -0.04,-0.08 -0.03,-0.02 0,-0 -0.02,-0 -0,0 -0,0 -0.01,0 -0.02,-0 -0.04,-0.01 -0.05,-0.04l-0.01 -0.05c-0,-0 -0,-0 -0,-0.01l-0.02 -0.02c0,0.06 -0.02,0.04 -0.04,0.02 -0.04,-0.04 -0.02,-0.03 -0.01,-0.07 -0.04,-0.02 -0.02,0.01 -0.04,-0.02 -0.03,-0.03 0.01,-0.02 -0.02,-0.04 0,0.07 0.01,0.13 -0.02,0.17 -0,-0.13 0.01,-0.16 -0.04,-0.18 0.02,0.1 0.02,0.18 0.01,0.28z"/>
   <path fill="#F9060A" d="M2.23 3.89l0.7 0c-0.01,-0.03 0,-0.02 -0.06,-0.03 -0.04,-0 -0.08,0.01 -0.12,-0.01l-0.26 -0.22c-0.07,-0.04 -0.05,0 -0.09,-0.08 -0.02,-0.03 -0.07,-0.11 -0.11,-0.09 0.02,-0.01 0,0 0.02,-0.02l0.01 -0.02c0.03,0 0.06,0 0.09,-0.02 0.05,-0.04 0.01,0.02 0.02,-0.02 -0.28,0.02 -0.42,-0.03 -0.63,-0.14 -0.01,0.01 -0.04,-0.02 -0.01,0.02 -0,0 0,0.01 0,0.01l0.06 0.06c0.03,0.03 0.02,0.02 0.04,0.05l0.1 0.1c0,0 0.01,0.01 0.01,0.02l0.1 0.1c0.05,0.06 0.09,0.08 0.1,0.09 0.01,0.01 0,0 0.01,0.02 0,0 0,0 0,0.01 0,0 0,0 0,0.01 0.02,0.03 0.05,0.06 0.07,0.07l-0.03 0.03c0.02,0 0.01,0 0.03,0.01 0.06,0.02 0.05,0.02 0.06,0.03 -0.06,0.04 -0.09,-0 -0.14,0.04z"/>
   <path fill="#C32A6E" d="M0.46 0.27c-0,0.04 0.01,-0 0.02,0.04 0.01,0.06 -0,0.02 0.07,0.13 0.03,0.04 0.03,0.02 0.07,0.04 0.02,0.01 0.01,0 0.03,0.03 0.05,0.07 0.04,0.03 0.07,0.09 0.04,0.07 0.03,0.02 0.09,0.08l0.03 0.03c0.05,-0.04 0.09,-0.07 0.15,-0.11 0.05,-0.03 0.12,-0.05 0.17,-0.08 -0,-0.04 -0.01,-0.04 -0.03,-0.06l-0.04 -0.03c-0.06,-0.05 -0.09,-0.11 -0.14,-0.15 -0.04,-0.02 -0.04,-0.05 -0.06,-0.08 -0.04,-0.07 -0.03,-0.01 -0.06,-0.06 -0.04,0.04 -0.08,0.01 -0.14,0.02l0 -0.02c-0.04,0 -0.08,0.03 -0.11,0.05 -0.04,0.03 -0.08,0.04 -0.09,0.08z"/>
   <path fill="#EC0E23" d="M2.43 3.37c-0.01,0.04 0.03,-0.01 -0.02,0.02 -0.03,0.02 -0.05,0.02 -0.09,0.02l-0.01 0.02c-0.02,0.02 -0,0.01 -0.02,0.02 0.04,-0.01 0.1,0.06 0.11,0.09 0.05,0.09 0.02,0.05 0.09,0.08l0.26 0.22c0.04,0.02 0.07,0.01 0.12,0.01 0.06,0.01 0.04,-0 0.06,0.03 0.11,0 0.23,0.01 0.34,-0.01 -0.01,-0.02 0.01,-0.01 -0.07,-0.02 -0.05,-0.01 -0.07,-0 -0.11,-0.02 -0.01,-0.04 0.02,0.04 0,-0.02 -0.02,-0.06 -0.08,-0.07 -0.1,-0.09 -0.01,-0.01 -0.05,-0.1 -0.12,-0.14l-0.02 -0.01c-0.06,-0.03 -0.04,-0.06 -0.06,-0.08 -0,-0 -0.01,-0 -0.01,-0l-0.06 -0.05c-0.07,-0.09 -0.02,-0.07 -0.11,-0.1 -0.05,-0 -0.11,0.02 -0.17,0.03z"/>
   <path fill="#F9060A" d="M2.92 4.55l0.52 -0 0.04 -0c0,-0.02 0,-0.01 -0.01,-0.03 -0.04,-0 -0.06,0.01 -0.11,0l0.08 -0c-0.02,-0.03 -0.02,-0.02 -0.08,-0.03 0.08,0.01 0.02,-0.03 -0.01,-0.05 -0.05,-0.03 -0.01,-0.01 -0.04,-0.03 -0.03,-0.02 -0.02,-0 -0.07,-0.05l-0.01 -0.01c-0,-0 -0,-0 -0,-0 -0.01,-0.02 -0.01,-0 -0.01,-0.02 -0,-0.06 0.01,0.03 0,-0.02 -0.01,-0.03 -0.02,-0.03 -0.03,-0.04 -0.02,-0.01 -0.02,-0.01 -0.04,-0.02 0.01,-0.02 -0,0 0.02,-0.01 0.01,-0.01 0.01,0.01 0.01,-0.01 0,-0 0.01,-0 0.01,-0l-0 -0.01c-0,-0 -0.01,-0 -0.01,-0l-0.12 -0.02c-0.04,-0 -0.1,-0.01 -0.12,0.01l0.21 -0.01c0.05,-0.01 0.05,0.01 0.04,-0.03l-0.69 0c0,0 0.01,0 0.01,0 0.06,0.02 0.13,0.01 0.17,0.02 -0.01,0.03 0.03,0.02 -0.04,0.03 -0.02,0 -0.03,-0 -0.04,-0.01l0.16 0.01c-0.04,0.02 -0.11,0.02 -0.17,0.02 0.01,-0.01 0.01,-0.01 0.04,-0 0.05,0.02 -0.03,0 0.08,0.05 0.02,0.04 -0,0.05 0.03,0.06 0.03,0.02 0.03,-0.01 0.06,0.03 0.03,0.04 -0,0.03 0.04,0.06l0.06 0.03c-0.01,0.02 0.01,0.08 -0.05,0.03l0.09 0 -0.01 0.06z"/>
   <path fill="#C32A6E" d="M1.06 0.87c0.02,0.02 0.01,0.02 0.04,0.03l-0.04 0.03 0.18 0.19c0,0 0,0 0.01,0.01 0.09,0.08 0.06,0.09 0.1,0.12 0.03,0.02 0.02,-0.01 0.05,0.03 0.02,0.03 -0,0.02 0.03,0.05 0.04,0.03 0.02,-0.01 0.05,0.03 0.02,0.03 -0,0.02 0.03,0.05 0.03,0.03 0.02,0 0.05,0.03 0.03,0.03 0,0.02 0.03,0.05 0.04,0.04 0.03,0 0.07,0.05 0.03,0.05 0.04,0.04 0.04,0.08 0,-0 0,-0.01 0.01,-0.01 0.03,-0.03 0.02,-0.02 0.03,-0.02l-0 0.01c-0,0.01 -0,-0.01 -0,0.01 0,0.02 -0,0 0.01,0.02 0.02,-0.01 0.15,-0.08 0.17,-0.1 0.01,-0.05 0.04,0.01 -0.01,-0.03 -0.02,0.05 -0,0.02 -0.05,-0.01l-0.01 -0.01c0,-0.07 0.01,0.01 0.01,-0.04 -0,-0.02 -0.01,-0.03 -0.02,-0.04 -0.08,-0.06 -0,0.04 -0.06,-0.02 -0.04,-0.04 0.03,0 -0.02,-0.06 -0.03,-0.04 -0.05,-0.02 -0.05,-0.02 -0.04,-0.03 -0.02,-0.03 -0.04,-0.06 -0.03,-0.04 -0.02,-0.01 -0.05,-0.04 -0.04,-0.03 -0.01,-0.01 -0.01,-0.04 -0,-0.03 -0.02,-0.03 -0.03,-0.06 -0,0 -0.01,0 -0.01,0 -0.07,0.03 -0.05,-0 -0.05,-0.02 0,-0.03 0.03,0.02 -0,-0.04 -0.01,-0.01 -0.02,-0.02 -0.03,-0.04 -0.04,0.01 -0.02,0.02 -0.05,0.02 -0.05,-0.09 -0.01,-0.05 -0.1,-0.1 0.01,-0.07 0.03,0.01 0.01,-0.05 -0.01,-0.02 -0.02,-0.02 -0.03,-0.04 -0.04,0.01 -0.01,0.01 -0.03,0.01 -0.01,0 -0,0 -0.02,0.01 -0.01,-0.02 -0.01,-0.04 -0,-0.06 -0.03,-0 -0.03,-0 -0.05,-0.01 -0,-0 0,-0 0,-0 0,-0 0,-0 0,-0l0 -0.01c-0,-0.03 0.04,0.03 -0.01,-0.01 -0.04,0 -0.11,0.04 -0.14,0.08z"/>
   <path fill="#D0225A" d="M3.69 3.98c0,0.02 0,0 0,0.02 -0,0.02 -0,0.02 -0.01,0.03 0,0 0.03,0 0.05,0.02 0.01,0.01 0.01,0.03 0.04,0.04 0.08,0.04 -0.04,-0.05 0.06,0.04l0.13 0.14c0.03,0.04 0.03,0.03 0.05,0.04 0,0 0.01,0 0.01,0 0,0 0.01,0 0.01,0 0,0 0.01,0 0.01,0 0.06,-0.04 0.1,-0.07 0.14,-0.11 0.03,-0.02 0.1,-0.11 0.12,-0.14l-0.16 -0.18c-0.03,-0.03 -0.06,-0.06 -0.08,-0.09 -0.06,-0.07 -0.04,-0.06 -0.09,-0.06 0.03,-0.03 0.02,-0.02 -0.01,-0.03 -0.04,0.05 -0.07,0.09 -0.12,0.14 -0.04,0.04 -0.1,0.08 -0.14,0.12z"/>
   <path fill="#DE1639" d="M0.07 0.83c0.03,0.02 0,0 0.02,0.02 0.06,0.05 0.08,0.02 0.13,0.11 0.02,0.04 0.03,0.02 0.03,0.07 0.03,0 0.05,0.01 0.07,0.02l0.03 0.03c0.02,0.02 0.01,0.01 0.02,0.03 0.01,0.02 0.01,0.01 0.02,0.03l0.07 0.1c-0.01,0.03 -0.01,-0.01 0.02,-0.01 0,-0 0.01,-0 0.01,-0 -0.01,0.01 -0,0 -0,0.02l0.01 -0.02c0.01,-0.01 0.01,-0.01 0.01,-0.02 0,-0.01 0.01,-0.03 0.01,-0.04 0.02,-0.07 0.07,-0.17 0.11,-0.23l-0.01 -0.02c-0,-0 -0,-0.01 -0,-0.01 -0.01,-0.03 0.01,-0.01 -0.01,-0.03 -0.02,-0.02 -0.01,-0 -0.02,0l-0.01 0.01c-0,0 -0,0.01 -0.01,0.01 -0,-0 -0,0 -0.01,0.01 -0.03,-0.06 -0,-0.02 -0.04,-0.06 -0.02,-0.02 -0.01,-0.01 -0.02,-0.03 -0.04,-0.06 -0.03,-0.02 -0.08,-0.07 -0.03,-0.03 -0.02,-0.03 -0.02,-0.08 -0.04,-0 -0.03,-0 -0.06,-0.03l-0.03 -0.03c-0,-0 -0,-0 -0.01,-0 -0,-0 -0.01,-0.01 -0.01,-0.01 -0,-0 -0,-0 -0.01,-0l-0.07 -0.09c-0.07,0.06 -0.15,0.24 -0.16,0.32z"/>
   <path fill="#F66B01" d="M0.46 2.33l-0.01 0.27 -0 0.16c-0.03,-0.02 -0.02,-0.04 -0.02,-0.09 -0.04,-0 -0.06,0.01 -0.08,-0.02 -0.02,-0.02 -0.01,-0.03 -0.02,-0.07 -0.03,-0 -0.06,0.01 -0.08,-0.03 -0.02,-0.03 0,-0.03 -0.03,-0.07 -0,-0 -0,-0 -0.01,-0.01l-0.04 -0.04c-0.01,-0.01 -0.02,-0.02 -0.02,-0.02l-0.02 -0.02c-0,-0 -0,-0 -0.01,-0.01l-0.06 -0.07c-0.03,-0.02 -0.02,-0 -0.05,-0.02l-0 -0.05c-0,-0 -0,-0.01 -0,-0.01l-0.01 -0.01 -0 0.52 0.03 -0c0,-0.03 -0,-0.06 0.01,-0.08 0.03,0.01 0.01,-0 0.02,0.02 0,0 0,0.01 0.01,0.02 0.02,0.04 0.01,0.02 0.04,0.05l0.05 0.05c0.02,0.02 0.01,0.01 0.03,0.03 0,0 0.01,0.01 0.01,0.01 0.05,0.06 0.04,0 0.11,0.08 0.03,0.03 0.03,0.02 0.06,0.05 0.02,0.02 0.02,0.04 0.04,0.06 0.06,0.04 -0.04,-0.02 0.07,-0.01l0 0.16 -0 -1.72 -0.01 0 -0 0.86z"/>
   <path fill="#B5368B" d="M3.19 2.8c0.03,0.01 0.02,-0.01 0.03,0.01 -0,0.01 -0.01,0.02 -0.01,0.04 0.04,-0.02 0.01,-0.01 0.05,-0.03 -0,0.07 0.03,0.08 0.03,0.08 0.02,0.02 0,-0 0.02,0.02l0.01 0.01c0.01,0.02 -0.01,0 0.02,0.03 0.03,0.04 0.03,0.01 0.06,0.04 0.03,0.03 0.01,0.03 0.03,0.07 0.03,-0 0.02,-0 0.03,-0.01l0.02 -0.01c0.08,0.12 0.03,0.04 0.03,0.07 -0,0.01 -0.02,0.02 0.01,0.03l0.04 -0.01c0,-0 0.01,-0 0.01,-0 0.02,0.03 0.03,0.03 0.03,0.06 0,0.05 0.03,0.03 0.06,0.06 0.04,0.03 0.01,0.01 0.03,0.05 0.03,0.04 0.03,0.02 0.05,0.04 0.05,0.03 0.01,0.01 0.03,0.05l0.06 0.09c0.05,-0.11 0.08,-0.21 0.08,-0.35 -0.01,0.02 0,0.05 -0.03,0.09 -0.01,-0.02 -0.01,-0.02 -0.02,-0.04 -0.02,-0.03 -0.03,-0.02 -0.06,-0.06l-0.04 -0.05c-0,-0 -0.02,-0.01 -0.02,-0.01l-0.11 -0.11c-0,-0 -0,-0 -0,-0.01 -0,-0 -0,-0 -0,-0.01 -0.01,-0.01 -0.01,-0.02 -0.02,-0.04 -0.01,-0.03 -0.01,-0.05 -0.04,-0.07 -0.08,-0.05 -0.02,0.01 -0.06,-0.06 -0.01,-0.02 -0.01,-0.03 -0.04,-0l-0.07 -0.07c-0.02,-0.01 0,0.02 -0.03,-0.01 -0.02,-0.02 -0.02,-0.06 -0.04,-0.08 0,-0.01 0,-0.06 -0,-0.06 -0.01,-0.04 0.02,-0.01 -0.02,-0.02 -0.02,0.1 -0.03,0.2 -0.08,0.28z"/>
   <path fill="#F99801" d="M0.01 2.76l0 0.43 0.02 -0.08 0.01 -0.07c0.01,-0.03 -0,-0.01 0.01,-0.02 0.03,0.01 0.01,-0 0.02,0.03 0,0.01 0,0.04 0,0.05 0.02,-0.04 -0,-0.06 0.03,-0.02 0.03,0.04 0,0.03 0.04,0.06 0.03,0.02 0.03,0.01 0.06,0.04 0.03,0.04 -0.01,0.02 0.04,0.05 0.12,0.07 -0.02,0.02 0.1,0.09 0.05,0.03 0.03,0.07 0.06,0.07 0.05,0.01 -0.02,0.01 0.01,-0l0.01 -0.01c0,-0 0,-0 0.01,-0.01 -0,0.07 -0,0.01 -0.01,0.07 0.02,-0.01 0.01,-0.01 0.02,-0.02 0.02,-0.01 -0,-0.01 0.02,-0.02 0.01,0.14 0.06,0.01 0.08,0.15 0.01,-0.01 0.02,-0.01 0.03,-0.02 -0.05,-0.11 -0.08,-0.22 -0.09,-0.36l-0 -0.16c-0.11,-0.01 -0.01,0.05 -0.07,0.01 -0.02,-0.01 -0.02,-0.04 -0.04,-0.06 -0.02,-0.03 -0.03,-0.02 -0.06,-0.05 -0.07,-0.08 -0.05,-0.02 -0.11,-0.08 -0,-0 -0.01,-0.01 -0.01,-0.01 -0.02,-0.02 -0.01,-0.01 -0.03,-0.03l-0.05 -0.05c-0.02,-0.03 -0.02,-0.01 -0.04,-0.05 -0,-0.01 -0,-0.01 -0.01,-0.02 -0.01,-0.03 0.01,-0.01 -0.02,-0.02 -0.02,0.02 -0.01,0.05 -0.01,0.08l-0.03 0z"/>
   <path fill="#F99801" d="M1.36 4.51l0 0.04 -0.26 0 2.33 -0 -0.52 0 -0.42 -0 -0.34 -0c-0.17,0.01 -0.15,-0.02 -0.35,-0.02 0.03,-0.01 0.05,-0.01 0.09,-0.01 -0,-0.13 -0.08,-0.08 -0.12,-0.13 -0.02,-0.02 -0.05,-0.1 -0.1,-0.14 0.02,-0.02 -0.03,-0.02 0.04,-0.02 -0.01,-0 -0.04,0 -0.05,-0 -0.06,-0.01 0,-0.02 -0.12,-0.03l-0 -0.04c-0.08,-0 -0.14,-0 -0.22,-0.02 -0.06,-0.01 -0.15,-0.04 -0.19,-0.04 -0.02,0.01 -0.01,0 -0.02,0.02 0.02,0.05 -0.01,-0.01 0.03,0.03l0.08 0.06c0.04,0.03 0.01,0.03 0.04,0.06 0.03,0.03 0.03,0 0.06,0.04 0.03,0.04 -0.01,0.02 0.04,0.06 0.03,0.02 0.03,-0 0.05,0.04 0.06,0.09 0.04,0.02 0.09,0.09 -0.05,0.01 -0.03,0.01 -0.13,0.02z"/>
   <path fill="#EC0E23" d="M2.43 3.11c-0.01,-0.02 -0,-0.02 -0.07,-0.03 -0.09,-0.01 -0.11,-0.07 -0.16,-0.12l-0.05 -0.04c-0.03,-0.02 -0,-0.01 -0.03,-0.05 -0.02,-0.04 -0.06,-0.04 -0.07,-0.04l-0 -0.06 -0.16 -0.1c-0.02,-0.04 -0.04,-0.1 -0.08,-0.12 -0.03,-0.02 -0.03,-0.01 -0.05,-0.04 -0.03,-0.04 0,-0.04 -0.06,-0.05 -0.02,0.03 -0.01,0.04 -0.02,0.08l0 -0.06c-0,0 -0.01,0 -0.01,0.01l-0.02 0.01c-0,-0.05 -0,-0.13 -0.03,-0.15 -0.03,0.25 0.09,0.47 0.21,0.58 0.14,0.13 0.34,0.21 0.6,0.18z"/>
   <path fill="#B5368B" d="M0.67 0.14l-0 0.02c0.06,-0 0.09,0.02 0.14,-0.02 0.03,0.04 0.02,-0.01 0.06,0.06 0.02,0.03 0.03,0.06 0.06,0.08 0.05,0.03 0.09,0.1 0.14,0.15l0.04 0.03c0.02,0.02 0.03,0.02 0.03,0.06 0.1,-0.02 0.16,-0.04 0.27,-0.05 0,-0 0.01,-0.01 0.01,-0.01l0.04 -0.01c0.01,-0 0.05,0 0.06,0l-0.17 -0c0.03,-0.02 0.09,-0.02 0.13,-0.03 -0.02,-0.05 -0.03,-0.02 -0.04,-0.02l-0.05 -0.02c-0.04,-0.07 0.01,-0.01 -0.01,-0.06 -0.02,-0.04 -0,-0.01 -0.02,-0.01 -0.06,-0.01 -0.01,0.02 -0.11,-0.07 -0.02,-0.01 -0.03,-0.03 -0.04,-0.05 -0.01,-0.05 0.03,-0.01 -0.02,-0.05 -0.04,-0.04 0.03,0.06 -0.06,-0.02 -0.05,-0.05 -0.07,-0.05 -0.08,-0.06l0.06 -0.01c-0.02,-0.01 -0.02,-0.01 -0.01,-0.02l0.07 -0c-0.01,0.01 -0.1,-0 -0.13,-0.01 -0.06,-0.01 -0.15,0.02 -0.21,0.04 -0.05,0.02 -0.14,0.04 -0.18,0.08z"/>
   <path fill="#D0225A" d="M0.23 0.51l0.07 0.09c0,0 0,0 0.01,0 0,0 0.01,0.01 0.01,0.01 0,0 0,0 0.01,0l0.03 0.03c0.03,0.03 0.02,0.02 0.06,0.03 0,0.05 -0.01,0.05 0.02,0.08 0.04,0.05 0.04,0 0.08,0.07 0.01,0.02 0.01,0.01 0.02,0.03 0.04,0.04 0.02,0.01 0.04,0.06 0,-0 0,-0.01 0.01,-0.01 0,0 0,-0 0.01,-0.01l0.01 -0.01c0.01,-0.01 -0,-0.02 0.02,-0 0.02,0.02 0,-0 0.01,0.03 0,0 0,0.01 0,0.01l0.01 0.02c0.02,-0.02 0.02,-0.03 0.04,-0.06 0.02,-0.02 0.03,-0.03 0.05,-0.06 0.04,-0.05 0.06,-0.07 0.11,-0.11l-0.03 -0.03c-0.06,-0.06 -0.05,-0.01 -0.09,-0.08 -0.03,-0.06 -0.02,-0.02 -0.07,-0.09 -0.02,-0.02 -0,-0.01 -0.03,-0.03 -0.04,-0.02 -0.04,0 -0.07,-0.04 -0.08,-0.11 -0.06,-0.06 -0.07,-0.13 -0.01,-0.05 -0.02,-0.01 -0.02,-0.04 -0.04,0.01 -0.04,0.02 -0.07,0.05 -0.02,0.02 -0.04,0.04 -0.06,0.06 -0.03,0.03 -0.09,0.09 -0.1,0.13z"/>
   <path fill="#A245B2" d="M1.42 0.47l1.75 -0c-0.01,-0.01 0,-0 -0.02,-0.01l-0.07 -0c-0.2,0 -1.2,0.01 -1.27,-0.02 -0.04,-0.02 -0.12,-0.05 -0.13,-0.09 -0.02,-0 0.01,0 0.02,-0.03 -0.07,-0.04 -0.11,-0.12 -0.15,-0.14l-0.08 -0.06c-0.05,-0.03 -0.05,-0.04 -0.09,-0.04 0.03,-0 0.14,-0.01 0.17,-0.03l-0.17 -0.01 0.17 -0.02 -0.1 -0.02c-0.08,-0 -0.33,-0.02 -0.38,0.02 0.03,0.01 0.12,0.02 0.13,0.01l-0.07 0c-0,0.02 -0.01,0.02 0.01,0.02l-0.06 0.01c0.01,0.01 0.03,0.01 0.08,0.06 0.08,0.07 0.02,-0.02 0.06,0.02 0.05,0.03 0,-0 0.02,0.05 0.01,0.02 0.02,0.03 0.04,0.05 0.11,0.1 0.05,0.07 0.11,0.07 0.01,0 -0,-0.03 0.02,0.01 0.02,0.04 -0.03,-0.01 0.01,0.06l0.05 0.02c0.01,-0 0.02,-0.03 0.04,0.02 -0.04,0.02 -0.1,0.01 -0.13,0.03l0.17 0c-0.02,0 -0.05,-0 -0.06,0l-0.04 0.01c-0,-0 -0.01,0 -0.01,0.01z"/>
   <path fill="#C32A6E" d="M3.11 2.97c0.01,0 0.03,0.03 0.06,-0.01 -0,0 -0.02,0.03 -0.02,0.03 -0.01,0.02 0.01,-0.01 -0.02,0.02l-0.02 0.02 0.11 0.08c0,0 0,0 0.01,0.01 0,0 0.01,0.01 0.01,0.01 0.07,0.07 0.07,0.1 0.11,0.12 0.07,0.04 0.02,0.04 0.07,0.08 0.03,0.02 0.01,-0.01 0.06,0.04 0.1,0.1 0.01,-0.02 0.12,0.15 0.03,0.05 0.02,0.02 0.06,0.05 0.03,0.02 0.01,0.02 0.05,0.04l0.01 0c0.04,-0.04 0.05,-0.08 0.09,-0.13l-0.06 -0.09c-0.02,-0.04 0.02,-0.02 -0.03,-0.05 -0.02,-0.02 -0.02,0 -0.05,-0.04 -0.02,-0.03 0.01,-0.02 -0.03,-0.05 -0.03,-0.02 -0.05,-0 -0.06,-0.06 -0,-0.04 -0.01,-0.03 -0.03,-0.06 -0,0 -0.01,0 -0.01,0l-0.04 0.01c-0.03,-0.01 -0.01,-0.02 -0.01,-0.03 0,-0.04 0.05,0.04 -0.03,-0.07l-0.02 0.01c-0.01,0 0,0.01 -0.03,0.01 -0.02,-0.04 0,-0.04 -0.03,-0.07 -0.03,-0.03 -0.02,0 -0.06,-0.04 -0.02,-0.03 -0.01,-0.01 -0.02,-0.03l-0.01 -0.01c-0.01,-0.02 0,0 -0.02,-0.02 -0,-0 -0.03,-0.01 -0.03,-0.08 -0.04,0.02 -0.01,0.02 -0.05,0.03 0.01,-0.01 0.01,-0.03 0.01,-0.04 -0.01,-0.02 -0,-0 -0.03,-0.01l-0.08 0.17z"/>
   <path fill="#A245B2" d="M4.15 2.84l0 0.27c0.02,-0.02 0.01,0.01 0.02,-0.05 0,-0.02 -0,-0.03 -0.01,-0.03 0,0.09 0.02,0.15 0.03,0.24 0,0 0.01,-0 0.01,0 0.01,0.02 0.03,-0.03 0.06,0.09 0.07,-0.01 0,-0.01 0.05,-0.03 0.02,0.05 -0.03,0.02 0.03,0.08 0.04,0.04 0.01,0.02 0.03,0.02 0,0 0.02,-0.01 0.03,0.01 0.01,0.02 -0.03,0.01 0.04,0.07l0.03 0.08c0,0 0,0.01 0,0.01l0.01 0.02c0.01,-0.03 0.01,-0.13 0.03,-0.07 0.01,-0.01 0,0 0.01,-0.03 0,-0.01 0.01,-0.03 0.01,-0.04 0,-0.03 0,-0.06 0,-0.09 0.02,-0.09 -0.02,-0.22 -0.02,-0.27 -0,-0 -0.01,-0 -0.01,-0l-0.05 -0.07c-0.01,0.04 0,0.03 -0.01,0.06 -0.05,-0.01 -0.01,0.01 -0.04,-0.02l-0.04 -0.05c-0.05,-0.08 -0.07,-0.07 -0.1,-0.11 -0.05,-0.06 -0.01,-0.01 -0.06,-0.03 -0,-0.04 0,-0.09 -0.02,-0.12 -0.05,0.01 -0.01,-0.01 -0.03,0.04 -0.01,0.03 0.02,0.03 -0.02,0.04z"/>
   <path fill="#DE1639" d="M3.39 4.12c0.06,0.02 -0,-0.01 0.02,0.03 0.02,0.04 0.03,0.06 0.06,0.07 0.1,0.06 0.1,0.06 0.15,0.17 0.12,0.01 0.07,0.02 0.09,0.06 0.03,0.06 0,-0.03 0.03,0.04 0.12,-0.05 0.23,-0.09 0.31,-0.16 -0,-0 -0.01,-0 -0.01,-0 -0,-0 -0.01,-0 -0.01,-0 -0,-0 -0.01,-0 -0.01,-0 -0.03,-0.02 -0.02,-0 -0.05,-0.04l-0.13 -0.14c-0.1,-0.09 0.02,-0.01 -0.06,-0.04 -0.03,-0.01 -0.03,-0.03 -0.04,-0.04 -0.02,-0.02 -0.04,-0.02 -0.05,-0.02 0,-0.01 0,-0.01 0.01,-0.03 0,-0.02 0,-0 -0,-0.02 -0.13,0.08 -0.27,0.12 -0.3,0.15z"/>
   <path fill="#B5368B" d="M3.95 3.72c0.03,0.01 0.04,-0 0.01,0.03 0.05,-0.01 0.03,-0.02 0.09,0.06 0.03,0.03 0.05,0.06 0.08,0.09l0.16 0.18c0.07,-0.06 0.13,-0.22 0.18,-0.32l-0.02 0.01c-0.01,-0.01 -0,-0.01 -0.01,-0.02 -0.01,-0.01 -0.01,-0.01 -0.02,-0.02 -0.04,-0.02 -0.01,0 -0.03,0.01 -0.01,0 -0,0.01 -0.02,-0.02l-0.04 -0.05c-0,-0 -0,-0 -0.01,-0 -0.11,-0.09 -0.03,-0.09 -0.13,-0.1 -0.02,-0.08 -0.02,-0.06 -0.04,-0.08 -0.08,-0.06 0.01,-0.04 -0.05,-0.06 -0.01,0.02 -0.05,0.12 -0.06,0.15 -0.03,0.06 -0.06,0.1 -0.08,0.15z"/>
   <path fill="#F94301" d="M2.15 4.54l0.34 0 -0 -0.03 0.09 -0c-0.03,-0.03 0.02,-0.01 -0.05,-0.03 -0,0 -0.03,0 -0.04,0 0,0 -0.01,0.01 0.03,0 0.03,-0.01 0.01,-0 0.03,-0.01 -0.03,-0.05 -0.06,-0.06 -0.1,-0.1 -0.04,-0.04 -0.11,-0.12 -0.15,-0.14 0.05,-0.01 0.13,-0.04 0.18,-0.04 -0.04,-0 -0.07,-0.01 -0.08,-0.01 -0.09,-0.03 -0.2,0 -0.25,-0.03l-0.43 -0c0.03,0.02 0.09,0.01 0.13,0.01l0.1 0.03 0.03 0.02 -0.05 0.02 0.07 0.06c0.03,0.01 0.04,0.01 0.06,0.01 0,0.04 -0,0.04 0.01,0.06 0.05,0.09 0.08,0.05 0.1,0.11l-0.02 0.01 0 0.04z"/>
   <path fill="#F94301" d="M0.01 1.81l0 0.35c0.02,-0.03 0.02,-0.04 0.02,-0.09 0.01,0.01 0.03,0.13 0.03,0.17 0,-0 0,-0.01 0,-0.01l0.01 -0.08c0.08,0 0.03,-0 0.06,0.02 0.13,0.1 0.02,-0 0.13,0.14l0.07 0.06c0,0 0,0 0,0.01 0.06,0.08 0.05,0.03 0.08,0.09 0.03,0.05 -0,0.04 0.05,0.04 0,0.01 0,0.03 -0,0.04 -0,0 -0,0.01 -0,0.01 -0,0 -0,0.01 -0,0.01 -0,0 -0,0.01 -0,0.01 -0,0 -0,0.01 -0,0.01l0.01 -0.27c-0.03,-0.09 0,-0.14 -0.08,-0.22l-0.05 -0.06c-0,-0 -0,-0 -0,-0.01l-0.02 -0.02c-0,-0 -0.01,-0.01 -0.01,-0.01l-0.02 -0.03c-0.03,-0.06 0.02,0.05 -0.01,-0.01l-0.05 -0.03c-0.04,-0.03 0.01,-0.02 -0.07,-0.07 -0.07,-0.05 -0,-0.05 -0.1,-0.05 -0,-0.04 0,-0.06 -0.01,-0.08 -0.02,0.03 -0,0.01 -0.01,0.04l-0.01 0.04c-0,0 -0,0.01 -0,0.01z"/>
   <path fill="#F61B01" d="M2.49 4.54l0.42 0 0.01 -0.06 -0.09 -0c0.06,0.04 0.04,-0.01 0.05,-0.03l-0.06 -0.03c-0.04,-0.02 -0.01,-0.02 -0.04,-0.06 -0.03,-0.04 -0.02,-0.01 -0.06,-0.03 -0.03,-0.02 -0.01,-0.02 -0.03,-0.06 -0.11,-0.05 -0.04,-0.03 -0.08,-0.05 -0.03,-0.01 -0.03,-0.01 -0.04,0 0.05,-0 0.13,0 0.17,-0.02l-0.16 -0.01c0.01,0.01 0.01,0.01 0.04,0.01 0.07,-0.01 0.03,0.01 0.04,-0.03 -0.03,-0.01 -0.11,-0 -0.17,-0.02 -0,-0 -0.01,-0 -0.01,-0l-0.34 0c0.06,0.03 0.16,-0.01 0.25,0.03 0.01,0 0.04,0.01 0.08,0.01 -0.05,0 -0.14,0.03 -0.18,0.04 0.04,0.02 0.12,0.1 0.15,0.14 0.04,0.04 0.07,0.05 0.1,0.1 -0.02,0.01 0,0.01 -0.03,0.01 -0.04,0.01 -0.02,0 -0.03,-0 0,0 0.04,-0 0.04,-0 0.07,0.02 0.02,-0.01 0.05,0.03l-0.09 0 0 0.03z"/>
   <path fill="#EC0E23" d="M3.17 4.15c0.01,0.04 0.01,0.02 -0.04,0.03l-0.21 0.01c0.02,-0.01 0.09,-0.01 0.12,-0.01l0.12 0.02c0,0 0.01,0 0.01,0l0 0.01c-0,0 -0.01,0 -0.01,0 -0.01,0.02 -0,0 -0.01,0.01 -0.02,0.01 -0.01,-0 -0.02,0.01 0.02,0.01 0.02,0.01 0.04,0.02 0.02,0.01 0.03,0.01 0.03,0.04 0.01,0.05 -0,-0.04 -0,0.02 0,0.01 -0.01,-0 0.01,0.02 0,0 0,0 0,0l0.01 0.01c0.05,0.05 0.03,0.03 0.07,0.05 0.03,0.02 -0,0.01 0.04,0.03 0.04,0.02 0.09,0.06 0.01,0.05 0.07,0 0.06,0 0.08,0.03l-0.08 0c0.05,0.01 0.07,-0 0.11,-0 0.01,0.02 0.01,0.01 0.01,0.03l0.25 -0.05c-0.03,-0.07 0,0.02 -0.03,-0.04 -0.02,-0.04 0.04,-0.05 -0.09,-0.06 -0.05,-0.11 -0.05,-0.11 -0.15,-0.17 -0.03,-0.01 -0.03,-0.03 -0.06,-0.07 -0.02,-0.04 0.04,-0.02 -0.02,-0.03l-0.22 0.03z"/>
   <path fill="#EC0E23" d="M0.02 1.04c0.01,-0.01 0.02,-0 0.03,-0.03l-0 0.13c0,-0 0,-0.01 0,-0.01l0.01 -0.02c0.01,-0.03 0.01,-0.04 0.01,-0.07 0.02,0.03 0.06,0.09 0.08,0.11 0.02,0.01 0.02,0 0.03,0.02 0.04,0.04 -0.02,0.06 0.05,0.09 0.01,0 0.02,-0.02 0.04,0 0.02,0.02 0.01,0.03 0.03,0.05 0.02,0.02 0.03,0.01 0.05,0.03 0.02,0.02 0.02,0.04 0.03,0.06 0.03,-0.01 0.02,-0.01 0.03,-0.03 0,0.1 0,0.07 0.01,0.08 0.02,-0.04 -0,-0.05 0.03,-0.08 -0.01,0.05 -0.01,0.04 -0.01,0.09l0.01 0 0.02 -0.22c-0,-0.02 -0.01,-0.01 0,-0.02 -0,-0 -0.01,0 -0.01,0 -0.03,0 -0.03,0.04 -0.02,0.01l-0.07 -0.1c-0.02,-0.02 -0.01,-0.01 -0.02,-0.03 -0.01,-0.02 -0,-0.01 -0.02,-0.03l-0.03 -0.03c-0.02,-0.01 -0.04,-0.02 -0.07,-0.02 -0,-0.06 -0.01,-0.03 -0.03,-0.07 -0.05,-0.09 -0.07,-0.06 -0.13,-0.11 -0.02,-0.02 0.01,-0 -0.02,-0.02l-0.05 0.22z"/>
   <path fill="#F66B01" d="M2.15 4.54l-0 -0.04 0.02 -0.01c-0.02,-0.07 -0.05,-0.02 -0.1,-0.11 -0.02,-0.03 -0.01,-0.02 -0.01,-0.06 -0.03,-0 -0.04,0 -0.06,-0.01l-0.07 -0.06 0.05 -0.02 -0.03 -0.02 -0.1 -0.03c-0.04,-0 -0.1,0.01 -0.13,-0.01l-0.18 0 0 0.04c0.12,0 0.06,0.01 0.12,0.03 0.01,0 0.03,0 0.05,0 -0.07,-0 -0.02,0 -0.04,0.02 0.05,0.03 0.08,0.11 0.1,0.14 0.04,0.05 0.11,0 0.12,0.13 -0.03,0 -0.06,-0 -0.09,0.01 0.21,0 0.18,0.04 0.35,0.02z"/>
   <path fill="#B5368B" d="M4.1 3.43c0.06,0.02 -0.02,0.01 0.05,0.06 0.03,0.02 0.03,-0 0.04,0.08 0.1,0 0.02,0.01 0.13,0.1 0,0 0,0 0.01,0l0.04 0.05c0.02,0.02 0.02,0.02 0.02,0.02 0.02,-0.01 -0.01,-0.03 0.03,-0.01 0.01,0 0.01,0.01 0.02,0.02 0.01,0.01 0.01,0.01 0.01,0.02l0.02 -0.01c0.02,-0.06 0.05,-0.15 0.04,-0.22 -0.02,-0.06 -0.02,0.05 -0.03,0.07l-0.01 -0.02c-0,-0 -0,-0.01 -0,-0.01l-0.03 -0.08c-0.07,-0.07 -0.04,-0.06 -0.04,-0.07 -0.01,-0.02 -0.03,-0.01 -0.03,-0.01 -0.02,-0 0,0.02 -0.03,-0.02 -0.06,-0.06 -0.01,-0.03 -0.03,-0.08 -0.05,0.02 0.01,0.02 -0.05,0.03 -0.03,-0.12 -0.05,-0.07 -0.06,-0.09 -0,-0 -0.01,-0 -0.01,-0 -0.01,-0.09 -0.03,-0.15 -0.03,-0.24 0.01,0.01 0.01,0.01 0.01,0.03 -0.01,0.06 -0,0.03 -0.02,0.05l-0 -0.27 -0 -0.07c0,0.26 0.01,0.42 -0.04,0.66z"/>
   <path fill="#F94301" d="M0.01 2.17l0 0.08 0.01 0.01c0,0 0,0.01 0,0.01l0 0.05c0.02,0.01 0.02,0 0.05,0.02l0.06 0.07c0,0 0,0 0.01,0.01l0.02 0.02c0.01,0.01 0.02,0.02 0.02,0.02l0.04 0.04c0,0 0,0 0.01,0.01 0.04,0.04 0.02,0.03 0.03,0.07 0.02,0.03 0.04,0.03 0.08,0.03 0,0.04 -0.01,0.05 0.02,0.07 0.02,0.02 0.05,0.02 0.08,0.02 0,0.04 -0.01,0.07 0.02,0.09l0 -0.16c0,-0 0,-0.01 0,-0.01 0,-0 0,-0.01 0,-0.01 0,-0 0,-0.01 0,-0.01 0,-0 0,-0.01 0,-0.01 0,-0.01 0,-0.03 0,-0.04 -0.05,-0 -0.02,0.01 -0.05,-0.04 -0.03,-0.05 -0.02,-0.01 -0.08,-0.09 -0,-0 -0,-0 -0,-0.01l-0.07 -0.06c-0.11,-0.14 0,-0.03 -0.13,-0.14 -0.03,-0.02 0.01,-0.02 -0.06,-0.02l-0.01 0.08c-0,-0 -0,0.01 -0,0.01 0,-0.04 -0.02,-0.16 -0.03,-0.17 0,0.05 0,0.06 -0.02,0.09z"/>
   <path fill="white" d="M3.27 1.14c-0.22,0.07 -0.11,0.39 0.1,0.32 0.19,-0.06 0.13,-0.4 -0.1,-0.32z"/>
  </g>
 </g>
</svg>
