<?xml version="1.0" encoding="UTF-8"?>
<!DOCTYPE svg PUBLIC "-//W3C//DTD SVG 1.1//EN" "http://www.w3.org/Graphics/SVG/1.1/DTD/svg11.dtd">
<!-- Creator: CorelDRAW 2021 (64-Bit) -->
<svg xmlns="http://www.w3.org/2000/svg" xml:space="preserve" width="0.091in" height="0.0909961in" version="1.1" shape-rendering="geometricPrecision" text-rendering="geometricPrecision" image-rendering="optimizeQuality" fill-rule="evenodd" clip-rule="evenodd"
viewBox="0 0 4.08 4.08"
 xmlns:xlink="http://www.w3.org/1999/xlink"
 xmlns:xodm="http://www.corel.com/coreldraw/odm/2003">
 <g id="Layer_x0020_1">
  <metadata id="CorelCorpID_0Corel-Layer"/>
  <g id="_2152069410912">
   <path fill="#40BBF4" d="M1.91 0.01c-1.15,0.09 -1.97,1.03 -1.91,2.16 0.06,1.08 0.99,1.97 2.16,1.9 1.09,-0.06 1.98,-1 1.91,-2.16 -0.03,-0.59 -0.32,-1.07 -0.66,-1.38 -0.34,-0.32 -0.89,-0.58 -1.5,-0.53z"/>
   <path fill="#FDFFFD" d="M2.08 1.65c-0.37,-0.02 -0.66,-0.15 -0.92,-0.36 -0.1,-0.08 -0.17,-0.18 -0.21,-0.21 -0.07,0.09 -0.09,0.28 -0.06,0.42 0.02,0.09 0.08,0.18 0.14,0.24 0.02,0.02 0.05,0.04 0.07,0.07 -0.11,0 -0.16,-0.04 -0.23,-0.06 -0.01,0.22 0.14,0.42 0.33,0.51 0.03,0.01 0.07,0.02 0.09,0.03 -0.06,0.03 -0.16,0.01 -0.23,0.01 0.02,0.14 0.17,0.28 0.32,0.34l0.17 0.04c0,0 0,0 0.01,0 -0.07,0.07 -0.23,0.15 -0.34,0.18 -0.26,0.08 -0.32,0.03 -0.45,0.05 0.02,0 0.13,0.07 0.16,0.09 0.46,0.23 1.07,0.2 1.51,-0.07 0.22,-0.14 0.39,-0.32 0.52,-0.55 0.07,-0.11 0.12,-0.23 0.16,-0.38 0.02,-0.07 0.04,-0.15 0.05,-0.23 0.05,-0.42 -0.09,-0.14 0.15,-0.38 0.03,-0.03 0.1,-0.11 0.12,-0.15 -0.08,0.02 -0.16,0.06 -0.28,0.07 0.02,-0.03 0.07,-0.05 0.12,-0.12 0.03,-0.04 0.08,-0.11 0.09,-0.17 -0.03,0.01 -0.06,0.03 -0.09,0.04 -0.06,0.03 -0.14,0.06 -0.21,0.07 -0.06,0.01 -0.06,-0.01 -0.09,-0.04 -0.24,-0.2 -0.61,-0.15 -0.8,0.1 -0.11,0.14 -0.12,0.25 -0.1,0.46z"/>
  </g>
 </g>
</svg>
