<?xml version="1.0" encoding="UTF-8"?>
<!DOCTYPE svg PUBLIC "-//W3C//DTD SVG 1.1//EN" "http://www.w3.org/Graphics/SVG/1.1/DTD/svg11.dtd">
<!-- Creator: CorelDRAW 2021 (64-Bit) -->
<svg xmlns="http://www.w3.org/2000/svg" xml:space="preserve" width="0.091122in" height="0.091in" version="1.1" shape-rendering="geometricPrecision" text-rendering="geometricPrecision" image-rendering="optimizeQuality" fill-rule="evenodd" clip-rule="evenodd"
viewBox="0 0 3.71 3.71"
 xmlns:xlink="http://www.w3.org/1999/xlink"
 xmlns:xodm="http://www.corel.com/coreldraw/odm/2003">
 <g id="Layer_x0020_1">
  <metadata id="CorelCorpID_0Corel-Layer"/>
  <g id="_2116556224256">
   <circle fill="#FEFEFE" cx="1.86" cy="1.85" r="1.85"/>
   <path fill="#1A78F3" d="M-0 1.72l0 0.29c0,0.01 0.04,0.25 0.06,0.34 0.13,0.48 0.46,0.9 0.89,1.14 0.13,0.07 0.42,0.2 0.61,0.21l0 -1.29 -0.47 -0 -0 -0.54 0.47 -0c0,-0.38 -0.04,-0.73 0.19,-0.95 0.1,-0.09 0.21,-0.16 0.39,-0.18 0.21,-0.03 0.37,0.02 0.53,0.03l-0 0.46c-0.2,0 -0.38,-0.03 -0.48,0.11 -0.08,0.11 -0.05,0.37 -0.05,0.53l0.51 0 -0.08 0.53 -0.43 0 -0 1.3c0.19,-0.01 0.48,-0.14 0.61,-0.21 0.49,-0.27 0.84,-0.77 0.93,-1.32 0.01,-0.04 0.02,-0.16 0.02,-0.18l0 -0.24c-0.01,-0.02 -0.02,-0.15 -0.02,-0.19 -0.07,-0.39 -0.25,-0.74 -0.52,-1 -0.14,-0.14 -0.31,-0.26 -0.51,-0.36 -0.16,-0.08 -0.32,-0.13 -0.5,-0.16 -0.03,-0.01 -0.17,-0.02 -0.19,-0.02l-0.24 0c-0.02,0.01 -0.15,0.02 -0.18,0.02 -0.78,0.13 -1.39,0.73 -1.53,1.5 -0.01,0.04 -0.02,0.16 -0.03,0.19z"/>
  </g>
 </g>
</svg>
